<?plantuml 1.2026.2?><svg xmlns="http://www.w3.org/2000/svg" xmlns:xlink="http://www.w3.org/1999/xlink" contentStyleType="text/css" data-diagram-type="CLASS" height="447px" preserveAspectRatio="none" style="width:342px;height:447px;background:#FFFFFF;" version="1.1" viewBox="0 0 342 447" width="342px" zoomAndPan="magnify"><title>&#1054;&#1073;&#1077;&#1089;&#1087;&#1077;&#1095;&#1077;&#1085;&#1080;&#1077; &#1082;&#1086;&#1085;&#1089;&#1080;&#1089;&#1090;&#1077;&#1085;&#1090;&#1085;&#1086;&#1089;&#1090;&#1080; &#1076;&#1072;&#1085;&#1085;&#1099;&#1093;</title><defs/><g><g class="title" data-source-line="1"><text fill="#000000" font-family="sans-serif" font-size="14" font-weight="bold" lengthAdjust="spacing" textLength="314.3711" x="10" y="22.9951">&#1054;&#1073;&#1077;&#1089;&#1087;&#1077;&#1095;&#1077;&#1085;&#1080;&#1077; &#1082;&#1086;&#1085;&#1089;&#1080;&#1089;&#1090;&#1077;&#1085;&#1090;&#1085;&#1086;&#1089;&#1090;&#1080; &#1076;&#1072;&#1085;&#1085;&#1099;&#1093;</text></g><!--class WriteModel--><g class="entity" data-qualified-name="WriteModel" data-source-line="3" id="ent0002"><rect fill="#F1F1F1" height="80.5938" rx="2.5" ry="2.5" style="stroke:#181818;stroke-width:0.5;" width="140.5068" x="102.9686" y="44.2969"/><ellipse cx="117.9686" cy="60.2969" fill="#ADD1B2" rx="11" ry="11" style="stroke:#181818;stroke-width:1;"/><path d="M122.0779,66.2969 L114.3592,66.2969 L114.3592,53.9063 L122.0779,53.9063 L122.0779,56.0625 L116.8123,56.0625 L116.8123,58.7344 L121.5779,58.7344 L121.5779,60.8906 L116.8123,60.8906 L116.8123,64.1406 L122.0779,64.1406 L122.0779,66.2969 Z " fill="#000000"/><text fill="#000000" font-family="sans-serif" font-size="14" lengthAdjust="spacing" textLength="108.5068" x="131.9686" y="65.1436">&#1050;&#1086;&#1085;&#1090;&#1091;&#1088; &#1079;&#1072;&#1087;&#1080;&#1089;&#1080;</text><line style="stroke:#181818;stroke-width:0.5;" x1="103.9686" x2="242.4754" y1="76.2969" y2="76.2969"/><text fill="#000000" font-family="sans-serif" font-size="14" lengthAdjust="spacing" textLength="99.4902" x="108.9686" y="93.292">reservation_id</text><text fill="#000000" font-family="sans-serif" font-size="14" lengthAdjust="spacing" textLength="51.2764" x="108.9686" y="109.5889">version</text><line style="stroke:#181818;stroke-width:0.5;" x1="103.9686" x2="242.4754" y1="116.8906" y2="116.8906"/></g><!--class Events--><g class="entity" data-qualified-name="Events" data-source-line="8" id="ent0003"><rect fill="#F1F1F1" height="80.5938" rx="2.5" ry="2.5" style="stroke:#181818;stroke-width:0.5;" width="110.1504" x="118.1486" y="201.8869"/><ellipse cx="139.6494" cy="217.8869" fill="#ADD1B2" rx="11" ry="11" style="stroke:#181818;stroke-width:1;"/><path d="M143.7588,223.8869 L136.04,223.8869 L136.04,211.4962 L143.7588,211.4962 L143.7588,213.6525 L138.4931,213.6525 L138.4931,216.3244 L143.2588,216.3244 L143.2588,218.4806 L138.4931,218.4806 L138.4931,221.7306 L143.7588,221.7306 L143.7588,223.8869 Z " fill="#000000"/><text fill="#000000" font-family="sans-serif" font-size="14" lengthAdjust="spacing" textLength="63.7041" x="155.094" y="222.7336">&#1057;&#1086;&#1073;&#1099;&#1090;&#1080;&#1103;</text><line style="stroke:#181818;stroke-width:0.5;" x1="119.1486" x2="227.2989" y1="233.8869" y2="233.8869"/><text fill="#000000" font-family="sans-serif" font-size="14" lengthAdjust="spacing" textLength="59.6504" x="124.1486" y="250.882">event_id</text><text fill="#000000" font-family="sans-serif" font-size="14" lengthAdjust="spacing" textLength="98.1504" x="124.1486" y="267.1789">event_version</text><line style="stroke:#181818;stroke-width:0.5;" x1="119.1486" x2="227.2989" y1="274.4806" y2="274.4806"/></g><!--class ReadModel--><g class="entity" data-qualified-name="ReadModel" data-source-line="13" id="ent0004"><rect fill="#F1F1F1" height="80.5938" rx="2.5" ry="2.5" style="stroke:#181818;stroke-width:0.5;" width="144.3008" x="101.0686" y="359.4869"/><ellipse cx="116.0686" cy="375.4869" fill="#ADD1B2" rx="11" ry="11" style="stroke:#181818;stroke-width:1;"/><path d="M120.1779,381.4869 L112.4592,381.4869 L112.4592,369.0962 L120.1779,369.0962 L120.1779,371.2525 L114.9123,371.2525 L114.9123,373.9244 L119.6779,373.9244 L119.6779,376.0806 L114.9123,376.0806 L114.9123,379.3306 L120.1779,379.3306 L120.1779,381.4869 Z " fill="#000000"/><text fill="#000000" font-family="sans-serif" font-size="14" lengthAdjust="spacing" textLength="112.3008" x="130.0686" y="380.3336">&#1052;&#1086;&#1076;&#1077;&#1083;&#1100; &#1095;&#1090;&#1077;&#1085;&#1080;&#1103;</text><line style="stroke:#181818;stroke-width:0.5;" x1="102.0686" x2="244.3693" y1="391.4869" y2="391.4869"/><text fill="#000000" font-family="sans-serif" font-size="14" lengthAdjust="spacing" textLength="91.9023" x="107.0686" y="408.482">last_event_id</text><text fill="#000000" font-family="sans-serif" font-size="14" lengthAdjust="spacing" textLength="51.2764" x="107.0686" y="424.7789">version</text><line style="stroke:#181818;stroke-width:0.5;" x1="102.0686" x2="244.3693" y1="432.0806" y2="432.0806"/></g><!--link WriteModel to Events--><g class="link" data-entity-1="ent0002" data-entity-2="ent0003" data-link-type="crowfoot" data-source-line="18" id="lnk5"><path codeLine="18" d="M173.2186,133.2569 C173.2186,156.6669 173.2186,160.1969 173.2186,183.5969" fill="none" id="WriteModel-Events" style="stroke:#181818;stroke-width:1;"/><line style="stroke:#181818;stroke-width:1;" x1="169.2186" x2="177.2186" y1="129.2569" y2="129.2569"/><line style="stroke:#181818;stroke-width:1;" x1="169.2186" x2="177.2186" y1="132.2569" y2="132.2569"/><line style="stroke:#181818;stroke-width:1;" x1="173.2186" x2="173.2186" y1="133.2569" y2="125.2569"/><line style="stroke:#181818;stroke-width:1;" x1="173.2186" x2="179.2186" y1="193.5969" y2="201.5969"/><line style="stroke:#181818;stroke-width:1;" x1="173.2186" x2="167.2186" y1="193.5969" y2="201.5969"/><line style="stroke:#181818;stroke-width:1;" x1="173.2186" x2="173.2186" y1="193.5969" y2="201.5969"/><ellipse cx="173.2186" cy="187.5969" fill="none" rx="4" ry="4" style="stroke:#181818;stroke-width:1;"/><text fill="#000000" font-family="sans-serif" font-size="13" lengthAdjust="spacing" textLength="72.084" x="174.2186" y="167.9538">&#1087;&#1091;&#1073;&#1083;&#1080;&#1082;&#1091;&#1077;&#1090;</text></g><!--link Events to ReadModel--><g class="link" data-entity-1="ent0003" data-entity-2="ent0004" data-link-type="crowfoot" data-source-line="19" id="lnk6"><path codeLine="19" d="M173.2186,290.8469 C173.2186,314.2569 173.2186,317.7869 173.2186,341.1869" fill="none" id="Events-ReadModel" style="stroke:#181818;stroke-width:1;"/><line style="stroke:#181818;stroke-width:1;" x1="169.2186" x2="177.2186" y1="286.8469" y2="286.8469"/><line style="stroke:#181818;stroke-width:1;" x1="169.2186" x2="177.2186" y1="289.8469" y2="289.8469"/><line style="stroke:#181818;stroke-width:1;" x1="173.2186" x2="173.2186" y1="290.8469" y2="282.8469"/><line style="stroke:#181818;stroke-width:1;" x1="173.2186" x2="179.2186" y1="351.1869" y2="359.1869"/><line style="stroke:#181818;stroke-width:1;" x1="173.2186" x2="167.2186" y1="351.1869" y2="359.1869"/><line style="stroke:#181818;stroke-width:1;" x1="173.2186" x2="173.2186" y1="351.1869" y2="359.1869"/><ellipse cx="173.2186" cy="345.1869" fill="none" rx="4" ry="4" style="stroke:#181818;stroke-width:1;"/><text fill="#000000" font-family="sans-serif" font-size="13" lengthAdjust="spacing" textLength="71.7856" x="174.2186" y="325.5538">&#1086;&#1073;&#1085;&#1086;&#1074;&#1083;&#1103;&#1077;&#1090;</text></g><?plantuml-src RP0zQiD048NxFSNWtXT8dp9DcfH6e2qMX0NQHH3iG2mJN2JWFeH0RX07YmWRMLTuSwCyhPnOHPfXVhzvCy65p0hUiKEjAtIq6zHeqQ0M7712otIZAwtwD6sBKumQmHwV35jzrYTZx3ouS2yJlCQXIjVwAFXcIzVFevb8ukMkSC7UvAdDP6542kjjKIR1vVEPIvaeRU4Pc8SHy8F07PTmfsuZvRfaqKU2xTrXTd3_8xoHiAV-exw8RePJ_c2tDaalYhB4Xza8EiADj2-Nqsc--DLn9UXqpHSU-RO3lLehSwwTEozBsCnp-ZVYYuAsiVa7?></g></svg>