<?plantuml 1.2026.2?><svg xmlns="http://www.w3.org/2000/svg" xmlns:xlink="http://www.w3.org/1999/xlink" contentStyleType="text/css" data-diagram-type="CLASS" height="830px" preserveAspectRatio="none" style="width:930px;height:830px;background:#FFFFFF;" version="1.1" viewBox="0 0 930 830" width="930px" zoomAndPan="magnify"><title>&#1055;&#1086;&#1083;&#1085;&#1072;&#1103; ER-&#1076;&#1080;&#1072;&#1075;&#1088;&#1072;&#1084;&#1084;&#1072; &#1086;&#1089;&#1085;&#1086;&#1074;&#1085;&#1099;&#1093; &#1089;&#1091;&#1097;&#1085;&#1086;&#1089;&#1090;&#1077;&#1081; &#1057;&#1077;&#1088;&#1074;&#1080;&#1089;&#1072;</title><defs/><g><g class="title" data-source-line="1"><text fill="#000000" font-family="sans-serif" font-size="14" font-weight="bold" lengthAdjust="spacing" textLength="426.5762" x="245.0427" y="22.9951">&#1055;&#1086;&#1083;&#1085;&#1072;&#1103; ER-&#1076;&#1080;&#1072;&#1075;&#1088;&#1072;&#1084;&#1084;&#1072; &#1086;&#1089;&#1085;&#1086;&#1074;&#1085;&#1099;&#1093; &#1089;&#1091;&#1097;&#1085;&#1086;&#1089;&#1090;&#1077;&#1081; &#1057;&#1077;&#1088;&#1074;&#1080;&#1089;&#1072;</text></g><!--class Store--><g class="entity" data-qualified-name="Store" data-source-line="4" id="ent0002"><rect fill="#F1F1F1" height="113.1875" rx="2.5" ry="2.5" style="stroke:#181818;stroke-width:0.5;" width="130.5146" x="168.83" y="44.2969"/><ellipse cx="200.1315" cy="60.2969" fill="#ADD1B2" rx="11" ry="11" style="stroke:#181818;stroke-width:1;"/><path d="M204.2409,66.2969 L196.5221,66.2969 L196.5221,53.9063 L204.2409,53.9063 L204.2409,56.0625 L198.9753,56.0625 L198.9753,58.7344 L203.7409,58.7344 L203.7409,60.8906 L198.9753,60.8906 L198.9753,64.1406 L204.2409,64.1406 L204.2409,66.2969 Z " fill="#000000"/><text fill="#000000" font-family="sans-serif" font-size="14" lengthAdjust="spacing" textLength="62.2891" x="217.7541" y="65.1436">&#1052;&#1072;&#1075;&#1072;&#1079;&#1080;&#1085;</text><line style="stroke:#181818;stroke-width:0.5;" x1="169.83" x2="298.3446" y1="76.2969" y2="76.2969"/><g data-visibility-modifier="IE_MANDATORY"><ellipse cx="179.83" cy="89.9453" fill="#000000" rx="3" ry="3" style="stroke:#000000;stroke-width:1;"/></g><text fill="#000000" font-family="sans-serif" font-size="14" lengthAdjust="spacing" textLength="104.5146" x="188.83" y="93.292">store_id : UUID</text><line style="stroke:#181818;stroke-width:1;" x1="169.83" x2="298.3446" y1="100.5938" y2="100.5938"/><text fill="#000000" font-family="sans-serif" font-size="14" lengthAdjust="spacing" textLength="93.5088" x="174.83" y="117.5889">name : string</text><text fill="#000000" font-family="sans-serif" font-size="14" lengthAdjust="spacing" textLength="113.3809" x="174.83" y="133.8857">region_id : UUID</text><text fill="#000000" font-family="sans-serif" font-size="14" lengthAdjust="spacing" textLength="96.8242" x="174.83" y="150.1826">status : string</text></g><!--class Product--><g class="entity" data-qualified-name="Product" data-source-line="12" id="ent0003"><rect fill="#F1F1F1" height="113.1875" rx="2.5" ry="2.5" style="stroke:#181818;stroke-width:0.5;" width="142.6689" x="404.75" y="44.2969"/><ellipse cx="450.4175" cy="60.2969" fill="#ADD1B2" rx="11" ry="11" style="stroke:#181818;stroke-width:1;"/><path d="M454.5269,66.2969 L446.8081,66.2969 L446.8081,53.9063 L454.5269,53.9063 L454.5269,56.0625 L449.2612,56.0625 L449.2612,58.7344 L454.0269,58.7344 L454.0269,60.8906 L449.2612,60.8906 L449.2612,64.1406 L454.5269,64.1406 L454.5269,66.2969 Z " fill="#000000"/><text fill="#000000" font-family="sans-serif" font-size="14" lengthAdjust="spacing" textLength="42.834" x="470.9175" y="65.1436">&#1058;&#1086;&#1074;&#1072;&#1088;</text><line style="stroke:#181818;stroke-width:0.5;" x1="405.75" x2="546.4189" y1="76.2969" y2="76.2969"/><g data-visibility-modifier="IE_MANDATORY"><ellipse cx="415.75" cy="89.9453" fill="#000000" rx="3" ry="3" style="stroke:#000000;stroke-width:1;"/></g><text fill="#000000" font-family="sans-serif" font-size="14" lengthAdjust="spacing" textLength="93.0713" x="424.75" y="93.292">sku_id : UUID</text><line style="stroke:#181818;stroke-width:1;" x1="405.75" x2="546.4189" y1="100.5938" y2="100.5938"/><text fill="#000000" font-family="sans-serif" font-size="14" lengthAdjust="spacing" textLength="93.5088" x="410.75" y="117.5889">name : string</text><text fill="#000000" font-family="sans-serif" font-size="14" lengthAdjust="spacing" textLength="130.6689" x="410.75" y="133.8857">category_id : UUID</text><text fill="#000000" font-family="sans-serif" font-size="14" lengthAdjust="spacing" textLength="96.8242" x="410.75" y="150.1826">status : string</text></g><!--class Stock--><g class="entity" data-qualified-name="Stock" data-source-line="20" id="ent0004"><rect fill="#F1F1F1" height="162.0781" rx="2.5" ry="2.5" style="stroke:#181818;stroke-width:0.5;" width="168.5908" x="462.79" y="217.4869"/><ellipse cx="512.5214" cy="233.4869" fill="#ADD1B2" rx="11" ry="11" style="stroke:#181818;stroke-width:1;"/><path d="M516.6308,239.4869 L508.9121,239.4869 L508.9121,227.0962 L516.6308,227.0962 L516.6308,229.2525 L511.3652,229.2525 L511.3652,231.9244 L516.1308,231.9244 L516.1308,234.0806 L511.3652,234.0806 L511.3652,237.3306 L516.6308,237.3306 L516.6308,239.4869 Z " fill="#000000"/><text fill="#000000" font-family="sans-serif" font-size="14" lengthAdjust="spacing" textLength="60.6279" x="533.0214" y="238.3336">&#1054;&#1089;&#1090;&#1072;&#1090;&#1086;&#1082;</text><line style="stroke:#181818;stroke-width:0.5;" x1="463.79" x2="630.3808" y1="249.4869" y2="249.4869"/><g data-visibility-modifier="IE_MANDATORY"><ellipse cx="473.79" cy="263.1353" fill="#000000" rx="3" ry="3" style="stroke:#000000;stroke-width:1;"/></g><text fill="#000000" font-family="sans-serif" font-size="14" lengthAdjust="spacing" textLength="105.9502" x="482.79" y="266.482">stock_id : UUID</text><line style="stroke:#181818;stroke-width:1;" x1="463.79" x2="630.3808" y1="273.7837" y2="273.7837"/><text fill="#000000" font-family="sans-serif" font-size="14" lengthAdjust="spacing" textLength="93.0713" x="468.79" y="290.7789">sku_id : UUID</text><text fill="#000000" font-family="sans-serif" font-size="14" lengthAdjust="spacing" textLength="104.5146" x="468.79" y="307.0757">store_id : UUID</text><text fill="#000000" font-family="sans-serif" font-size="14" lengthAdjust="spacing" textLength="156.5908" x="468.79" y="323.3726">available_qty : integer</text><text fill="#000000" font-family="sans-serif" font-size="14" lengthAdjust="spacing" textLength="155.2168" x="468.79" y="339.6695">reserved_qty : integer</text><text fill="#000000" font-family="sans-serif" font-size="14" lengthAdjust="spacing" textLength="115.0146" x="468.79" y="355.9664">version : integer</text><text fill="#000000" font-family="sans-serif" font-size="14" lengthAdjust="spacing" textLength="156.0986" x="468.79" y="372.2632">updated_at : datetime</text></g><!--class Reservation--><g class="entity" data-qualified-name="Reservation" data-source-line="31" id="ent0005"><rect fill="#F1F1F1" height="178.375" rx="2.5" ry="2.5" style="stroke:#181818;stroke-width:0.5;" width="174.5107" x="470.83" y="439.5569"/><ellipse cx="528.7099" cy="455.5569" fill="#ADD1B2" rx="11" ry="11" style="stroke:#181818;stroke-width:1;"/><path d="M532.8193,461.5569 L525.1005,461.5569 L525.1005,449.1662 L532.8193,449.1662 L532.8193,451.3225 L527.5536,451.3225 L527.5536,453.9944 L532.3193,453.9944 L532.3193,456.1506 L527.5536,456.1506 L527.5536,459.4006 L532.8193,459.4006 L532.8193,461.5569 Z " fill="#000000"/><text fill="#000000" font-family="sans-serif" font-size="14" lengthAdjust="spacing" textLength="50.251" x="549.2099" y="460.4036">&#1056;&#1077;&#1079;&#1077;&#1088;&#1074;</text><line style="stroke:#181818;stroke-width:0.5;" x1="471.83" x2="644.3407" y1="471.5569" y2="471.5569"/><g data-visibility-modifier="IE_MANDATORY"><ellipse cx="481.83" cy="485.2053" fill="#000000" rx="3" ry="3" style="stroke:#000000;stroke-width:1;"/></g><text fill="#000000" font-family="sans-serif" font-size="14" lengthAdjust="spacing" textLength="148.5107" x="490.83" y="488.552">reservation_id : UUID</text><line style="stroke:#181818;stroke-width:1;" x1="471.83" x2="644.3407" y1="495.8537" y2="495.8537"/><text fill="#000000" font-family="sans-serif" font-size="14" lengthAdjust="spacing" textLength="105.9502" x="476.83" y="512.8489">stock_id : UUID</text><text fill="#000000" font-family="sans-serif" font-size="14" lengthAdjust="spacing" textLength="93.0713" x="476.83" y="529.1457">sku_id : UUID</text><text fill="#000000" font-family="sans-serif" font-size="14" lengthAdjust="spacing" textLength="104.5146" x="476.83" y="545.4426">store_id : UUID</text><text fill="#000000" font-family="sans-serif" font-size="14" lengthAdjust="spacing" textLength="155.2168" x="476.83" y="561.7395">reserved_qty : integer</text><text fill="#000000" font-family="sans-serif" font-size="14" lengthAdjust="spacing" textLength="96.8242" x="476.83" y="578.0364">status : string</text><text fill="#000000" font-family="sans-serif" font-size="14" lengthAdjust="spacing" textLength="149.2217" x="476.83" y="594.3332">expires_at : datetime</text><text fill="#000000" font-family="sans-serif" font-size="14" lengthAdjust="spacing" textLength="151.5186" x="476.83" y="610.6301">created_at : datetime</text></g><!--class ReservationOperation--><g class="entity" data-qualified-name="ReservationOperation" data-source-line="43" id="ent0006"><rect fill="#F1F1F1" height="145.7813" rx="2.5" ry="2.5" style="stroke:#181818;stroke-width:0.5;" width="230.502" x="442.84" y="677.9369"/><ellipse cx="457.84" cy="693.9369" fill="#ADD1B2" rx="11" ry="11" style="stroke:#181818;stroke-width:1;"/><path d="M461.9494,699.9369 L454.2306,699.9369 L454.2306,687.5463 L461.9494,687.5463 L461.9494,689.7025 L456.6838,689.7025 L456.6838,692.3744 L461.4494,692.3744 L461.4494,694.5306 L456.6838,694.5306 L456.6838,697.7806 L461.9494,697.7806 L461.9494,699.9369 Z " fill="#000000"/><text fill="#000000" font-family="sans-serif" font-size="14" lengthAdjust="spacing" textLength="198.502" x="471.84" y="698.7836">&#1054;&#1087;&#1077;&#1088;&#1072;&#1094;&#1080;&#1103; &#1088;&#1077;&#1079;&#1077;&#1088;&#1074;&#1080;&#1088;&#1086;&#1074;&#1072;&#1085;&#1080;&#1103;</text><line style="stroke:#181818;stroke-width:0.5;" x1="443.84" x2="672.342" y1="709.9369" y2="709.9369"/><g data-visibility-modifier="IE_MANDATORY"><ellipse cx="453.84" cy="723.5853" fill="#000000" rx="3" ry="3" style="stroke:#000000;stroke-width:1;"/></g><text fill="#000000" font-family="sans-serif" font-size="14" lengthAdjust="spacing" textLength="136.0146" x="462.84" y="726.932">operation_id : UUID</text><line style="stroke:#181818;stroke-width:1;" x1="443.84" x2="672.342" y1="734.2338" y2="734.2338"/><text fill="#000000" font-family="sans-serif" font-size="14" lengthAdjust="spacing" textLength="148.5107" x="448.84" y="751.2289">reservation_id : UUID</text><text fill="#000000" font-family="sans-serif" font-size="14" lengthAdjust="spacing" textLength="159.2979" x="448.84" y="767.5257">operation_type : string</text><text fill="#000000" font-family="sans-serif" font-size="14" lengthAdjust="spacing" textLength="171.042" x="448.84" y="783.8226">operation_status : string</text><text fill="#000000" font-family="sans-serif" font-size="14" lengthAdjust="spacing" textLength="177.249" x="448.84" y="800.1195">idempotency_key : string</text><text fill="#000000" font-family="sans-serif" font-size="14" lengthAdjust="spacing" textLength="151.5186" x="448.84" y="816.4164">created_at : datetime</text></g><!--class StockEvent--><g class="entity" data-qualified-name="StockEvent" data-source-line="53" id="ent0007"><rect fill="#F1F1F1" height="162.0781" rx="2.5" ry="2.5" style="stroke:#181818;stroke-width:0.5;" width="243.1416" x="680.52" y="447.7069"/><ellipse cx="695.52" cy="463.7069" fill="#ADD1B2" rx="11" ry="11" style="stroke:#181818;stroke-width:1;"/><path d="M699.6294,469.7069 L691.9106,469.7069 L691.9106,457.3162 L699.6294,457.3162 L699.6294,459.4725 L694.3638,459.4725 L694.3638,462.1444 L699.1294,462.1444 L699.1294,464.3006 L694.3638,464.3006 L694.3638,467.5506 L699.6294,467.5506 L699.6294,469.7069 Z " fill="#000000"/><text fill="#000000" font-family="sans-serif" font-size="14" lengthAdjust="spacing" textLength="211.1416" x="709.52" y="468.5536">&#1057;&#1086;&#1073;&#1099;&#1090;&#1080;&#1077; &#1080;&#1079;&#1084;&#1077;&#1085;&#1077;&#1085;&#1080;&#1103; &#1086;&#1089;&#1090;&#1072;&#1090;&#1082;&#1072;</text><line style="stroke:#181818;stroke-width:0.5;" x1="681.52" x2="922.6616" y1="479.7069" y2="479.7069"/><g data-visibility-modifier="IE_MANDATORY"><ellipse cx="691.52" cy="493.3553" fill="#000000" rx="3" ry="3" style="stroke:#000000;stroke-width:1;"/></g><text fill="#000000" font-family="sans-serif" font-size="14" lengthAdjust="spacing" textLength="108.6709" x="700.52" y="496.702">event_id : UUID</text><line style="stroke:#181818;stroke-width:1;" x1="681.52" x2="922.6616" y1="504.0037" y2="504.0037"/><text fill="#000000" font-family="sans-serif" font-size="14" lengthAdjust="spacing" textLength="105.9502" x="686.52" y="520.9989">stock_id : UUID</text><text fill="#000000" font-family="sans-serif" font-size="14" lengthAdjust="spacing" textLength="93.0713" x="686.52" y="537.2957">sku_id : UUID</text><text fill="#000000" font-family="sans-serif" font-size="14" lengthAdjust="spacing" textLength="104.5146" x="686.52" y="553.5926">store_id : UUID</text><text fill="#000000" font-family="sans-serif" font-size="14" lengthAdjust="spacing" textLength="131.9541" x="686.52" y="569.8895">event_type : string</text><text fill="#000000" font-family="sans-serif" font-size="14" lengthAdjust="spacing" textLength="161.8887" x="686.52" y="586.1864">event_version : integer</text><text fill="#000000" font-family="sans-serif" font-size="14" lengthAdjust="spacing" textLength="159.7285" x="686.52" y="602.4832">occurred_at : datetime</text></g><!--class ReconciliationConflict--><g class="entity" data-qualified-name="ReconciliationConflict" data-source-line="64" id="ent0008"><rect fill="#F1F1F1" height="162.0781" rx="2.5" ry="2.5" style="stroke:#181818;stroke-width:0.5;" width="172.1729" x="7" y="217.4869"/><ellipse cx="26.6951" cy="233.4869" fill="#ADD1B2" rx="11" ry="11" style="stroke:#181818;stroke-width:1;"/><path d="M30.8045,239.4869 L23.0857,239.4869 L23.0857,227.0962 L30.8045,227.0962 L30.8045,229.2525 L25.5389,229.2525 L25.5389,231.9244 L30.3045,231.9244 L30.3045,234.0806 L25.5389,234.0806 L25.5389,237.3306 L30.8045,237.3306 L30.8045,239.4869 Z " fill="#000000"/><text fill="#000000" font-family="sans-serif" font-size="14" lengthAdjust="spacing" textLength="129.7393" x="41.7385" y="238.3336">&#1050;&#1086;&#1085;&#1092;&#1083;&#1080;&#1082;&#1090; &#1089;&#1074;&#1077;&#1088;&#1082;&#1080;</text><line style="stroke:#181818;stroke-width:0.5;" x1="8" x2="178.1729" y1="249.4869" y2="249.4869"/><g data-visibility-modifier="IE_MANDATORY"><ellipse cx="18" cy="263.1353" fill="#000000" rx="3" ry="3" style="stroke:#000000;stroke-width:1;"/></g><text fill="#000000" font-family="sans-serif" font-size="14" lengthAdjust="spacing" textLength="119.8271" x="27" y="266.482">conflict_id : UUID</text><line style="stroke:#181818;stroke-width:1;" x1="8" x2="178.1729" y1="273.7837" y2="273.7837"/><text fill="#000000" font-family="sans-serif" font-size="14" lengthAdjust="spacing" textLength="93.0713" x="13" y="290.7789">sku_id : UUID</text><text fill="#000000" font-family="sans-serif" font-size="14" lengthAdjust="spacing" textLength="104.5146" x="13" y="307.0757">store_id : UUID</text><text fill="#000000" font-family="sans-serif" font-size="14" lengthAdjust="spacing" textLength="158.4844" x="13" y="323.3726">expected_qty : integer</text><text fill="#000000" font-family="sans-serif" font-size="14" lengthAdjust="spacing" textLength="136.5068" x="13" y="339.6695">actual_qty : integer</text><text fill="#000000" font-family="sans-serif" font-size="14" lengthAdjust="spacing" textLength="154.8545" x="13" y="355.9664">conflict_status : string</text><text fill="#000000" font-family="sans-serif" font-size="14" lengthAdjust="spacing" textLength="160.1729" x="13" y="372.2632">detected_at : datetime</text></g><!--class ReadModelSnapshot--><g class="entity" data-qualified-name="ReadModelSnapshot" data-source-line="75" id="ent0009"><rect fill="#F1F1F1" height="113.1875" rx="2.5" ry="2.5" style="stroke:#181818;stroke-width:0.5;" width="213.5283" x="214.32" y="241.9269"/><ellipse cx="229.32" cy="257.9269" fill="#ADD1B2" rx="11" ry="11" style="stroke:#181818;stroke-width:1;"/><path d="M233.4294,263.9269 L225.7106,263.9269 L225.7106,251.5363 L233.4294,251.5363 L233.4294,253.6925 L228.1638,253.6925 L228.1638,256.3644 L232.9294,256.3644 L232.9294,258.5206 L228.1638,258.5206 L228.1638,261.7706 L233.4294,261.7706 L233.4294,263.9269 Z " fill="#000000"/><text fill="#000000" font-family="sans-serif" font-size="14" lengthAdjust="spacing" textLength="181.5283" x="243.32" y="262.7736">Snapshot &#1084;&#1086;&#1076;&#1077;&#1083;&#1080; &#1095;&#1090;&#1077;&#1085;&#1080;&#1103;</text><line style="stroke:#181818;stroke-width:0.5;" x1="215.32" x2="426.8483" y1="273.9269" y2="273.9269"/><g data-visibility-modifier="IE_MANDATORY"><ellipse cx="225.32" cy="287.5753" fill="#000000" rx="3" ry="3" style="stroke:#000000;stroke-width:1;"/></g><text fill="#000000" font-family="sans-serif" font-size="14" lengthAdjust="spacing" textLength="132.6514" x="234.32" y="290.922">snapshot_id : UUID</text><line style="stroke:#181818;stroke-width:1;" x1="215.32" x2="426.8483" y1="298.2238" y2="298.2238"/><text fill="#000000" font-family="sans-serif" font-size="14" lengthAdjust="spacing" textLength="179.2998" x="220.32" y="315.2189">snapshot_time : datetime</text><text fill="#000000" font-family="sans-serif" font-size="14" lengthAdjust="spacing" textLength="115.0146" x="220.32" y="331.5157">version : integer</text><text fill="#000000" font-family="sans-serif" font-size="14" lengthAdjust="spacing" textLength="96.8242" x="220.32" y="347.8126">status : string</text></g><!--class SnapshotStock--><g class="entity" data-qualified-name="SnapshotStock" data-source-line="83" id="ent0010"><rect fill="#F1F1F1" height="178.375" rx="2.5" ry="2.5" style="stroke:#181818;stroke-width:0.5;" width="253.6895" x="182.24" y="439.5569"/><ellipse cx="197.24" cy="455.5569" fill="#ADD1B2" rx="11" ry="11" style="stroke:#181818;stroke-width:1;"/><path d="M201.3494,461.5569 L193.6306,461.5569 L193.6306,449.1662 L201.3494,449.1662 L201.3494,451.3225 L196.0838,451.3225 L196.0838,453.9944 L200.8494,453.9944 L200.8494,456.1506 L196.0838,456.1506 L196.0838,459.4006 L201.3494,459.4006 L201.3494,461.5569 Z " fill="#000000"/><text fill="#000000" font-family="sans-serif" font-size="14" lengthAdjust="spacing" textLength="221.6895" x="211.24" y="460.4036">&#1057;&#1086;&#1089;&#1090;&#1086;&#1103;&#1085;&#1080;&#1077; &#1086;&#1089;&#1090;&#1072;&#1090;&#1082;&#1072; &#1074; snapshot</text><line style="stroke:#181818;stroke-width:0.5;" x1="183.24" x2="434.9295" y1="471.5569" y2="471.5569"/><g data-visibility-modifier="IE_MANDATORY"><ellipse cx="193.24" cy="485.2053" fill="#000000" rx="3" ry="3" style="stroke:#000000;stroke-width:1;"/></g><text fill="#000000" font-family="sans-serif" font-size="14" lengthAdjust="spacing" textLength="176.8047" x="202.24" y="488.552">snapshot_stock_id : UUID</text><line style="stroke:#181818;stroke-width:1;" x1="183.24" x2="434.9295" y1="495.8537" y2="495.8537"/><text fill="#000000" font-family="sans-serif" font-size="14" lengthAdjust="spacing" textLength="132.6514" x="188.24" y="512.8489">snapshot_id : UUID</text><text fill="#000000" font-family="sans-serif" font-size="14" lengthAdjust="spacing" textLength="105.9502" x="188.24" y="529.1457">stock_id : UUID</text><text fill="#000000" font-family="sans-serif" font-size="14" lengthAdjust="spacing" textLength="93.0713" x="188.24" y="545.4426">sku_id : UUID</text><text fill="#000000" font-family="sans-serif" font-size="14" lengthAdjust="spacing" textLength="104.5146" x="188.24" y="561.7395">store_id : UUID</text><text fill="#000000" font-family="sans-serif" font-size="14" lengthAdjust="spacing" textLength="156.5908" x="188.24" y="578.0364">available_qty : integer</text><text fill="#000000" font-family="sans-serif" font-size="14" lengthAdjust="spacing" textLength="155.2168" x="188.24" y="594.3332">reserved_qty : integer</text><text fill="#000000" font-family="sans-serif" font-size="14" lengthAdjust="spacing" textLength="115.0146" x="188.24" y="610.6301">version : integer</text></g><!--link Store to Stock--><g class="link" data-entity-1="ent0002" data-entity-2="ent0004" data-link-type="crowfoot" data-source-line="95" id="lnk11"><path codeLine="95" d="M256.83,165.6069 C256.83,201.7069 256.83,233.7169 256.83,233.7169 C256.83,233.7169 358.68,233.7169 444.35,233.7169" fill="none" id="Store-Stock" style="stroke:#181818;stroke-width:1;"/><line style="stroke:#181818;stroke-width:1;" x1="252.83" x2="260.83" y1="161.6069" y2="161.6069"/><line style="stroke:#181818;stroke-width:1;" x1="252.83" x2="260.83" y1="164.6069" y2="164.6069"/><line style="stroke:#181818;stroke-width:1;" x1="256.83" x2="256.83" y1="165.6069" y2="157.6069"/><line style="stroke:#181818;stroke-width:1;" x1="454.35" x2="462.35" y1="233.7169" y2="227.7169"/><line style="stroke:#181818;stroke-width:1;" x1="454.35" x2="462.35" y1="233.7169" y2="239.7169"/><line style="stroke:#181818;stroke-width:1;" x1="454.35" x2="462.35" y1="233.7169" y2="233.7169"/><ellipse cx="448.35" cy="233.7169" fill="none" rx="4" ry="4" style="stroke:#181818;stroke-width:1;"/><text fill="#000000" font-family="sans-serif" font-size="13" lengthAdjust="spacing" textLength="68.0723" x="187.4624" y="177.5082">&#1089;&#1086;&#1076;&#1077;&#1088;&#1078;&#1080;&#1090;</text></g><!--link Product to Stock--><g class="link" data-entity-1="ent0003" data-entity-2="ent0004" data-link-type="crowfoot" data-source-line="96" id="lnk12"><path codeLine="96" d="M505.11,165.7869 C505.11,184.2569 505.11,179.1369 505.11,199.0369" fill="none" id="Product-Stock" style="stroke:#181818;stroke-width:1;"/><line style="stroke:#181818;stroke-width:1;" x1="501.11" x2="509.11" y1="161.7869" y2="161.7869"/><line style="stroke:#181818;stroke-width:1;" x1="501.11" x2="509.11" y1="164.7869" y2="164.7869"/><line style="stroke:#181818;stroke-width:1;" x1="505.11" x2="505.11" y1="165.7869" y2="157.7869"/><line style="stroke:#181818;stroke-width:1;" x1="505.11" x2="511.11" y1="209.0369" y2="217.0369"/><line style="stroke:#181818;stroke-width:1;" x1="505.11" x2="499.11" y1="209.0369" y2="217.0369"/><line style="stroke:#181818;stroke-width:1;" x1="505.11" x2="505.11" y1="209.0369" y2="217.0369"/><ellipse cx="505.11" cy="203.0369" fill="none" rx="4" ry="4" style="stroke:#181818;stroke-width:1;"/><text fill="#000000" font-family="sans-serif" font-size="13" lengthAdjust="spacing" textLength="103.0542" x="401.11" y="183.4838">&#1087;&#1088;&#1077;&#1076;&#1089;&#1090;&#1072;&#1074;&#1083;&#1077;&#1085;_&#1074;</text></g><!--link Stock to Reservation--><g class="link" data-entity-1="ent0004" data-entity-2="ent0005" data-link-type="crowfoot" data-source-line="97" id="lnk13"><path codeLine="97" d="M551.11,388.0169 C551.11,407.1569 551.11,401.6669 551.11,421.1369" fill="none" id="Stock-Reservation" style="stroke:#181818;stroke-width:1;"/><line style="stroke:#181818;stroke-width:1;" x1="547.11" x2="555.11" y1="384.0169" y2="384.0169"/><line style="stroke:#181818;stroke-width:1;" x1="547.11" x2="555.11" y1="387.0169" y2="387.0169"/><line style="stroke:#181818;stroke-width:1;" x1="551.11" x2="551.11" y1="388.0169" y2="380.0169"/><line style="stroke:#181818;stroke-width:1;" x1="551.11" x2="557.11" y1="431.1369" y2="439.1369"/><line style="stroke:#181818;stroke-width:1;" x1="551.11" x2="545.11" y1="431.1369" y2="439.1369"/><line style="stroke:#181818;stroke-width:1;" x1="551.11" x2="551.11" y1="431.1369" y2="439.1369"/><ellipse cx="551.11" cy="425.1369" fill="none" rx="4" ry="4" style="stroke:#181818;stroke-width:1;"/><text fill="#000000" font-family="sans-serif" font-size="13" lengthAdjust="spacing" textLength="59.6553" x="491.11" y="405.6438">&#1089;&#1074;&#1103;&#1079;&#1072;&#1085;_&#1089;</text></g><!--link Reservation to ReservationOperation--><g class="link" data-entity-1="ent0005" data-entity-2="ent0006" data-link-type="crowfoot" data-source-line="98" id="lnk14"><path codeLine="98" d="M558.09,626.1169 C558.09,645.8869 558.09,640.5969 558.09,659.6369" fill="none" id="Reservation-ReservationOperation" style="stroke:#181818;stroke-width:1;"/><line style="stroke:#181818;stroke-width:1;" x1="554.09" x2="562.09" y1="622.1169" y2="622.1169"/><line style="stroke:#181818;stroke-width:1;" x1="554.09" x2="562.09" y1="625.1169" y2="625.1169"/><line style="stroke:#181818;stroke-width:1;" x1="558.09" x2="558.09" y1="626.1169" y2="618.1169"/><line style="stroke:#181818;stroke-width:1;" x1="558.09" x2="564.09" y1="669.6369" y2="677.6369"/><line style="stroke:#181818;stroke-width:1;" x1="558.09" x2="552.09" y1="669.6369" y2="677.6369"/><line style="stroke:#181818;stroke-width:1;" x1="558.09" x2="558.09" y1="669.6369" y2="677.6369"/><ellipse cx="558.09" cy="663.6369" fill="none" rx="4" ry="4" style="stroke:#181818;stroke-width:1;"/><text fill="#000000" font-family="sans-serif" font-size="13" lengthAdjust="spacing" textLength="68.0723" x="489.09" y="643.9438">&#1089;&#1086;&#1076;&#1077;&#1088;&#1078;&#1080;&#1090;</text></g><!--link Stock to StockEvent--><g class="link" data-entity-1="ent0004" data-entity-2="ent0007" data-link-type="crowfoot" data-source-line="99" id="lnk15"><path codeLine="99" d="M639.64,298.7169 C713.87,298.7169 802.09,298.7169 802.09,298.7169 C802.09,298.7169 802.09,363.1469 802.09,429.3269" fill="none" id="Stock-StockEvent" style="stroke:#181818;stroke-width:1;"/><line style="stroke:#181818;stroke-width:1;" x1="635.64" x2="635.64" y1="302.7169" y2="294.7169"/><line style="stroke:#181818;stroke-width:1;" x1="638.64" x2="638.64" y1="302.7169" y2="294.7169"/><line style="stroke:#181818;stroke-width:1;" x1="639.64" x2="631.64" y1="298.7169" y2="298.7169"/><line style="stroke:#181818;stroke-width:1;" x1="802.09" x2="808.09" y1="439.3269" y2="447.3269"/><line style="stroke:#181818;stroke-width:1;" x1="802.09" x2="796.09" y1="439.3269" y2="447.3269"/><line style="stroke:#181818;stroke-width:1;" x1="802.09" x2="802.09" y1="439.3269" y2="447.3269"/><ellipse cx="802.09" cy="433.3269" fill="none" rx="4" ry="4" style="stroke:#181818;stroke-width:1;"/><text fill="#000000" font-family="sans-serif" font-size="13" lengthAdjust="spacing" textLength="76.8955" x="714.17" y="294.7838">&#1087;&#1086;&#1088;&#1086;&#1078;&#1076;&#1072;&#1077;&#1090;</text></g><!--link Product to ReconciliationConflict--><g class="link" data-entity-1="ent0003" data-entity-2="ent0008" data-link-type="crowfoot" data-source-line="100" id="lnk16"><path codeLine="100" d="M416.3,165.8269 C416.3,198.7469 416.3,225.7169 416.3,225.7169 C416.3,225.7169 293.03,225.7169 197.28,225.7169" fill="none" id="Product-ReconciliationConflict" style="stroke:#181818;stroke-width:1;"/><line style="stroke:#181818;stroke-width:1;" x1="412.3" x2="420.3" y1="161.8269" y2="161.8269"/><line style="stroke:#181818;stroke-width:1;" x1="412.3" x2="420.3" y1="164.8269" y2="164.8269"/><line style="stroke:#181818;stroke-width:1;" x1="416.3" x2="416.3" y1="165.8269" y2="157.8269"/><line style="stroke:#181818;stroke-width:1;" x1="187.28" x2="179.28" y1="225.7169" y2="231.7169"/><line style="stroke:#181818;stroke-width:1;" x1="187.28" x2="179.28" y1="225.7169" y2="219.7169"/><line style="stroke:#181818;stroke-width:1;" x1="187.28" x2="179.28" y1="225.7169" y2="225.7169"/><ellipse cx="193.28" cy="225.7169" fill="none" rx="4" ry="4" style="stroke:#181818;stroke-width:1;"/><text fill="#000000" font-family="sans-serif" font-size="13" lengthAdjust="spacing" textLength="83.1479" x="247.74" y="221.7838">&#1091;&#1095;&#1072;&#1089;&#1090;&#1074;&#1091;&#1077;&#1090;_&#1074;</text></g><!--link Store to ReconciliationConflict--><g class="link" data-entity-1="ent0002" data-entity-2="ent0008" data-link-type="crowfoot" data-source-line="101" id="lnk17"><path codeLine="101" d="M174,165.7869 C174,184.2569 174,179.1369 174,199.0369" fill="none" id="Store-ReconciliationConflict" style="stroke:#181818;stroke-width:1;"/><line style="stroke:#181818;stroke-width:1;" x1="170" x2="178" y1="161.7869" y2="161.7869"/><line style="stroke:#181818;stroke-width:1;" x1="170" x2="178" y1="164.7869" y2="164.7869"/><line style="stroke:#181818;stroke-width:1;" x1="174" x2="174" y1="165.7869" y2="157.7869"/><line style="stroke:#181818;stroke-width:1;" x1="174" x2="180" y1="209.0369" y2="217.0369"/><line style="stroke:#181818;stroke-width:1;" x1="174" x2="168" y1="209.0369" y2="217.0369"/><line style="stroke:#181818;stroke-width:1;" x1="174" x2="174" y1="209.0369" y2="217.0369"/><ellipse cx="174" cy="203.0369" fill="none" rx="4" ry="4" style="stroke:#181818;stroke-width:1;"/><text fill="#000000" font-family="sans-serif" font-size="13" lengthAdjust="spacing" textLength="83.1479" x="90" y="183.4838">&#1091;&#1095;&#1072;&#1089;&#1090;&#1074;&#1091;&#1077;&#1090;_&#1074;</text></g><!--link ReadModelSnapshot to SnapshotStock--><g class="link" data-entity-1="ent0009" data-entity-2="ent0010" data-link-type="crowfoot" data-source-line="102" id="lnk18"><path codeLine="102" d="M321.09,363.4269 C321.09,388.7269 321.09,393.1169 321.09,421.3369" fill="none" id="ReadModelSnapshot-SnapshotStock" style="stroke:#181818;stroke-width:1;"/><line style="stroke:#181818;stroke-width:1;" x1="317.09" x2="325.09" y1="359.4269" y2="359.4269"/><line style="stroke:#181818;stroke-width:1;" x1="317.09" x2="325.09" y1="362.4269" y2="362.4269"/><line style="stroke:#181818;stroke-width:1;" x1="321.09" x2="321.09" y1="363.4269" y2="355.4269"/><line style="stroke:#181818;stroke-width:1;" x1="321.09" x2="327.09" y1="431.3369" y2="439.3369"/><line style="stroke:#181818;stroke-width:1;" x1="321.09" x2="315.09" y1="431.3369" y2="439.3369"/><line style="stroke:#181818;stroke-width:1;" x1="321.09" x2="321.09" y1="431.3369" y2="439.3369"/><ellipse cx="321.09" cy="425.3369" fill="none" rx="4" ry="4" style="stroke:#181818;stroke-width:1;"/><text fill="#000000" font-family="sans-serif" font-size="13" lengthAdjust="spacing" textLength="68.0723" x="252.09" y="393.4538">&#1089;&#1086;&#1076;&#1077;&#1088;&#1078;&#1080;&#1090;</text></g><!--link Stock to SnapshotStock--><g class="link" data-entity-1="ent0004" data-entity-2="ent0010" data-link-type="crowfoot" data-source-line="103" id="lnk19"><path codeLine="103" d="M454.46,367.7169 C437.04,367.7169 431.89,367.7169 431.89,367.7169 C431.89,367.7169 431.89,384.2169 431.89,421.2869" fill="none" id="Stock-SnapshotStock" style="stroke:#181818;stroke-width:1;"/><line style="stroke:#181818;stroke-width:1;" x1="458.46" x2="458.46" y1="363.7169" y2="371.7169"/><line style="stroke:#181818;stroke-width:1;" x1="455.46" x2="455.46" y1="363.7169" y2="371.7169"/><line style="stroke:#181818;stroke-width:1;" x1="454.46" x2="462.46" y1="367.7169" y2="367.7169"/><line style="stroke:#181818;stroke-width:1;" x1="431.89" x2="437.89" y1="431.2869" y2="439.2869"/><line style="stroke:#181818;stroke-width:1;" x1="431.89" x2="425.89" y1="431.2869" y2="439.2869"/><line style="stroke:#181818;stroke-width:1;" x1="431.89" x2="431.89" y1="431.2869" y2="439.2869"/><ellipse cx="431.89" cy="425.2869" fill="none" rx="4" ry="4" style="stroke:#181818;stroke-width:1;"/><text fill="#000000" font-family="sans-serif" font-size="13" lengthAdjust="spacing" textLength="103.6572" x="327.89" y="384.2838">&#1092;&#1080;&#1082;&#1089;&#1080;&#1088;&#1091;&#1077;&#1090;&#1089;&#1103;_&#1074;</text></g><?plantuml-src hLNDRjD04BxxAKOv8kK5SeKUE21GKS_HOY_jAexNh3SHKOlKf8KASSWTeK9v0XEQ9gGaVONTDs9sRST_IOEgAegrEvxTcM_ccy-IIP-2-gvMwbOjLQp7iBVVLDTghcBrMv_Yyo_-Ob0hFKI7bPgefVwYFu8UwZFzsPXmDL9JzGVKbPhYaOcQesyCJjHXGKW4wOBF0Ye78GKkv15t71f89WVGKDzC6FpFCE2o0II2rv8B2iSEm1E8pBhDF6Z1mS7pPsXhDl4Ha2v5KoG52mvnB-WXuq79Bv94zgBSwKCXva-B8jQdDjuhmRsUAxE8dTxkU2wHz92BmNz7lBGbYl6_KeiCfTl9KRgTUjHgAlLYa3vXFddZq_Ox3DC25c1ULDYAH5JqgLTxqQSYmbgLRBtGGq1UcqWqcwLaNLhA_mUsTvRqrcQ_RwydqjoKO12vPGEI6i3TsBOYgDOPWBuF6RfNyiSs2Re3rwMwiwXY_GavEmPShe6YuJGX2d8SNrQ1lmofA5Q0P_iw_ct5oO_OsIX0oj_KuJAFTaCkQU0EsXqwA15p9-8hXFGBvtU4ypO5VCnmkgU8S9gWX7IS3LSNAiwvkjV7ErAerAmVfyt9LLNuYNKJLxdhzeIu5-9NXBZKvwXdSxNG8nGgRA9fwKBDqoQwF72Ppso5d_BWhS_M0k2csuVC8nAHkd83PuahUyIlcTUnwatsg4oksehpTK32w8XBm0QkKB2d1Z3e2wl5HSOIxmNtgB_sJqKdtMx0cRqn4SiJjQaZz-dULSgcbHwRb0pZIlG2DLc7IwYMRahocEMpJISt8Na85nz5JX5-yWLh8EziNv1vDzYEKGDEJffDVfnglvDzU4hM5gWxgqBNIPsGkhUcdsqrSHAFrBqemItBSQpnp8XLMm-TujlwWLowxCbIbkKeXT4tcM7tZ2RUu84OZuog6BPC5aOvqnVOT0Dfei_CqHGG5kfXP-kypb8kKMWdmAhtkLMDeL7_91W67fk0_m00?></g></svg>