<?plantuml 1.2026.2?><svg xmlns="http://www.w3.org/2000/svg" xmlns:xlink="http://www.w3.org/1999/xlink" contentStyleType="text/css" data-diagram-type="SEQUENCE" height="879px" preserveAspectRatio="none" style="width:1459px;height:879px;background:#FFFFFF;" version="1.1" viewBox="0 0 1459 879" width="1459px" zoomAndPan="magnify"><title>&#1054;&#1073;&#1085;&#1086;&#1074;&#1083;&#1077;&#1085;&#1080;&#1077; &#1086;&#1089;&#1090;&#1072;&#1090;&#1082;&#1072;</title><defs/><g><text fill="#000000" font-family="sans-serif" font-size="14" font-weight="bold" lengthAdjust="spacing" textLength="165.9697" x="647.6682" y="27.9951">&#1054;&#1073;&#1085;&#1086;&#1074;&#1083;&#1077;&#1085;&#1080;&#1077; &#1086;&#1089;&#1090;&#1072;&#1090;&#1082;&#1072;</text><g><title>....... ....... .......</title><rect fill="#FFFFFF" height="279.7266" style="stroke:#181818;stroke-width:1;" width="10" x="326.6768" y="150.8594"/></g><g><title>......... .......</title><rect fill="#FFFFFF" height="29.1328" style="stroke:#181818;stroke-width:1;" width="10" x="544.5366" y="328.0547"/></g><g><title>Event Bus</title><rect fill="#FFFFFF" height="29.1328" style="stroke:#181818;stroke-width:1;" width="10" x="678.6548" y="401.4531"/></g><g><title>.......... .......... ...... ......</title><rect fill="#FFFFFF" height="110.5313" style="stroke:#181818;stroke-width:1;" width="10" x="888.9365" y="459.7188"/></g><g><title>......... ...... ......</title><rect fill="#FFFFFF" height="29.1328" style="stroke:#181818;stroke-width:1;" width="10" x="1157.6724" y="644.4531"/></g><g><title>.............. ...</title><rect fill="#FFFFFF" height="29.1328" style="stroke:#181818;stroke-width:1;" width="10" x="1354.2983" y="717.8516"/></g><rect fill="none" height="252.1328" style="stroke:#000000;stroke-width:1.5;" width="823.8154" x="628.4907" y="531.9844"/><g class="participant-lifeline" data-entity-uid="part1" data-qualified-name="Source" id="part1-lifeline"><g><title>POS . WMS</title><rect fill="#000000" fill-opacity="0.00000" height="696.5234" width="8" x="46.3872" y="104.5938"/><line style="stroke:#181818;stroke-width:0.5;stroke-dasharray:5,5;" x1="50" x2="50" y1="104.5938" y2="801.1172"/></g></g><g class="participant-lifeline" data-entity-uid="part2" data-qualified-name="Adapter" id="part2-lifeline"><g><title>....... ....... .......</title><rect fill="#000000" fill-opacity="0.00000" height="696.5234" width="8" x="327.6768" y="104.5938"/><line style="stroke:#181818;stroke-width:0.5;stroke-dasharray:5,5;" x1="331.0703" x2="331.0703" y1="104.5938" y2="801.1172"/></g></g><g class="participant-lifeline" data-entity-uid="part3" data-qualified-name="EventStore" id="part3-lifeline"><g><title>......... .......</title><rect fill="#000000" fill-opacity="0.00000" height="696.5234" width="8" x="545.5366" y="104.5938"/><line style="stroke:#181818;stroke-width:0.5;stroke-dasharray:5,5;" x1="548.5825" x2="548.5825" y1="104.5938" y2="801.1172"/></g></g><g class="participant-lifeline" data-entity-uid="part4" data-qualified-name="EventBus" id="part4-lifeline"><g><title>Event Bus</title><rect fill="#000000" fill-opacity="0.00000" height="696.5234" width="8" x="679.6548" y="104.5938"/><line style="stroke:#181818;stroke-width:0.5;stroke-dasharray:5,5;" x1="683.4907" x2="683.4907" y1="104.5938" y2="801.1172"/></g></g><g class="participant-lifeline" data-entity-uid="part5" data-qualified-name="ReadModelUpdater" id="part5-lifeline"><g><title>.......... .......... ...... ......</title><rect fill="#000000" fill-opacity="0.00000" height="696.5234" width="8" x="889.9365" y="104.5938"/><line style="stroke:#181818;stroke-width:0.5;stroke-dasharray:5,5;" x1="893.8188" x2="893.8188" y1="104.5938" y2="801.1172"/></g></g><g class="participant-lifeline" data-entity-uid="part6" data-qualified-name="ReadModelStore" id="part6-lifeline"><g><title>......... ...... ......</title><rect fill="#000000" fill-opacity="0.00000" height="696.5234" width="8" x="1158.6724" y="104.5938"/><line style="stroke:#181818;stroke-width:0.5;stroke-dasharray:5,5;" x1="1162.0542" x2="1162.0542" y1="104.5938" y2="801.1172"/></g></g><g class="participant-lifeline" data-entity-uid="part7" data-qualified-name="Cache" id="part7-lifeline"><g><title>.............. ...</title><rect fill="#000000" fill-opacity="0.00000" height="696.5234" width="8" x="1355.2983" y="104.5938"/><line style="stroke:#181818;stroke-width:0.5;stroke-dasharray:5,5;" x1="1359.2905" x2="1359.2905" y1="104.5938" y2="801.1172"/></g></g><g class="participant participant-head" data-entity-uid="part1" data-qualified-name="Source" id="part1-head"><rect fill="#E2E2F0" height="30.2969" rx="2.5" ry="2.5" style="stroke:#181818;stroke-width:0.5;" width="90.7744" x="5" y="73.2969"/><text fill="#000000" font-family="sans-serif" font-size="14" lengthAdjust="spacing" textLength="76.7744" x="12" y="93.292">POS / WMS</text></g><g class="participant participant-tail" data-entity-uid="part1" data-qualified-name="Source" id="part1-tail"><rect fill="#E2E2F0" height="30.2969" rx="2.5" ry="2.5" style="stroke:#181818;stroke-width:0.5;" width="90.7744" x="5" y="800.1172"/><text fill="#000000" font-family="sans-serif" font-size="14" lengthAdjust="spacing" textLength="76.7744" x="12" y="820.1123">POS / WMS</text></g><g class="participant participant-head" data-entity-uid="part2" data-qualified-name="Adapter" id="part2-head"><rect fill="#E2E2F0" height="30.2969" rx="2.5" ry="2.5" style="stroke:#181818;stroke-width:0.5;" width="213.2129" x="225.0703" y="73.2969"/><text fill="#000000" font-family="sans-serif" font-size="14" lengthAdjust="spacing" textLength="199.2129" x="232.0703" y="93.292">&#1040;&#1076;&#1072;&#1087;&#1090;&#1077;&#1088; &#1074;&#1085;&#1077;&#1096;&#1085;&#1080;&#1093; &#1089;&#1086;&#1073;&#1099;&#1090;&#1080;&#1081;</text></g><g class="participant participant-tail" data-entity-uid="part2" data-qualified-name="Adapter" id="part2-tail"><rect fill="#E2E2F0" height="30.2969" rx="2.5" ry="2.5" style="stroke:#181818;stroke-width:0.5;" width="213.2129" x="225.0703" y="800.1172"/><text fill="#000000" font-family="sans-serif" font-size="14" lengthAdjust="spacing" textLength="199.2129" x="232.0703" y="820.1123">&#1040;&#1076;&#1072;&#1087;&#1090;&#1077;&#1088; &#1074;&#1085;&#1077;&#1096;&#1085;&#1080;&#1093; &#1089;&#1086;&#1073;&#1099;&#1090;&#1080;&#1081;</text></g><g class="participant participant-head" data-entity-uid="part3" data-qualified-name="EventStore" id="part3-head"><text fill="#000000" font-family="sans-serif" font-size="14" lengthAdjust="spacing" textLength="151.9082" x="470.5825" y="101.292">&#1061;&#1088;&#1072;&#1085;&#1080;&#1083;&#1080;&#1097;&#1077; &#1089;&#1086;&#1073;&#1099;&#1090;&#1080;&#1081;</text><path d="M531.5366,52.2969 C531.5366,42.2969 549.5366,42.2969 549.5366,42.2969 C549.5366,42.2969 567.5366,42.2969 567.5366,52.2969 L567.5366,78.2969 C567.5366,88.2969 549.5366,88.2969 549.5366,88.2969 C549.5366,88.2969 531.5366,88.2969 531.5366,78.2969 L531.5366,52.2969" fill="#E2E2F0" style="stroke:#181818;stroke-width:0.5;"/><path d="M531.5366,52.2969 C531.5366,62.2969 549.5366,62.2969 549.5366,62.2969 C549.5366,62.2969 567.5366,62.2969 567.5366,52.2969" fill="none" style="stroke:#181818;stroke-width:0.5;"/></g><g class="participant participant-tail" data-entity-uid="part3" data-qualified-name="EventStore" id="part3-tail"><text fill="#000000" font-family="sans-serif" font-size="14" lengthAdjust="spacing" textLength="151.9082" x="470.5825" y="813.1123">&#1061;&#1088;&#1072;&#1085;&#1080;&#1083;&#1080;&#1097;&#1077; &#1089;&#1086;&#1073;&#1099;&#1090;&#1080;&#1081;</text><path d="M531.5366,826.4141 C531.5366,816.4141 549.5366,816.4141 549.5366,816.4141 C549.5366,816.4141 567.5366,816.4141 567.5366,826.4141 L567.5366,852.4141 C567.5366,862.4141 549.5366,862.4141 549.5366,862.4141 C549.5366,862.4141 531.5366,862.4141 531.5366,852.4141 L531.5366,826.4141" fill="#E2E2F0" style="stroke:#181818;stroke-width:0.5;"/><path d="M531.5366,826.4141 C531.5366,836.4141 549.5366,836.4141 549.5366,836.4141 C549.5366,836.4141 567.5366,836.4141 567.5366,826.4141" fill="none" style="stroke:#181818;stroke-width:0.5;"/></g><g class="participant participant-head" data-entity-uid="part4" data-qualified-name="EventBus" id="part4-head"><path d="M643.4907,78.2969 L723.8188,78.2969 C728.8188,78.2969 728.8188,91.4453 728.8188,91.4453 C728.8188,91.4453 728.8188,104.5938 723.8188,104.5938 L643.4907,104.5938 C638.4907,104.5938 638.4907,91.4453 638.4907,91.4453 C638.4907,91.4453 638.4907,78.2969 643.4907,78.2969" fill="#E2E2F0" style="stroke:#181818;stroke-width:0.5;"/><path d="M723.8188,78.2969 C718.8188,78.2969 718.8188,91.4453 718.8188,91.4453 C718.8188,104.5938 723.8188,104.5938 723.8188,104.5938" fill="none" style="stroke:#181818;stroke-width:0.5;"/><text fill="#000000" font-family="sans-serif" font-size="14" lengthAdjust="spacing" textLength="70.3281" x="643.4907" y="96.292">Event Bus</text></g><g class="participant participant-tail" data-entity-uid="part4" data-qualified-name="EventBus" id="part4-tail"><path d="M643.4907,800.1172 L723.8188,800.1172 C728.8188,800.1172 728.8188,813.2656 728.8188,813.2656 C728.8188,813.2656 728.8188,826.4141 723.8188,826.4141 L643.4907,826.4141 C638.4907,826.4141 638.4907,813.2656 638.4907,813.2656 C638.4907,813.2656 638.4907,800.1172 643.4907,800.1172" fill="#E2E2F0" style="stroke:#181818;stroke-width:0.5;"/><path d="M723.8188,800.1172 C718.8188,800.1172 718.8188,813.2656 718.8188,813.2656 C718.8188,826.4141 723.8188,826.4141 723.8188,826.4141" fill="none" style="stroke:#181818;stroke-width:0.5;"/><text fill="#000000" font-family="sans-serif" font-size="14" lengthAdjust="spacing" textLength="70.3281" x="643.4907" y="818.1123">Event Bus</text></g><g class="participant participant-head" data-entity-uid="part5" data-qualified-name="ReadModelUpdater" id="part5-head"><rect fill="#E2E2F0" height="30.2969" rx="2.5" ry="2.5" style="stroke:#181818;stroke-width:0.5;" width="310.2354" x="738.8188" y="73.2969"/><text fill="#000000" font-family="sans-serif" font-size="14" lengthAdjust="spacing" textLength="296.2354" x="745.8188" y="93.292">&#1054;&#1073;&#1088;&#1072;&#1073;&#1086;&#1090;&#1095;&#1080;&#1082; &#1086;&#1073;&#1085;&#1086;&#1074;&#1083;&#1077;&#1085;&#1080;&#1103; &#1084;&#1086;&#1076;&#1077;&#1083;&#1080; &#1095;&#1090;&#1077;&#1085;&#1080;&#1103;</text></g><g class="participant participant-tail" data-entity-uid="part5" data-qualified-name="ReadModelUpdater" id="part5-tail"><rect fill="#E2E2F0" height="30.2969" rx="2.5" ry="2.5" style="stroke:#181818;stroke-width:0.5;" width="310.2354" x="738.8188" y="800.1172"/><text fill="#000000" font-family="sans-serif" font-size="14" lengthAdjust="spacing" textLength="296.2354" x="745.8188" y="820.1123">&#1054;&#1073;&#1088;&#1072;&#1073;&#1086;&#1090;&#1095;&#1080;&#1082; &#1086;&#1073;&#1085;&#1086;&#1074;&#1083;&#1077;&#1085;&#1080;&#1103; &#1084;&#1086;&#1076;&#1077;&#1083;&#1080; &#1095;&#1090;&#1077;&#1085;&#1080;&#1103;</text></g><g class="participant participant-head" data-entity-uid="part6" data-qualified-name="ReadModelStore" id="part6-head"><text fill="#000000" font-family="sans-serif" font-size="14" lengthAdjust="spacing" textLength="201.2363" x="1059.0542" y="101.292">&#1061;&#1088;&#1072;&#1085;&#1080;&#1083;&#1080;&#1097;&#1077; &#1084;&#1086;&#1076;&#1077;&#1083;&#1080; &#1095;&#1090;&#1077;&#1085;&#1080;&#1103;</text><path d="M1144.6724,52.2969 C1144.6724,42.2969 1162.6724,42.2969 1162.6724,42.2969 C1162.6724,42.2969 1180.6724,42.2969 1180.6724,52.2969 L1180.6724,78.2969 C1180.6724,88.2969 1162.6724,88.2969 1162.6724,88.2969 C1162.6724,88.2969 1144.6724,88.2969 1144.6724,78.2969 L1144.6724,52.2969" fill="#E2E2F0" style="stroke:#181818;stroke-width:0.5;"/><path d="M1144.6724,52.2969 C1144.6724,62.2969 1162.6724,62.2969 1162.6724,62.2969 C1162.6724,62.2969 1180.6724,62.2969 1180.6724,52.2969" fill="none" style="stroke:#181818;stroke-width:0.5;"/></g><g class="participant participant-tail" data-entity-uid="part6" data-qualified-name="ReadModelStore" id="part6-tail"><text fill="#000000" font-family="sans-serif" font-size="14" lengthAdjust="spacing" textLength="201.2363" x="1059.0542" y="813.1123">&#1061;&#1088;&#1072;&#1085;&#1080;&#1083;&#1080;&#1097;&#1077; &#1084;&#1086;&#1076;&#1077;&#1083;&#1080; &#1095;&#1090;&#1077;&#1085;&#1080;&#1103;</text><path d="M1144.6724,826.4141 C1144.6724,816.4141 1162.6724,816.4141 1162.6724,816.4141 C1162.6724,816.4141 1180.6724,816.4141 1180.6724,826.4141 L1180.6724,852.4141 C1180.6724,862.4141 1162.6724,862.4141 1162.6724,862.4141 C1162.6724,862.4141 1144.6724,862.4141 1144.6724,852.4141 L1144.6724,826.4141" fill="#E2E2F0" style="stroke:#181818;stroke-width:0.5;"/><path d="M1144.6724,826.4141 C1144.6724,836.4141 1162.6724,836.4141 1162.6724,836.4141 C1162.6724,836.4141 1180.6724,836.4141 1180.6724,826.4141" fill="none" style="stroke:#181818;stroke-width:0.5;"/></g><g class="participant participant-head" data-entity-uid="part7" data-qualified-name="Cache" id="part7-head"><text fill="#000000" font-family="sans-serif" font-size="14" lengthAdjust="spacing" textLength="160.0156" x="1276.2905" y="101.292">&#1056;&#1072;&#1089;&#1087;&#1088;&#1077;&#1076;&#1077;&#1083;&#1077;&#1085;&#1085;&#1099;&#1081; &#1082;&#1077;&#1096;</text><path d="M1341.2983,52.2969 C1341.2983,42.2969 1359.2983,42.2969 1359.2983,42.2969 C1359.2983,42.2969 1377.2983,42.2969 1377.2983,52.2969 L1377.2983,78.2969 C1377.2983,88.2969 1359.2983,88.2969 1359.2983,88.2969 C1359.2983,88.2969 1341.2983,88.2969 1341.2983,78.2969 L1341.2983,52.2969" fill="#E2E2F0" style="stroke:#181818;stroke-width:0.5;"/><path d="M1341.2983,52.2969 C1341.2983,62.2969 1359.2983,62.2969 1359.2983,62.2969 C1359.2983,62.2969 1377.2983,62.2969 1377.2983,52.2969" fill="none" style="stroke:#181818;stroke-width:0.5;"/></g><g class="participant participant-tail" data-entity-uid="part7" data-qualified-name="Cache" id="part7-tail"><text fill="#000000" font-family="sans-serif" font-size="14" lengthAdjust="spacing" textLength="160.0156" x="1276.2905" y="813.1123">&#1056;&#1072;&#1089;&#1087;&#1088;&#1077;&#1076;&#1077;&#1083;&#1077;&#1085;&#1085;&#1099;&#1081; &#1082;&#1077;&#1096;</text><path d="M1341.2983,826.4141 C1341.2983,816.4141 1359.2983,816.4141 1359.2983,816.4141 C1359.2983,816.4141 1377.2983,816.4141 1377.2983,826.4141 L1377.2983,852.4141 C1377.2983,862.4141 1359.2983,862.4141 1359.2983,862.4141 C1359.2983,862.4141 1341.2983,862.4141 1341.2983,852.4141 L1341.2983,826.4141" fill="#E2E2F0" style="stroke:#181818;stroke-width:0.5;"/><path d="M1341.2983,826.4141 C1341.2983,836.4141 1359.2983,836.4141 1359.2983,836.4141 C1359.2983,836.4141 1377.2983,836.4141 1377.2983,826.4141" fill="none" style="stroke:#181818;stroke-width:0.5;"/></g><g><title>....... ....... .......</title><rect fill="#FFFFFF" height="279.7266" style="stroke:#181818;stroke-width:1;" width="10" x="326.6768" y="150.8594"/></g><g><title>......... .......</title><rect fill="#FFFFFF" height="29.1328" style="stroke:#181818;stroke-width:1;" width="10" x="544.5366" y="328.0547"/></g><g><title>Event Bus</title><rect fill="#FFFFFF" height="29.1328" style="stroke:#181818;stroke-width:1;" width="10" x="678.6548" y="401.4531"/></g><g><title>.......... .......... ...... ......</title><rect fill="#FFFFFF" height="110.5313" style="stroke:#181818;stroke-width:1;" width="10" x="888.9365" y="459.7188"/></g><g><title>......... ...... ......</title><rect fill="#FFFFFF" height="29.1328" style="stroke:#181818;stroke-width:1;" width="10" x="1157.6724" y="644.4531"/></g><g><title>.............. ...</title><rect fill="#FFFFFF" height="29.1328" style="stroke:#181818;stroke-width:1;" width="10" x="1354.2983" y="717.8516"/></g><g class="message" data-entity-1="part1" data-entity-2="part2" id="msg1"><polygon fill="#181818" points="314.6768,146.8594,324.6768,150.8594,314.6768,154.8594,318.6768,150.8594" style="stroke:#181818;stroke-width:1;"/><line style="stroke:#181818;stroke-width:1;" x1="50.3872" x2="320.6768" y1="150.8594" y2="150.8594"/><text fill="#000000" font-family="sans-serif" font-size="13" lengthAdjust="spacing" textLength="196.0601" x="57.3872" y="130.6606">&#1057;&#1086;&#1073;&#1099;&#1090;&#1080;&#1077; &#1080;&#1079;&#1084;&#1077;&#1085;&#1077;&#1085;&#1080;&#1103; &#1086;&#1089;&#1090;&#1072;&#1090;&#1082;&#1072;</text><text fill="#000000" font-family="sans-serif" font-size="13" lengthAdjust="spacing" textLength="257.2896" x="57.3872" y="145.7935">HTTPS / gRPC / &#1087;&#1086;&#1090;&#1086;&#1082;&#1086;&#1074;&#1072;&#1103; &#1080;&#1085;&#1090;&#1077;&#1075;&#1088;&#1072;&#1094;&#1080;&#1103;</text></g><g class="message" data-entity-1="part2" data-entity-2="part2" id="msg2"><line style="stroke:#181818;stroke-width:1;" x1="336.6768" x2="378.6768" y1="210.2578" y2="210.2578"/><line style="stroke:#181818;stroke-width:1;" x1="378.6768" x2="378.6768" y1="210.2578" y2="223.2578"/><line style="stroke:#181818;stroke-width:1;" x1="337.6768" x2="378.6768" y1="223.2578" y2="223.2578"/><polygon fill="#181818" points="347.6768,219.2578,337.6768,223.2578,347.6768,227.2578,343.6768,223.2578" style="stroke:#181818;stroke-width:1;"/><text fill="#000000" font-family="sans-serif" font-size="13" lengthAdjust="spacing" textLength="134.6084" x="343.6768" y="174.9263">&#1055;&#1088;&#1086;&#1074;&#1077;&#1088;&#1082;&#1072; &#1092;&#1086;&#1088;&#1084;&#1072;&#1090;&#1072;,</text><text fill="#000000" font-family="sans-serif" font-size="13" lengthAdjust="spacing" textLength="103.3652" x="343.6768" y="190.0591">&#1085;&#1086;&#1088;&#1084;&#1072;&#1083;&#1080;&#1079;&#1072;&#1094;&#1080;&#1103;,</text><text fill="#000000" font-family="sans-serif" font-size="13" lengthAdjust="spacing" textLength="183.8599" x="343.6768" y="205.1919">&#1086;&#1073;&#1086;&#1075;&#1072;&#1097;&#1077;&#1085;&#1080;&#1077; &#1084;&#1077;&#1090;&#1072;&#1076;&#1072;&#1085;&#1085;&#1099;&#1084;&#1080;</text></g><g class="message" data-entity-1="part2" data-entity-2="part3" id="msg3"><polygon fill="#181818" points="532.5366,324.0547,542.5366,328.0547,532.5366,332.0547,536.5366,328.0547" style="stroke:#181818;stroke-width:1;"/><line style="stroke:#181818;stroke-width:1;" x1="336.6768" x2="538.5366" y1="328.0547" y2="328.0547"/><text fill="#000000" font-family="sans-serif" font-size="13" lengthAdjust="spacing" textLength="174.0781" x="343.6768" y="247.3247">APPEND InventoryUpdated</text><text fill="#000000" font-family="sans-serif" font-size="13" lengthAdjust="spacing" textLength="96.916" x="343.6768" y="262.4575">sourceEventId,</text><text fill="#000000" font-family="sans-serif" font-size="13" lengthAdjust="spacing" textLength="38.7588" x="343.6768" y="277.5903">skuId,</text><text fill="#000000" font-family="sans-serif" font-size="13" lengthAdjust="spacing" textLength="49.3848" x="343.6768" y="292.7231">storeId,</text><text fill="#000000" font-family="sans-serif" font-size="13" lengthAdjust="spacing" textLength="25.1748" x="343.6768" y="307.856">qty,</text><text fill="#000000" font-family="sans-serif" font-size="13" lengthAdjust="spacing" textLength="69.2402" x="343.6768" y="322.9888">eventTime</text></g><g class="message" data-entity-1="part3" data-entity-2="part2" id="msg4"><polygon fill="#181818" points="347.6768,353.1875,337.6768,357.1875,347.6768,361.1875,343.6768,357.1875" style="stroke:#181818;stroke-width:1;"/><line style="stroke:#181818;stroke-width:1;stroke-dasharray:2,2;" x1="341.6768" x2="548.5366" y1="357.1875" y2="357.1875"/><text fill="#000000" font-family="sans-serif" font-size="13" lengthAdjust="spacing" textLength="49.1118" x="353.6768" y="352.1216">eventId</text></g><g class="message" data-entity-1="part2" data-entity-2="part4" id="msg5"><polygon fill="#181818" points="666.6548,397.4531,676.6548,401.4531,666.6548,405.4531,670.6548,401.4531" style="stroke:#181818;stroke-width:1;"/><line style="stroke:#181818;stroke-width:1;" x1="336.6768" x2="672.6548" y1="401.4531" y2="401.4531"/><text fill="#000000" font-family="sans-serif" font-size="13" lengthAdjust="spacing" textLength="168.124" x="343.6768" y="381.2544">Publish InventoryUpdated</text><text fill="#000000" font-family="sans-serif" font-size="13" lengthAdjust="spacing" textLength="136.5381" x="343.6768" y="396.3872">Avro / Kafka protocol</text></g><g class="message" data-entity-1="part4" data-entity-2="part2" id="msg6"><polygon fill="#181818" points="342.6768,426.5859,332.6768,430.5859,342.6768,434.5859,338.6768,430.5859" style="stroke:#181818;stroke-width:1;"/><line style="stroke:#181818;stroke-width:1;stroke-dasharray:2,2;" x1="336.6768" x2="682.6548" y1="430.5859" y2="430.5859"/><text fill="#000000" font-family="sans-serif" font-size="13" lengthAdjust="spacing" textLength="22.6421" x="348.6768" y="425.52">ack</text></g><g class="message" data-entity-1="part4" data-entity-2="part5" id="msg7"><polygon fill="#181818" points="876.9365,455.7188,886.9365,459.7188,876.9365,463.7188,880.9365,459.7188" style="stroke:#181818;stroke-width:1;"/><line style="stroke:#181818;stroke-width:1;" x1="683.6548" x2="882.9365" y1="459.7188" y2="459.7188"/><text fill="#000000" font-family="sans-serif" font-size="13" lengthAdjust="spacing" textLength="182.5015" x="690.6548" y="454.6528">Consume InventoryUpdated</text></g><g class="message" data-entity-1="part5" data-entity-2="part5" id="msg8"><line style="stroke:#181818;stroke-width:1;" x1="898.9365" x2="940.9365" y1="503.9844" y2="503.9844"/><line style="stroke:#181818;stroke-width:1;" x1="940.9365" x2="940.9365" y1="503.9844" y2="516.9844"/><line style="stroke:#181818;stroke-width:1;" x1="899.9365" x2="940.9365" y1="516.9844" y2="516.9844"/><polygon fill="#181818" points="909.9365,512.9844,899.9365,516.9844,909.9365,520.9844,905.9365,516.9844" style="stroke:#181818;stroke-width:1;"/><text fill="#000000" font-family="sans-serif" font-size="13" lengthAdjust="spacing" textLength="192.8037" x="905.9365" y="483.7856">&#1055;&#1088;&#1086;&#1074;&#1077;&#1088;&#1082;&#1072; &#1080;&#1076;&#1077;&#1084;&#1087;&#1086;&#1090;&#1077;&#1085;&#1090;&#1085;&#1086;&#1089;&#1090;&#1080;</text><text fill="#000000" font-family="sans-serif" font-size="13" lengthAdjust="spacing" textLength="175.1255" x="905.9365" y="498.9185">&#1087;&#1086; eventId / sourceEventId</text></g><path d="M628.4907,531.9844 L692.9336,531.9844 L692.9336,539.1172 L682.9336,549.1172 L628.4907,549.1172 L628.4907,531.9844" fill="#EEEEEE" style="stroke:#000000;stroke-width:1.5;"/><rect fill="none" height="252.1328" style="stroke:#000000;stroke-width:1.5;" width="823.8154" x="628.4907" y="531.9844"/><text fill="#000000" font-family="sans-serif" font-size="13" font-weight="bold" lengthAdjust="spacing" textLength="19.4429" x="643.4907" y="545.0513">alt</text><text fill="#000000" font-family="sans-serif" font-size="11" font-weight="bold" lengthAdjust="spacing" textLength="172.8203" x="707.9336" y="544.1948">[&#1057;&#1086;&#1073;&#1099;&#1090;&#1080;&#1077; &#1091;&#1078;&#1077; &#1086;&#1073;&#1088;&#1072;&#1073;&#1086;&#1090;&#1072;&#1085;&#1086;]</text><g class="message" data-entity-1="part5" data-entity-2="part4" id="msg9"><polygon fill="#181818" points="694.6548,566.25,684.6548,570.25,694.6548,574.25,690.6548,570.25" style="stroke:#181818;stroke-width:1;"/><line style="stroke:#181818;stroke-width:1;" x1="688.6548" x2="892.9365" y1="570.25" y2="570.25"/><text fill="#000000" font-family="sans-serif" font-size="13" lengthAdjust="spacing" textLength="92.1743" x="700.6548" y="565.1841">Commit offset</text></g><line style="stroke:#000000;stroke-width:1;stroke-dasharray:2,2;" x1="628.4907" x2="1452.3062" y1="579.25" y2="579.25"/><text fill="#000000" font-family="sans-serif" font-size="11" font-weight="bold" lengthAdjust="spacing" textLength="105.875" x="633.4907" y="589.4604">[&#1053;&#1086;&#1074;&#1086;&#1077; &#1089;&#1086;&#1073;&#1099;&#1090;&#1080;&#1077;]</text><g class="message" data-entity-1="part5" data-entity-2="part6" id="msg10"><polygon fill="#181818" points="1145.6724,640.4531,1155.6724,644.4531,1145.6724,648.4531,1149.6724,644.4531" style="stroke:#181818;stroke-width:1;"/><line style="stroke:#181818;stroke-width:1;" x1="893.9365" x2="1151.6724" y1="644.4531" y2="644.4531"/><text fill="#000000" font-family="sans-serif" font-size="13" lengthAdjust="spacing" textLength="125.6201" x="900.9365" y="609.1216">UPSERT availability</text><text fill="#000000" font-family="sans-serif" font-size="13" lengthAdjust="spacing" textLength="119.6216" x="900.9365" y="624.2544">&#1087;&#1086; skuId + storeId</text><text fill="#000000" font-family="sans-serif" font-size="13" lengthAdjust="spacing" textLength="173.4307" x="900.9365" y="639.3872">&#1089; &#1091;&#1095;&#1077;&#1090;&#1086;&#1084; &#1074;&#1077;&#1088;&#1089;&#1080;&#1080; &#1089;&#1086;&#1073;&#1099;&#1090;&#1080;&#1103;</text></g><g class="message" data-entity-1="part6" data-entity-2="part5" id="msg11"><polygon fill="#181818" points="904.9365,669.5859,894.9365,673.5859,904.9365,677.5859,900.9365,673.5859" style="stroke:#181818;stroke-width:1;"/><line style="stroke:#181818;stroke-width:1;stroke-dasharray:2,2;" x1="898.9365" x2="1161.6724" y1="673.5859" y2="673.5859"/><text fill="#000000" font-family="sans-serif" font-size="13" lengthAdjust="spacing" textLength="18.7573" x="910.9365" y="668.52">OK</text></g><g class="message" data-entity-1="part5" data-entity-2="part7" id="msg12"><polygon fill="#181818" points="1342.2983,713.8516,1352.2983,717.8516,1342.2983,721.8516,1346.2983,717.8516" style="stroke:#181818;stroke-width:1;"/><line style="stroke:#181818;stroke-width:1;" x1="893.9365" x2="1348.2983" y1="717.8516" y2="717.8516"/><text fill="#000000" font-family="sans-serif" font-size="13" lengthAdjust="spacing" textLength="220.9556" x="900.9365" y="697.6528">SET availability:{skuId}:{storeId}</text><text fill="#000000" font-family="sans-serif" font-size="13" lengthAdjust="spacing" textLength="260.73" x="900.9365" y="712.7856">&#1080;&#1083;&#1080; &#1080;&#1085;&#1074;&#1072;&#1083;&#1080;&#1076;&#1072;&#1094;&#1080;&#1103; &#1091;&#1089;&#1090;&#1072;&#1088;&#1077;&#1074;&#1096;&#1077;&#1075;&#1086; &#1082;&#1083;&#1102;&#1095;&#1072;</text></g><g class="message" data-entity-1="part7" data-entity-2="part5" id="msg13"><polygon fill="#181818" points="904.9365,742.9844,894.9365,746.9844,904.9365,750.9844,900.9365,746.9844" style="stroke:#181818;stroke-width:1;"/><line style="stroke:#181818;stroke-width:1;stroke-dasharray:2,2;" x1="898.9365" x2="1358.2983" y1="746.9844" y2="746.9844"/><text fill="#000000" font-family="sans-serif" font-size="13" lengthAdjust="spacing" textLength="18.7573" x="910.9365" y="741.9185">OK</text></g><g class="message" data-entity-1="part5" data-entity-2="part4" id="msg14"><polygon fill="#181818" points="694.6548,772.1172,684.6548,776.1172,694.6548,780.1172,690.6548,776.1172" style="stroke:#181818;stroke-width:1;"/><line style="stroke:#181818;stroke-width:1;" x1="688.6548" x2="892.9365" y1="776.1172" y2="776.1172"/><text fill="#000000" font-family="sans-serif" font-size="13" lengthAdjust="spacing" textLength="92.1743" x="700.6548" y="771.0513">Commit offset</text></g><?plantuml-src hLNBJjj05DtxAwwwRL7tNY3HD58HeaGag9jiXdWe5euTOYSIgf0I-g08gUqFzBNeFZpI1aZ2BypyKSyTEzYEWygYaOWduxddddFlcKlaHfuazKsTgOcQgdDreuPOZTIGr5JtzP4QuEzQ3Ioh9TgHst1Rme_eKMMZIa_frNhr4OcGga6dtP3v4-gBkbG3TOlmeUuHe2TOV6Hm_Pvq7zdEz2dUZjIL0LbnH2kIRSiHaTWMeGJ4Bzq31DEvGTG9I2s8AtUb7rMZe2sj_Oxi8CxiqBDEcBx7Zpbwa6pGpw3pI1y3xfeOEry7_PdK61kN-0aEf8zPJ_p6e6zAuQm7ZlIsMY3-B_eFn8hLP91-e0rzrBA7yt4unqtqgReYT0TrDG0bqTYLbXMtWvQMPpMrIVtCr0qyHkeFk338dSnSk-l-YrgjmZr-lLafuQ5kkKu0kJRb6N3420nOmGNhr1yOnXADoEsY47Vjj995divtX30EhC7fIBy3V0-KEF_WITtdDiGRN2kmJHBmA-xIL5rWwoHrAzHmg35TN9gn6kMofqQnQQLIARzyJgi-xmNjWxXxJjqFJUtCqLK7oSAzJlpaEBFQZmxmBVb4pMtAL776YEcIbhAwPOnhEN9HL84iN6jJfRFjkU7k0guhtNQ0rgo9dJr1hNOG1Ot0c-F3nfyjybn4Ow_0WqzdD--Qc48i5onlKodmmqvJ5YYcN0hNn9hVMOnSC0gQpHTWdFXnQ2muISmxWZcmFoipQfDhfsK9Bvg_2lgj-cscNNOU60zDBS9d4S-qEQMWsNGZ2dPsGXcPyvdg5KLB3zTPVJMAflFZR7XlllnWi6chKYrlraXqXUk9RTTpeuD4kR4hFQR4hdLVzw4GusreBk-Oub8YxuWdK2OzxYwdBvAFlPcZbZgxsB6DjNlBaBZyFfLcUjbKBUULsM-Cg4CyOr67q6f6gfb0F8pCYBYSZGWM78yo7fVd-9-34ONQm3yt-XDgCSWhZQScRvdLWtKbq_P_cqJwZlKN?></g></svg>