<?plantuml 1.2026.2?><svg xmlns="http://www.w3.org/2000/svg" xmlns:xlink="http://www.w3.org/1999/xlink" contentStyleType="text/css" data-diagram-type="SEQUENCE" height="823px" preserveAspectRatio="none" style="width:971px;height:823px;background:#FFFFFF;" version="1.1" viewBox="0 0 971 823" width="971px" zoomAndPan="magnify"><title>&#1054;&#1073;&#1085;&#1086;&#1074;&#1083;&#1077;&#1085;&#1080;&#1077; &#1084;&#1086;&#1076;&#1077;&#1083;&#1080; &#1095;&#1090;&#1077;&#1085;&#1080;&#1103; &#1080; &#1079;&#1072;&#1075;&#1088;&#1091;&#1079;&#1082;&#1072; &#1082;&#1077;&#1096;&#1072;</title><defs/><g><text fill="#000000" font-family="sans-serif" font-size="14" font-weight="bold" lengthAdjust="spacing" textLength="364.793" x="304.3652" y="27.9951">&#1054;&#1073;&#1085;&#1086;&#1074;&#1083;&#1077;&#1085;&#1080;&#1077; &#1084;&#1086;&#1076;&#1077;&#1083;&#1080; &#1095;&#1090;&#1077;&#1085;&#1080;&#1103; &#1080; &#1079;&#1072;&#1075;&#1088;&#1091;&#1079;&#1082;&#1072; &#1082;&#1077;&#1096;&#1072;</text><g><title>.......... ...... ......</title><rect fill="#FFFFFF" height="110.5313" style="stroke:#181818;stroke-width:1;" width="10" x="275.1777" y="165.9922"/></g><g><title>......... ...... ......</title><rect fill="#FFFFFF" height="59.3984" style="stroke:#181818;stroke-width:1;" width="10" x="501.9814" y="424.125"/></g><g><title>.............. ...</title><rect fill="#FFFFFF" height="29.1328" style="stroke:#181818;stroke-width:1;" width="10" x="698.6074" y="582.1875"/></g><g><title>.............. ...</title><rect fill="#FFFFFF" height="29.1328" style="stroke:#181818;stroke-width:1;" width="10" x="698.6074" y="655.2578"/></g><g><title>......... .......</title><rect fill="#FFFFFF" height="44.2656" style="stroke:#181818;stroke-width:1;" width="10" x="870.5693" y="335.5938"/></g><rect fill="none" height="490.2656" style="stroke:#000000;stroke-width:1.5;" width="954.5234" x="10" y="238.2578"/><rect fill="none" height="193.8672" style="stroke:#000000;stroke-width:1.5;" width="635.6279" x="160.9873" y="498.5234"/><g class="participant-lifeline" data-entity-uid="part1" data-qualified-name="EventBus" id="part1-lifeline"><g><title>Event Bus</title><rect fill="#000000" fill-opacity="0.00000" height="640.9297" width="8" x="61.1641" y="104.5938"/><line style="stroke:#181818;stroke-width:0.5;stroke-dasharray:5,5;" x1="65" x2="65" y1="104.5938" y2="745.5234"/></g></g><g class="participant-lifeline" data-entity-uid="part2" data-qualified-name="ReadModelUpdater" id="part2-lifeline"><g><title>.......... ...... ......</title><rect fill="#000000" fill-opacity="0.00000" height="640.9297" width="8" x="276.1777" y="104.5938"/><line style="stroke:#181818;stroke-width:0.5;stroke-dasharray:5,5;" x1="279.9873" x2="279.9873" y1="104.5938" y2="745.5234"/></g></g><g class="participant-lifeline" data-entity-uid="part3" data-qualified-name="ReadModelStore" id="part3-lifeline"><g><title>......... ...... ......</title><rect fill="#000000" fill-opacity="0.00000" height="640.9297" width="8" x="502.9814" y="104.5938"/><line style="stroke:#181818;stroke-width:0.5;stroke-dasharray:5,5;" x1="506.3633" x2="506.3633" y1="104.5938" y2="745.5234"/></g></g><g class="participant-lifeline" data-entity-uid="part4" data-qualified-name="Cache" id="part4-lifeline"><g><title>.............. ...</title><rect fill="#000000" fill-opacity="0.00000" height="640.9297" width="8" x="699.6074" y="104.5938"/><line style="stroke:#181818;stroke-width:0.5;stroke-dasharray:5,5;" x1="703.5996" x2="703.5996" y1="104.5938" y2="745.5234"/></g></g><g class="participant-lifeline" data-entity-uid="part5" data-qualified-name="EventStore" id="part5-lifeline"><g><title>......... .......</title><rect fill="#000000" fill-opacity="0.00000" height="640.9297" width="8" x="871.5693" y="104.5938"/><line style="stroke:#181818;stroke-width:0.5;stroke-dasharray:5,5;" x1="874.6152" x2="874.6152" y1="104.5938" y2="745.5234"/></g></g><g class="participant participant-head" data-entity-uid="part1" data-qualified-name="EventBus" id="part1-head"><path d="M25,78.2969 L105.3281,78.2969 C110.3281,78.2969 110.3281,91.4453 110.3281,91.4453 C110.3281,91.4453 110.3281,104.5938 105.3281,104.5938 L25,104.5938 C20,104.5938 20,91.4453 20,91.4453 C20,91.4453 20,78.2969 25,78.2969" fill="#E2E2F0" style="stroke:#181818;stroke-width:0.5;"/><path d="M105.3281,78.2969 C100.3281,78.2969 100.3281,91.4453 100.3281,91.4453 C100.3281,104.5938 105.3281,104.5938 105.3281,104.5938" fill="none" style="stroke:#181818;stroke-width:0.5;"/><text fill="#000000" font-family="sans-serif" font-size="14" lengthAdjust="spacing" textLength="70.3281" x="25" y="96.292">Event Bus</text></g><g class="participant participant-tail" data-entity-uid="part1" data-qualified-name="EventBus" id="part1-tail"><path d="M25,744.5234 L105.3281,744.5234 C110.3281,744.5234 110.3281,757.6719 110.3281,757.6719 C110.3281,757.6719 110.3281,770.8203 105.3281,770.8203 L25,770.8203 C20,770.8203 20,757.6719 20,757.6719 C20,757.6719 20,744.5234 25,744.5234" fill="#E2E2F0" style="stroke:#181818;stroke-width:0.5;"/><path d="M105.3281,744.5234 C100.3281,744.5234 100.3281,757.6719 100.3281,757.6719 C100.3281,770.8203 105.3281,770.8203 105.3281,770.8203" fill="none" style="stroke:#181818;stroke-width:0.5;"/><text fill="#000000" font-family="sans-serif" font-size="14" lengthAdjust="spacing" textLength="70.3281" x="25" y="762.5186">Event Bus</text></g><g class="participant participant-head" data-entity-uid="part2" data-qualified-name="ReadModelUpdater" id="part2-head"><rect fill="#E2E2F0" height="30.2969" rx="2.5" ry="2.5" style="stroke:#181818;stroke-width:0.5;" width="218.3809" x="170.9873" y="73.2969"/><text fill="#000000" font-family="sans-serif" font-size="14" lengthAdjust="spacing" textLength="204.3809" x="177.9873" y="93.292">&#1054;&#1073;&#1088;&#1072;&#1073;&#1086;&#1090;&#1095;&#1080;&#1082; &#1084;&#1086;&#1076;&#1077;&#1083;&#1080; &#1095;&#1090;&#1077;&#1085;&#1080;&#1103;</text></g><g class="participant participant-tail" data-entity-uid="part2" data-qualified-name="ReadModelUpdater" id="part2-tail"><rect fill="#E2E2F0" height="30.2969" rx="2.5" ry="2.5" style="stroke:#181818;stroke-width:0.5;" width="218.3809" x="170.9873" y="744.5234"/><text fill="#000000" font-family="sans-serif" font-size="14" lengthAdjust="spacing" textLength="204.3809" x="177.9873" y="764.5186">&#1054;&#1073;&#1088;&#1072;&#1073;&#1086;&#1090;&#1095;&#1080;&#1082; &#1084;&#1086;&#1076;&#1077;&#1083;&#1080; &#1095;&#1090;&#1077;&#1085;&#1080;&#1103;</text></g><g class="participant participant-head" data-entity-uid="part3" data-qualified-name="ReadModelStore" id="part3-head"><text fill="#000000" font-family="sans-serif" font-size="14" lengthAdjust="spacing" textLength="201.2363" x="403.3633" y="101.292">&#1061;&#1088;&#1072;&#1085;&#1080;&#1083;&#1080;&#1097;&#1077; &#1084;&#1086;&#1076;&#1077;&#1083;&#1080; &#1095;&#1090;&#1077;&#1085;&#1080;&#1103;</text><path d="M488.9814,52.2969 C488.9814,42.2969 506.9814,42.2969 506.9814,42.2969 C506.9814,42.2969 524.9814,42.2969 524.9814,52.2969 L524.9814,78.2969 C524.9814,88.2969 506.9814,88.2969 506.9814,88.2969 C506.9814,88.2969 488.9814,88.2969 488.9814,78.2969 L488.9814,52.2969" fill="#E2E2F0" style="stroke:#181818;stroke-width:0.5;"/><path d="M488.9814,52.2969 C488.9814,62.2969 506.9814,62.2969 506.9814,62.2969 C506.9814,62.2969 524.9814,62.2969 524.9814,52.2969" fill="none" style="stroke:#181818;stroke-width:0.5;"/></g><g class="participant participant-tail" data-entity-uid="part3" data-qualified-name="ReadModelStore" id="part3-tail"><text fill="#000000" font-family="sans-serif" font-size="14" lengthAdjust="spacing" textLength="201.2363" x="403.3633" y="757.5186">&#1061;&#1088;&#1072;&#1085;&#1080;&#1083;&#1080;&#1097;&#1077; &#1084;&#1086;&#1076;&#1077;&#1083;&#1080; &#1095;&#1090;&#1077;&#1085;&#1080;&#1103;</text><path d="M488.9814,770.8203 C488.9814,760.8203 506.9814,760.8203 506.9814,760.8203 C506.9814,760.8203 524.9814,760.8203 524.9814,770.8203 L524.9814,796.8203 C524.9814,806.8203 506.9814,806.8203 506.9814,806.8203 C506.9814,806.8203 488.9814,806.8203 488.9814,796.8203 L488.9814,770.8203" fill="#E2E2F0" style="stroke:#181818;stroke-width:0.5;"/><path d="M488.9814,770.8203 C488.9814,780.8203 506.9814,780.8203 506.9814,780.8203 C506.9814,780.8203 524.9814,780.8203 524.9814,770.8203" fill="none" style="stroke:#181818;stroke-width:0.5;"/></g><g class="participant participant-head" data-entity-uid="part4" data-qualified-name="Cache" id="part4-head"><text fill="#000000" font-family="sans-serif" font-size="14" lengthAdjust="spacing" textLength="160.0156" x="620.5996" y="101.292">&#1056;&#1072;&#1089;&#1087;&#1088;&#1077;&#1076;&#1077;&#1083;&#1077;&#1085;&#1085;&#1099;&#1081; &#1082;&#1077;&#1096;</text><path d="M685.6074,52.2969 C685.6074,42.2969 703.6074,42.2969 703.6074,42.2969 C703.6074,42.2969 721.6074,42.2969 721.6074,52.2969 L721.6074,78.2969 C721.6074,88.2969 703.6074,88.2969 703.6074,88.2969 C703.6074,88.2969 685.6074,88.2969 685.6074,78.2969 L685.6074,52.2969" fill="#E2E2F0" style="stroke:#181818;stroke-width:0.5;"/><path d="M685.6074,52.2969 C685.6074,62.2969 703.6074,62.2969 703.6074,62.2969 C703.6074,62.2969 721.6074,62.2969 721.6074,52.2969" fill="none" style="stroke:#181818;stroke-width:0.5;"/></g><g class="participant participant-tail" data-entity-uid="part4" data-qualified-name="Cache" id="part4-tail"><text fill="#000000" font-family="sans-serif" font-size="14" lengthAdjust="spacing" textLength="160.0156" x="620.5996" y="757.5186">&#1056;&#1072;&#1089;&#1087;&#1088;&#1077;&#1076;&#1077;&#1083;&#1077;&#1085;&#1085;&#1099;&#1081; &#1082;&#1077;&#1096;</text><path d="M685.6074,770.8203 C685.6074,760.8203 703.6074,760.8203 703.6074,760.8203 C703.6074,760.8203 721.6074,760.8203 721.6074,770.8203 L721.6074,796.8203 C721.6074,806.8203 703.6074,806.8203 703.6074,806.8203 C703.6074,806.8203 685.6074,806.8203 685.6074,796.8203 L685.6074,770.8203" fill="#E2E2F0" style="stroke:#181818;stroke-width:0.5;"/><path d="M685.6074,770.8203 C685.6074,780.8203 703.6074,780.8203 703.6074,780.8203 C703.6074,780.8203 721.6074,780.8203 721.6074,770.8203" fill="none" style="stroke:#181818;stroke-width:0.5;"/></g><g class="participant participant-head" data-entity-uid="part5" data-qualified-name="EventStore" id="part5-head"><text fill="#000000" font-family="sans-serif" font-size="14" lengthAdjust="spacing" textLength="151.9082" x="796.6152" y="101.292">&#1061;&#1088;&#1072;&#1085;&#1080;&#1083;&#1080;&#1097;&#1077; &#1089;&#1086;&#1073;&#1099;&#1090;&#1080;&#1081;</text><path d="M857.5693,52.2969 C857.5693,42.2969 875.5693,42.2969 875.5693,42.2969 C875.5693,42.2969 893.5693,42.2969 893.5693,52.2969 L893.5693,78.2969 C893.5693,88.2969 875.5693,88.2969 875.5693,88.2969 C875.5693,88.2969 857.5693,88.2969 857.5693,78.2969 L857.5693,52.2969" fill="#E2E2F0" style="stroke:#181818;stroke-width:0.5;"/><path d="M857.5693,52.2969 C857.5693,62.2969 875.5693,62.2969 875.5693,62.2969 C875.5693,62.2969 893.5693,62.2969 893.5693,52.2969" fill="none" style="stroke:#181818;stroke-width:0.5;"/></g><g class="participant participant-tail" data-entity-uid="part5" data-qualified-name="EventStore" id="part5-tail"><text fill="#000000" font-family="sans-serif" font-size="14" lengthAdjust="spacing" textLength="151.9082" x="796.6152" y="757.5186">&#1061;&#1088;&#1072;&#1085;&#1080;&#1083;&#1080;&#1097;&#1077; &#1089;&#1086;&#1073;&#1099;&#1090;&#1080;&#1081;</text><path d="M857.5693,770.8203 C857.5693,760.8203 875.5693,760.8203 875.5693,760.8203 C875.5693,760.8203 893.5693,760.8203 893.5693,770.8203 L893.5693,796.8203 C893.5693,806.8203 875.5693,806.8203 875.5693,806.8203 C875.5693,806.8203 857.5693,806.8203 857.5693,796.8203 L857.5693,770.8203" fill="#E2E2F0" style="stroke:#181818;stroke-width:0.5;"/><path d="M857.5693,770.8203 C857.5693,780.8203 875.5693,780.8203 875.5693,780.8203 C875.5693,780.8203 893.5693,780.8203 893.5693,770.8203" fill="none" style="stroke:#181818;stroke-width:0.5;"/></g><g><title>.......... ...... ......</title><rect fill="#FFFFFF" height="110.5313" style="stroke:#181818;stroke-width:1;" width="10" x="275.1777" y="165.9922"/></g><g><title>......... ...... ......</title><rect fill="#FFFFFF" height="59.3984" style="stroke:#181818;stroke-width:1;" width="10" x="501.9814" y="424.125"/></g><g><title>.............. ...</title><rect fill="#FFFFFF" height="29.1328" style="stroke:#181818;stroke-width:1;" width="10" x="698.6074" y="582.1875"/></g><g><title>.............. ...</title><rect fill="#FFFFFF" height="29.1328" style="stroke:#181818;stroke-width:1;" width="10" x="698.6074" y="655.2578"/></g><g><title>......... .......</title><rect fill="#FFFFFF" height="44.2656" style="stroke:#181818;stroke-width:1;" width="10" x="870.5693" y="335.5938"/></g><g class="message" data-entity-1="part1" data-entity-2="part2" id="msg1"><polygon fill="#181818" points="263.1777,161.9922,273.1777,165.9922,263.1777,169.9922,267.1777,165.9922" style="stroke:#181818;stroke-width:1;"/><line style="stroke:#181818;stroke-width:1;" x1="65.1641" x2="269.1777" y1="165.9922" y2="165.9922"/><text fill="#000000" font-family="sans-serif" font-size="13" lengthAdjust="spacing" textLength="191.0137" x="72.1641" y="130.6606">Consume InventoryUpdated /</text><text fill="#000000" font-family="sans-serif" font-size="13" lengthAdjust="spacing" textLength="137.9536" x="72.1641" y="145.7935">ReservationCreated /</text><text fill="#000000" font-family="sans-serif" font-size="13" lengthAdjust="spacing" textLength="141.6099" x="72.1641" y="160.9263">ReservationCancelled</text></g><g class="message" data-entity-1="part2" data-entity-2="part2" id="msg2"><line style="stroke:#181818;stroke-width:1;" x1="285.1777" x2="327.1777" y1="210.2578" y2="210.2578"/><line style="stroke:#181818;stroke-width:1;" x1="327.1777" x2="327.1777" y1="210.2578" y2="223.2578"/><line style="stroke:#181818;stroke-width:1;" x1="286.1777" x2="327.1777" y1="223.2578" y2="223.2578"/><polygon fill="#181818" points="296.1777,219.2578,286.1777,223.2578,296.1777,227.2578,292.1777,223.2578" style="stroke:#181818;stroke-width:1;"/><text fill="#000000" font-family="sans-serif" font-size="13" lengthAdjust="spacing" textLength="192.8037" x="292.1777" y="190.0591">&#1055;&#1088;&#1086;&#1074;&#1077;&#1088;&#1082;&#1072; &#1080;&#1076;&#1077;&#1084;&#1087;&#1086;&#1090;&#1077;&#1085;&#1090;&#1085;&#1086;&#1089;&#1090;&#1080;</text><text fill="#000000" font-family="sans-serif" font-size="13" lengthAdjust="spacing" textLength="175.1255" x="292.1777" y="205.1919">&#1087;&#1086; eventId / sourceEventId</text></g><path d="M10,238.2578 L74.4429,238.2578 L74.4429,245.3906 L64.4429,255.3906 L10,255.3906 L10,238.2578" fill="#EEEEEE" style="stroke:#000000;stroke-width:1.5;"/><rect fill="none" height="490.2656" style="stroke:#000000;stroke-width:1.5;" width="954.5234" x="10" y="238.2578"/><text fill="#000000" font-family="sans-serif" font-size="13" font-weight="bold" lengthAdjust="spacing" textLength="19.4429" x="25" y="251.3247">alt</text><text fill="#000000" font-family="sans-serif" font-size="11" font-weight="bold" lengthAdjust="spacing" textLength="172.8203" x="89.4429" y="250.4683">[&#1057;&#1086;&#1073;&#1099;&#1090;&#1080;&#1077; &#1091;&#1078;&#1077; &#1086;&#1073;&#1088;&#1072;&#1073;&#1086;&#1090;&#1072;&#1085;&#1086;]</text><g class="message" data-entity-1="part2" data-entity-2="part1" id="msg3"><polygon fill="#181818" points="76.1641,272.5234,66.1641,276.5234,76.1641,280.5234,72.1641,276.5234" style="stroke:#181818;stroke-width:1;"/><line style="stroke:#181818;stroke-width:1;" x1="70.1641" x2="279.1777" y1="276.5234" y2="276.5234"/><text fill="#000000" font-family="sans-serif" font-size="13" lengthAdjust="spacing" textLength="92.1743" x="82.1641" y="271.4575">Commit offset</text></g><line style="stroke:#000000;stroke-width:1;stroke-dasharray:2,2;" x1="10" x2="964.5234" y1="285.5234" y2="285.5234"/><text fill="#000000" font-family="sans-serif" font-size="11" font-weight="bold" lengthAdjust="spacing" textLength="105.875" x="15" y="295.7339">[&#1053;&#1086;&#1074;&#1086;&#1077; &#1089;&#1086;&#1073;&#1099;&#1090;&#1080;&#1077;]</text><g class="message" data-entity-1="part2" data-entity-2="part5" id="msg4"><polygon fill="#181818" points="858.5693,331.5938,868.5693,335.5938,858.5693,339.5938,862.5693,335.5938" style="stroke:#181818;stroke-width:1;"/><line style="stroke:#181818;stroke-width:1;" x1="280.1777" x2="864.5693" y1="335.5938" y2="335.5938"/><text fill="#000000" font-family="sans-serif" font-size="13" lengthAdjust="spacing" textLength="179.1563" x="287.1777" y="315.395">&#1055;&#1088;&#1086;&#1074;&#1077;&#1088;&#1082;&#1072; &#1074;&#1077;&#1088;&#1089;&#1080;&#1080; &#1089;&#1086;&#1073;&#1099;&#1090;&#1080;&#1103;</text><text fill="#000000" font-family="sans-serif" font-size="13" lengthAdjust="spacing" textLength="146.0786" x="287.1777" y="330.5278">&#1080; &#1087;&#1086;&#1088;&#1103;&#1076;&#1082;&#1072; &#1086;&#1073;&#1088;&#1072;&#1073;&#1086;&#1090;&#1082;&#1080;</text></g><g class="message" data-entity-1="part5" data-entity-2="part2" id="msg5"><polygon fill="#181818" points="291.1777,375.8594,281.1777,379.8594,291.1777,383.8594,287.1777,379.8594" style="stroke:#181818;stroke-width:1;"/><line style="stroke:#181818;stroke-width:1;stroke-dasharray:2,2;" x1="285.1777" x2="874.5693" y1="379.8594" y2="379.8594"/><text fill="#000000" font-family="sans-serif" font-size="13" lengthAdjust="spacing" textLength="89.9717" x="297.1777" y="359.6606">eventVersion,</text><text fill="#000000" font-family="sans-serif" font-size="13" lengthAdjust="spacing" textLength="69.2402" x="297.1777" y="374.7935">eventTime</text></g><g class="message" data-entity-1="part2" data-entity-2="part3" id="msg6"><polygon fill="#181818" points="489.9814,420.125,499.9814,424.125,489.9814,428.125,493.9814,424.125" style="stroke:#181818;stroke-width:1;"/><line style="stroke:#181818;stroke-width:1;" x1="280.1777" x2="495.9814" y1="424.125" y2="424.125"/><text fill="#000000" font-family="sans-serif" font-size="13" lengthAdjust="spacing" textLength="125.6201" x="287.1777" y="403.9263">UPSERT availability</text><text fill="#000000" font-family="sans-serif" font-size="13" lengthAdjust="spacing" textLength="99.0361" x="287.1777" y="419.0591">skuId + storeId</text></g><g class="message" data-entity-1="part3" data-entity-2="part2" id="msg7"><polygon fill="#181818" points="291.1777,479.5234,281.1777,483.5234,291.1777,487.5234,287.1777,483.5234" style="stroke:#181818;stroke-width:1;"/><line style="stroke:#181818;stroke-width:1;stroke-dasharray:2,2;" x1="285.1777" x2="505.9814" y1="483.5234" y2="483.5234"/><text fill="#000000" font-family="sans-serif" font-size="13" lengthAdjust="spacing" textLength="90.3525" x="297.1777" y="448.1919">available_qty,</text><text fill="#000000" font-family="sans-serif" font-size="13" lengthAdjust="spacing" textLength="89.0767" x="297.1777" y="463.3247">reserved_qty,</text><text fill="#000000" font-family="sans-serif" font-size="13" lengthAdjust="spacing" textLength="47.6138" x="297.1777" y="478.4575">version</text></g><path d="M160.9873,498.5234 L225.4302,498.5234 L225.4302,505.6563 L215.4302,515.6563 L160.9873,515.6563 L160.9873,498.5234" fill="#EEEEEE" style="stroke:#000000;stroke-width:1.5;"/><rect fill="none" height="193.8672" style="stroke:#000000;stroke-width:1.5;" width="635.6279" x="160.9873" y="498.5234"/><text fill="#000000" font-family="sans-serif" font-size="13" font-weight="bold" lengthAdjust="spacing" textLength="19.4429" x="175.9873" y="511.5903">alt</text><text fill="#000000" font-family="sans-serif" font-size="11" font-weight="bold" lengthAdjust="spacing" textLength="155.2515" x="240.4302" y="510.7339">[&#1055;&#1088;&#1103;&#1084;&#1072;&#1103; &#1079;&#1072;&#1075;&#1088;&#1091;&#1079;&#1082;&#1072; &#1082;&#1077;&#1096;&#1072;]</text><g class="message" data-entity-1="part2" data-entity-2="part4" id="msg8"><polygon fill="#181818" points="686.6074,578.1875,696.6074,582.1875,686.6074,586.1875,690.6074,582.1875" style="stroke:#181818;stroke-width:1;"/><line style="stroke:#181818;stroke-width:1;" x1="280.1777" x2="692.6074" y1="582.1875" y2="582.1875"/><text fill="#000000" font-family="sans-serif" font-size="13" lengthAdjust="spacing" textLength="220.9556" x="287.1777" y="531.7231">SET availability:{skuId}:{storeId}</text><text fill="#000000" font-family="sans-serif" font-size="13" lengthAdjust="spacing" textLength="90.3525" x="287.1777" y="546.856">available_qty,</text><text fill="#000000" font-family="sans-serif" font-size="13" lengthAdjust="spacing" textLength="89.0767" x="287.1777" y="561.9888">reserved_qty,</text><text fill="#000000" font-family="sans-serif" font-size="13" lengthAdjust="spacing" textLength="73.6201" x="287.1777" y="577.1216">updated_at</text></g><g class="message" data-entity-1="part4" data-entity-2="part2" id="msg9"><polygon fill="#181818" points="291.1777,607.3203,281.1777,611.3203,291.1777,615.3203,287.1777,611.3203" style="stroke:#181818;stroke-width:1;"/><line style="stroke:#181818;stroke-width:1;stroke-dasharray:2,2;" x1="285.1777" x2="702.6074" y1="611.3203" y2="611.3203"/><text fill="#000000" font-family="sans-serif" font-size="13" lengthAdjust="spacing" textLength="18.7573" x="297.1777" y="606.2544">OK</text></g><line style="stroke:#000000;stroke-width:1;stroke-dasharray:2,2;" x1="160.9873" x2="796.6152" y1="620.3203" y2="620.3203"/><text fill="#000000" font-family="sans-serif" font-size="11" font-weight="bold" lengthAdjust="spacing" textLength="134.1001" x="165.9873" y="630.5308">[&#1048;&#1085;&#1074;&#1072;&#1083;&#1080;&#1076;&#1072;&#1094;&#1080;&#1103; &#1082;&#1077;&#1096;&#1072;]</text><g class="message" data-entity-1="part2" data-entity-2="part4" id="msg10"><polygon fill="#181818" points="686.6074,651.2578,696.6074,655.2578,686.6074,659.2578,690.6074,655.2578" style="stroke:#181818;stroke-width:1;"/><line style="stroke:#181818;stroke-width:1;" x1="280.1777" x2="692.6074" y1="655.2578" y2="655.2578"/><text fill="#000000" font-family="sans-serif" font-size="13" lengthAdjust="spacing" textLength="246.3843" x="287.1777" y="650.1919">DELETE availability:{skuId}:{storeId}</text></g><g class="message" data-entity-1="part4" data-entity-2="part2" id="msg11"><polygon fill="#181818" points="291.1777,680.3906,281.1777,684.3906,291.1777,688.3906,287.1777,684.3906" style="stroke:#181818;stroke-width:1;"/><line style="stroke:#181818;stroke-width:1;stroke-dasharray:2,2;" x1="285.1777" x2="702.6074" y1="684.3906" y2="684.3906"/><text fill="#000000" font-family="sans-serif" font-size="13" lengthAdjust="spacing" textLength="18.7573" x="297.1777" y="679.3247">OK</text></g><g class="message" data-entity-1="part2" data-entity-2="part1" id="msg12"><polygon fill="#181818" points="76.1641,716.5234,66.1641,720.5234,76.1641,724.5234,72.1641,720.5234" style="stroke:#181818;stroke-width:1;"/><line style="stroke:#181818;stroke-width:1;" x1="70.1641" x2="279.1777" y1="720.5234" y2="720.5234"/><text fill="#000000" font-family="sans-serif" font-size="13" lengthAdjust="spacing" textLength="92.1743" x="82.1641" y="715.4575">Commit offset</text></g><?plantuml-src jLJ1RjD04BtxArQvGiKz1mu47of0e2Jb5AdQnbDXuTYflOuKeKffAr5G3xboWSA1Uremk4cQ_iBi7p4xJb8dTLmXWG-sPtPtthmtCwjSvO70BtY1rpZ3IvnWGdyf9WAdvFX9vWHJeK_rSRQYXu9i_8qZ_A47-eJ-nZWIz4hq1nnPra4CCOYAtGDVYITnL14o4coHONLbgDossvMqM36uUa2HBd2cZ_KfuOututAWEaZdHU20jzDrf8BGehVSan4XudUEPRAde_fZ6OVLM0qLX92Fz1L7-WXlA5uoFsxENUipl9epvG0rsNu3vHbGc1cHF2Fe5AzkjSWWhOKkOkln7MfLKGlyAEw0sFRDjY3iPokEUDJown11s9FA3VnQ24LUwRV1yy2nP5kvv8Exubdhdk8yy9nucUv8wClLJbcMATwOmXbnw4qDf8yCpvPl_09CqjkKbeY2E6o3dTcM9Jqby5jE5vBf17-PUito3S5IpYn1Jr6U2-sCJfsEgqImln-1ulqEb906Zug5dvdHRBr6IJaUrwr84VwbIAdfj5n0FIGvQ62CKWCz9Dru-ohHCQOCkqmwroF6VskAhS8AiTQl8Ooey0zRFfjDjmFhOkHxRnFFrR6eYfrN3RlU5B8dNK_kkPwh-Yq_UXjJQH-8oEoXegvalpPOgqXbDEOO7kmUg3xn2BcTmPcRlOpWnWhduBZ7pbdnAGtpiEJ64lEdI0kUyAfesAlyg--O_o5zC_w7BV-UtEDiT7UbMW8k2MJtoCBDrWQ1NZvRRii9a9tdbQotFz7WN1BV2G_gIB_Fxks_OFpKVcutxNj8_oycJCHth7y--YRe7m00?></g></svg>