<?plantuml 1.2026.2?><svg xmlns="http://www.w3.org/2000/svg" xmlns:xlink="http://www.w3.org/1999/xlink" contentStyleType="text/css" data-diagram-type="SEQUENCE" height="1560px" preserveAspectRatio="none" style="width:1587px;height:1560px;background:#FFFFFF;" version="1.1" viewBox="0 0 1587 1560" width="1587px" zoomAndPan="magnify"><title>&#1054;&#1090;&#1084;&#1077;&#1085;&#1072; &#1088;&#1077;&#1079;&#1077;&#1088;&#1074;&#1080;&#1088;&#1086;&#1074;&#1072;&#1085;&#1080;&#1103; &#1090;&#1086;&#1074;&#1072;&#1088;&#1072;</title><defs/><g><text fill="#000000" font-family="sans-serif" font-size="14" font-weight="bold" lengthAdjust="spacing" textLength="257.585" x="666.0264" y="27.9951">&#1054;&#1090;&#1084;&#1077;&#1085;&#1072; &#1088;&#1077;&#1079;&#1077;&#1088;&#1074;&#1080;&#1088;&#1086;&#1074;&#1072;&#1085;&#1080;&#1103; &#1090;&#1086;&#1074;&#1072;&#1088;&#1072;</text><g><title>API Gateway</title><rect fill="#FFFFFF" height="302.7266" style="stroke:#181818;stroke-width:1;" width="10" x="444.9395" y="179.9922"/></g><g><title>...... ..............</title><rect fill="#FFFFFF" height="126.6641" style="stroke:#181818;stroke-width:1;" width="10" x="746.2583" y="311.7891"/></g><g><title>.............. ...</title><rect fill="#FFFFFF" height="53.2656" style="stroke:#181818;stroke-width:1;" width="10" x="1021.2764" y="918.2578"/></g><g><title>.............. ...</title><rect fill="#FFFFFF" height="29.1328" style="stroke:#181818;stroke-width:1;" width="10" x="1021.2764" y="1338.1875"/></g><g><title>......... ........</title><rect fill="#FFFFFF" height="53.2656" style="stroke:#181818;stroke-width:1;" width="10" x="1195.8428" y="340.9219"/></g><g><title>......... ........</title><rect fill="#FFFFFF" height="53.2656" style="stroke:#181818;stroke-width:1;" width="10" x="1195.8428" y="570.9219"/></g><g><title>......... ........</title><rect fill="#FFFFFF" height="29.1328" style="stroke:#181818;stroke-width:1;" width="10" x="1195.8428" y="1148.2578"/></g><g><title>......... .......</title><rect fill="#FFFFFF" height="29.1328" style="stroke:#181818;stroke-width:1;" width="10" x="1366.3555" y="1206.5234"/></g><g><title>Event Bus</title><rect fill="#FFFFFF" height="29.1328" style="stroke:#181818;stroke-width:1;" width="10" x="1500.4736" y="1264.7891"/></g><rect fill="none" height="1106.7969" style="stroke:#000000;stroke-width:1.5;" width="1570.6377" x="10" y="355.9219"/><rect fill="none" height="869.7969" style="stroke:#000000;stroke-width:1.5;" width="1550.6377" x="20" y="585.9219"/><rect fill="none" height="515.4609" style="stroke:#000000;stroke-width:1.5;" width="1530.6377" x="30" y="933.2578"/><g class="participant-lifeline" data-entity-uid="part1" data-qualified-name="Client" id="part1-lifeline"><g><title>.......... ..........</title><rect fill="#000000" fill-opacity="0.00000" height="1361.125" width="8" x="131.2168" y="118.5938"/><line style="stroke:#181818;stroke-width:0.5;stroke-dasharray:5,5;" x1="135" x2="135" y1="118.5938" y2="1479.7188"/></g></g><g class="participant-lifeline" data-entity-uid="part2" data-qualified-name="Gateway" id="part2-lifeline"><g><title>API Gateway</title><rect fill="#000000" fill-opacity="0.00000" height="1361.125" width="8" x="445.9395" y="118.5938"/><line style="stroke:#181818;stroke-width:0.5;stroke-dasharray:5,5;" x1="449.7178" x2="449.7178" y1="118.5938" y2="1479.7188"/></g></g><g class="participant-lifeline" data-entity-uid="part3" data-qualified-name="ReservationService" id="part3-lifeline"><g><title>...... ..............</title><rect fill="#000000" fill-opacity="0.00000" height="1361.125" width="8" x="747.2583" y="118.5938"/><line style="stroke:#181818;stroke-width:0.5;stroke-dasharray:5,5;" x1="750.4971" x2="750.4971" y1="118.5938" y2="1479.7188"/></g></g><g class="participant-lifeline" data-entity-uid="part4" data-qualified-name="Cache" id="part4-lifeline"><g><title>.............. ...</title><rect fill="#000000" fill-opacity="0.00000" height="1361.125" width="8" x="1022.2764" y="118.5938"/><line style="stroke:#181818;stroke-width:0.5;stroke-dasharray:5,5;" x1="1026.2686" x2="1026.2686" y1="118.5938" y2="1479.7188"/></g></g><g class="participant-lifeline" data-entity-uid="part5" data-qualified-name="ReservationStore" id="part5-lifeline"><g><title>......... ........</title><rect fill="#000000" fill-opacity="0.00000" height="1361.125" width="8" x="1196.8428" y="118.5938"/><line style="stroke:#181818;stroke-width:0.5;stroke-dasharray:5,5;" x1="1200.2842" x2="1200.2842" y1="118.5938" y2="1479.7188"/></g></g><g class="participant-lifeline" data-entity-uid="part6" data-qualified-name="EventStore" id="part6-lifeline"><g><title>......... .......</title><rect fill="#000000" fill-opacity="0.00000" height="1361.125" width="8" x="1367.3555" y="118.5938"/><line style="stroke:#181818;stroke-width:0.5;stroke-dasharray:5,5;" x1="1370.4014" x2="1370.4014" y1="118.5938" y2="1479.7188"/></g></g><g class="participant-lifeline" data-entity-uid="part7" data-qualified-name="EventBus" id="part7-lifeline"><g><title>Event Bus</title><rect fill="#000000" fill-opacity="0.00000" height="1361.125" width="8" x="1501.4736" y="118.5938"/><line style="stroke:#181818;stroke-width:0.5;stroke-dasharray:5,5;" x1="1505.3096" x2="1505.3096" y1="118.5938" y2="1479.7188"/></g></g><g class="participant participant-head" data-entity-uid="part1" data-qualified-name="Client" id="part1-head"><text fill="#000000" font-family="sans-serif" font-size="14" lengthAdjust="spacing" textLength="184.4336" x="40" y="115.292">&#1050;&#1083;&#1080;&#1077;&#1085;&#1090;&#1089;&#1082;&#1086;&#1077; &#1087;&#1088;&#1080;&#1083;&#1086;&#1078;&#1077;&#1085;&#1080;&#1077;</text><ellipse cx="135.2168" cy="50.7969" fill="#E2E2F0" rx="8" ry="8" style="stroke:#181818;stroke-width:0.5;"/><path d="M135.2168,58.7969 L135.2168,85.7969 M122.2168,66.7969 L148.2168,66.7969 M135.2168,85.7969 L122.2168,100.7969 M135.2168,85.7969 L148.2168,100.7969" fill="none" style="stroke:#181818;stroke-width:0.5;"/></g><g class="participant participant-tail" data-entity-uid="part1" data-qualified-name="Client" id="part1-tail"><text fill="#000000" font-family="sans-serif" font-size="14" lengthAdjust="spacing" textLength="184.4336" x="40" y="1491.7139">&#1050;&#1083;&#1080;&#1077;&#1085;&#1090;&#1089;&#1082;&#1086;&#1077; &#1087;&#1088;&#1080;&#1083;&#1086;&#1078;&#1077;&#1085;&#1080;&#1077;</text><ellipse cx="135.2168" cy="1503.5156" fill="#E2E2F0" rx="8" ry="8" style="stroke:#181818;stroke-width:0.5;"/><path d="M135.2168,1511.5156 L135.2168,1538.5156 M122.2168,1519.5156 L148.2168,1519.5156 M135.2168,1538.5156 L122.2168,1553.5156 M135.2168,1538.5156 L148.2168,1553.5156" fill="none" style="stroke:#181818;stroke-width:0.5;"/></g><g class="participant participant-head" data-entity-uid="part2" data-qualified-name="Gateway" id="part2-head"><rect fill="#E2E2F0" height="30.2969" rx="2.5" ry="2.5" style="stroke:#181818;stroke-width:0.5;" width="102.4434" x="398.7178" y="87.2969"/><text fill="#000000" font-family="sans-serif" font-size="14" lengthAdjust="spacing" textLength="88.4434" x="405.7178" y="107.292">API Gateway</text></g><g class="participant participant-tail" data-entity-uid="part2" data-qualified-name="Gateway" id="part2-tail"><rect fill="#E2E2F0" height="30.2969" rx="2.5" ry="2.5" style="stroke:#181818;stroke-width:0.5;" width="102.4434" x="398.7178" y="1478.7188"/><text fill="#000000" font-family="sans-serif" font-size="14" lengthAdjust="spacing" textLength="88.4434" x="405.7178" y="1498.7139">API Gateway</text></g><g class="participant participant-head" data-entity-uid="part3" data-qualified-name="ReservationService" id="part3-head"><rect fill="#E2E2F0" height="30.2969" rx="2.5" ry="2.5" style="stroke:#181818;stroke-width:0.5;" width="191.5225" x="655.4971" y="87.2969"/><text fill="#000000" font-family="sans-serif" font-size="14" lengthAdjust="spacing" textLength="177.5225" x="662.4971" y="107.292">&#1057;&#1077;&#1088;&#1074;&#1080;&#1089; &#1088;&#1077;&#1079;&#1077;&#1088;&#1074;&#1080;&#1088;&#1086;&#1074;&#1072;&#1085;&#1080;&#1103;</text></g><g class="participant participant-tail" data-entity-uid="part3" data-qualified-name="ReservationService" id="part3-tail"><rect fill="#E2E2F0" height="30.2969" rx="2.5" ry="2.5" style="stroke:#181818;stroke-width:0.5;" width="191.5225" x="655.4971" y="1478.7188"/><text fill="#000000" font-family="sans-serif" font-size="14" lengthAdjust="spacing" textLength="177.5225" x="662.4971" y="1498.7139">&#1057;&#1077;&#1088;&#1074;&#1080;&#1089; &#1088;&#1077;&#1079;&#1077;&#1088;&#1074;&#1080;&#1088;&#1086;&#1074;&#1072;&#1085;&#1080;&#1103;</text></g><g class="participant participant-head" data-entity-uid="part4" data-qualified-name="Cache" id="part4-head"><text fill="#000000" font-family="sans-serif" font-size="14" lengthAdjust="spacing" textLength="160.0156" x="943.2686" y="115.292">&#1056;&#1072;&#1089;&#1087;&#1088;&#1077;&#1076;&#1077;&#1083;&#1077;&#1085;&#1085;&#1099;&#1081; &#1082;&#1077;&#1096;</text><path d="M1008.2764,66.2969 C1008.2764,56.2969 1026.2764,56.2969 1026.2764,56.2969 C1026.2764,56.2969 1044.2764,56.2969 1044.2764,66.2969 L1044.2764,92.2969 C1044.2764,102.2969 1026.2764,102.2969 1026.2764,102.2969 C1026.2764,102.2969 1008.2764,102.2969 1008.2764,92.2969 L1008.2764,66.2969" fill="#E2E2F0" style="stroke:#181818;stroke-width:0.5;"/><path d="M1008.2764,66.2969 C1008.2764,76.2969 1026.2764,76.2969 1026.2764,76.2969 C1026.2764,76.2969 1044.2764,76.2969 1044.2764,66.2969" fill="none" style="stroke:#181818;stroke-width:0.5;"/></g><g class="participant participant-tail" data-entity-uid="part4" data-qualified-name="Cache" id="part4-tail"><text fill="#000000" font-family="sans-serif" font-size="14" lengthAdjust="spacing" textLength="160.0156" x="943.2686" y="1491.7139">&#1056;&#1072;&#1089;&#1087;&#1088;&#1077;&#1076;&#1077;&#1083;&#1077;&#1085;&#1085;&#1099;&#1081; &#1082;&#1077;&#1096;</text><path d="M1008.2764,1505.0156 C1008.2764,1495.0156 1026.2764,1495.0156 1026.2764,1495.0156 C1026.2764,1495.0156 1044.2764,1495.0156 1044.2764,1505.0156 L1044.2764,1531.0156 C1044.2764,1541.0156 1026.2764,1541.0156 1026.2764,1541.0156 C1026.2764,1541.0156 1008.2764,1541.0156 1008.2764,1531.0156 L1008.2764,1505.0156" fill="#E2E2F0" style="stroke:#181818;stroke-width:0.5;"/><path d="M1008.2764,1505.0156 C1008.2764,1515.0156 1026.2764,1515.0156 1026.2764,1515.0156 C1026.2764,1515.0156 1044.2764,1515.0156 1044.2764,1505.0156" fill="none" style="stroke:#181818;stroke-width:0.5;"/></g><g class="participant participant-head" data-entity-uid="part5" data-qualified-name="ReservationStore" id="part5-head"><text fill="#000000" font-family="sans-serif" font-size="14" lengthAdjust="spacing" textLength="157.1172" x="1119.2842" y="115.292">&#1061;&#1088;&#1072;&#1085;&#1080;&#1083;&#1080;&#1097;&#1077; &#1088;&#1077;&#1079;&#1077;&#1088;&#1074;&#1086;&#1074;</text><path d="M1182.8428,66.2969 C1182.8428,56.2969 1200.8428,56.2969 1200.8428,56.2969 C1200.8428,56.2969 1218.8428,56.2969 1218.8428,66.2969 L1218.8428,92.2969 C1218.8428,102.2969 1200.8428,102.2969 1200.8428,102.2969 C1200.8428,102.2969 1182.8428,102.2969 1182.8428,92.2969 L1182.8428,66.2969" fill="#E2E2F0" style="stroke:#181818;stroke-width:0.5;"/><path d="M1182.8428,66.2969 C1182.8428,76.2969 1200.8428,76.2969 1200.8428,76.2969 C1200.8428,76.2969 1218.8428,76.2969 1218.8428,66.2969" fill="none" style="stroke:#181818;stroke-width:0.5;"/></g><g class="participant participant-tail" data-entity-uid="part5" data-qualified-name="ReservationStore" id="part5-tail"><text fill="#000000" font-family="sans-serif" font-size="14" lengthAdjust="spacing" textLength="157.1172" x="1119.2842" y="1491.7139">&#1061;&#1088;&#1072;&#1085;&#1080;&#1083;&#1080;&#1097;&#1077; &#1088;&#1077;&#1079;&#1077;&#1088;&#1074;&#1086;&#1074;</text><path d="M1182.8428,1505.0156 C1182.8428,1495.0156 1200.8428,1495.0156 1200.8428,1495.0156 C1200.8428,1495.0156 1218.8428,1495.0156 1218.8428,1505.0156 L1218.8428,1531.0156 C1218.8428,1541.0156 1200.8428,1541.0156 1200.8428,1541.0156 C1200.8428,1541.0156 1182.8428,1541.0156 1182.8428,1531.0156 L1182.8428,1505.0156" fill="#E2E2F0" style="stroke:#181818;stroke-width:0.5;"/><path d="M1182.8428,1505.0156 C1182.8428,1515.0156 1200.8428,1515.0156 1200.8428,1515.0156 C1200.8428,1515.0156 1218.8428,1515.0156 1218.8428,1505.0156" fill="none" style="stroke:#181818;stroke-width:0.5;"/></g><g class="participant participant-head" data-entity-uid="part6" data-qualified-name="EventStore" id="part6-head"><text fill="#000000" font-family="sans-serif" font-size="14" lengthAdjust="spacing" textLength="151.9082" x="1292.4014" y="115.292">&#1061;&#1088;&#1072;&#1085;&#1080;&#1083;&#1080;&#1097;&#1077; &#1089;&#1086;&#1073;&#1099;&#1090;&#1080;&#1081;</text><path d="M1353.3555,66.2969 C1353.3555,56.2969 1371.3555,56.2969 1371.3555,56.2969 C1371.3555,56.2969 1389.3555,56.2969 1389.3555,66.2969 L1389.3555,92.2969 C1389.3555,102.2969 1371.3555,102.2969 1371.3555,102.2969 C1371.3555,102.2969 1353.3555,102.2969 1353.3555,92.2969 L1353.3555,66.2969" fill="#E2E2F0" style="stroke:#181818;stroke-width:0.5;"/><path d="M1353.3555,66.2969 C1353.3555,76.2969 1371.3555,76.2969 1371.3555,76.2969 C1371.3555,76.2969 1389.3555,76.2969 1389.3555,66.2969" fill="none" style="stroke:#181818;stroke-width:0.5;"/></g><g class="participant participant-tail" data-entity-uid="part6" data-qualified-name="EventStore" id="part6-tail"><text fill="#000000" font-family="sans-serif" font-size="14" lengthAdjust="spacing" textLength="151.9082" x="1292.4014" y="1491.7139">&#1061;&#1088;&#1072;&#1085;&#1080;&#1083;&#1080;&#1097;&#1077; &#1089;&#1086;&#1073;&#1099;&#1090;&#1080;&#1081;</text><path d="M1353.3555,1505.0156 C1353.3555,1495.0156 1371.3555,1495.0156 1371.3555,1495.0156 C1371.3555,1495.0156 1389.3555,1495.0156 1389.3555,1505.0156 L1389.3555,1531.0156 C1389.3555,1541.0156 1371.3555,1541.0156 1371.3555,1541.0156 C1371.3555,1541.0156 1353.3555,1541.0156 1353.3555,1531.0156 L1353.3555,1505.0156" fill="#E2E2F0" style="stroke:#181818;stroke-width:0.5;"/><path d="M1353.3555,1505.0156 C1353.3555,1515.0156 1371.3555,1515.0156 1371.3555,1515.0156 C1371.3555,1515.0156 1389.3555,1515.0156 1389.3555,1505.0156" fill="none" style="stroke:#181818;stroke-width:0.5;"/></g><g class="participant participant-head" data-entity-uid="part7" data-qualified-name="EventBus" id="part7-head"><path d="M1465.3096,92.2969 L1545.6377,92.2969 C1550.6377,92.2969 1550.6377,105.4453 1550.6377,105.4453 C1550.6377,105.4453 1550.6377,118.5938 1545.6377,118.5938 L1465.3096,118.5938 C1460.3096,118.5938 1460.3096,105.4453 1460.3096,105.4453 C1460.3096,105.4453 1460.3096,92.2969 1465.3096,92.2969" fill="#E2E2F0" style="stroke:#181818;stroke-width:0.5;"/><path d="M1545.6377,92.2969 C1540.6377,92.2969 1540.6377,105.4453 1540.6377,105.4453 C1540.6377,118.5938 1545.6377,118.5938 1545.6377,118.5938" fill="none" style="stroke:#181818;stroke-width:0.5;"/><text fill="#000000" font-family="sans-serif" font-size="14" lengthAdjust="spacing" textLength="70.3281" x="1465.3096" y="110.292">Event Bus</text></g><g class="participant participant-tail" data-entity-uid="part7" data-qualified-name="EventBus" id="part7-tail"><path d="M1465.3096,1478.7188 L1545.6377,1478.7188 C1550.6377,1478.7188 1550.6377,1491.8672 1550.6377,1491.8672 C1550.6377,1491.8672 1550.6377,1505.0156 1545.6377,1505.0156 L1465.3096,1505.0156 C1460.3096,1505.0156 1460.3096,1491.8672 1460.3096,1491.8672 C1460.3096,1491.8672 1460.3096,1478.7188 1465.3096,1478.7188" fill="#E2E2F0" style="stroke:#181818;stroke-width:0.5;"/><path d="M1545.6377,1478.7188 C1540.6377,1478.7188 1540.6377,1491.8672 1540.6377,1491.8672 C1540.6377,1505.0156 1545.6377,1505.0156 1545.6377,1505.0156" fill="none" style="stroke:#181818;stroke-width:0.5;"/><text fill="#000000" font-family="sans-serif" font-size="14" lengthAdjust="spacing" textLength="70.3281" x="1465.3096" y="1496.7139">Event Bus</text></g><g><title>API Gateway</title><rect fill="#FFFFFF" height="302.7266" style="stroke:#181818;stroke-width:1;" width="10" x="444.9395" y="179.9922"/></g><g><title>...... ..............</title><rect fill="#FFFFFF" height="126.6641" style="stroke:#181818;stroke-width:1;" width="10" x="746.2583" y="311.7891"/></g><g><title>.............. ...</title><rect fill="#FFFFFF" height="53.2656" style="stroke:#181818;stroke-width:1;" width="10" x="1021.2764" y="918.2578"/></g><g><title>.............. ...</title><rect fill="#FFFFFF" height="29.1328" style="stroke:#181818;stroke-width:1;" width="10" x="1021.2764" y="1338.1875"/></g><g><title>......... ........</title><rect fill="#FFFFFF" height="53.2656" style="stroke:#181818;stroke-width:1;" width="10" x="1195.8428" y="340.9219"/></g><g><title>......... ........</title><rect fill="#FFFFFF" height="53.2656" style="stroke:#181818;stroke-width:1;" width="10" x="1195.8428" y="570.9219"/></g><g><title>......... ........</title><rect fill="#FFFFFF" height="29.1328" style="stroke:#181818;stroke-width:1;" width="10" x="1195.8428" y="1148.2578"/></g><g><title>......... .......</title><rect fill="#FFFFFF" height="29.1328" style="stroke:#181818;stroke-width:1;" width="10" x="1366.3555" y="1206.5234"/></g><g><title>Event Bus</title><rect fill="#FFFFFF" height="29.1328" style="stroke:#181818;stroke-width:1;" width="10" x="1500.4736" y="1264.7891"/></g><g class="message" data-entity-1="part1" data-entity-2="part2" id="msg1"><polygon fill="#181818" points="432.9395,175.9922,442.9395,179.9922,432.9395,183.9922,436.9395,179.9922" style="stroke:#181818;stroke-width:1;"/><line style="stroke:#181818;stroke-width:1;" x1="135.2168" x2="438.9395" y1="179.9922" y2="179.9922"/><text fill="#000000" font-family="sans-serif" font-size="13" lengthAdjust="spacing" textLength="290.7227" x="142.2168" y="144.6606">DELETE /api/v1/reservations/{reservationId}</text><text fill="#000000" font-family="sans-serif" font-size="13" lengthAdjust="spacing" textLength="79.5679" x="142.2168" y="159.7935">REST/HTTPS</text><text fill="#000000" font-family="sans-serif" font-size="13" lengthAdjust="spacing" textLength="114.0356" x="142.2168" y="174.9263">Idempotency-Key</text></g><g class="message" data-entity-1="part2" data-entity-2="part2" id="msg2"><line style="stroke:#181818;stroke-width:1;" x1="454.9395" x2="496.9395" y1="239.3906" y2="239.3906"/><line style="stroke:#181818;stroke-width:1;" x1="496.9395" x2="496.9395" y1="239.3906" y2="252.3906"/><line style="stroke:#181818;stroke-width:1;" x1="455.9395" x2="496.9395" y1="252.3906" y2="252.3906"/><polygon fill="#181818" points="465.9395,248.3906,455.9395,252.3906,465.9395,256.3906,461.9395,252.3906" style="stroke:#181818;stroke-width:1;"/><text fill="#000000" font-family="sans-serif" font-size="13" lengthAdjust="spacing" textLength="181.7715" x="461.9395" y="204.0591">&#1055;&#1088;&#1086;&#1074;&#1077;&#1088;&#1082;&#1072; &#1090;&#1086;&#1082;&#1077;&#1085;&#1072; &#1076;&#1086;&#1089;&#1090;&#1091;&#1087;&#1072;,</text><text fill="#000000" font-family="sans-serif" font-size="13" lengthAdjust="spacing" textLength="105.0791" x="461.9395" y="219.1919">&#1087;&#1088;&#1086;&#1074;&#1077;&#1088;&#1082;&#1072; &#1087;&#1088;&#1072;&#1074;,</text><text fill="#000000" font-family="sans-serif" font-size="13" lengthAdjust="spacing" textLength="215.3442" x="461.9395" y="234.3247">&#1086;&#1075;&#1088;&#1072;&#1085;&#1080;&#1095;&#1077;&#1085;&#1080;&#1077; &#1095;&#1072;&#1089;&#1090;&#1086;&#1090;&#1099; &#1079;&#1072;&#1087;&#1088;&#1086;&#1089;&#1086;&#1074;</text></g><g class="message" data-entity-1="part2" data-entity-2="part3" id="msg3"><polygon fill="#181818" points="734.2583,307.7891,744.2583,311.7891,734.2583,315.7891,738.2583,311.7891" style="stroke:#181818;stroke-width:1;"/><line style="stroke:#181818;stroke-width:1;" x1="454.9395" x2="740.2583" y1="311.7891" y2="311.7891"/><text fill="#000000" font-family="sans-serif" font-size="13" lengthAdjust="spacing" textLength="217.9976" x="461.9395" y="276.4575">CancelReservation(reservationId)</text><text fill="#000000" font-family="sans-serif" font-size="13" lengthAdjust="spacing" textLength="159.9038" x="461.9395" y="291.5903">REST &#1080;&#1083;&#1080; gRPC / HTTP/2</text><text fill="#000000" font-family="sans-serif" font-size="13" lengthAdjust="spacing" textLength="114.0356" x="461.9395" y="306.7231">Idempotency-Key</text></g><g class="message" data-entity-1="part3" data-entity-2="part5" id="msg4"><polygon fill="#181818" points="1183.8428,336.9219,1193.8428,340.9219,1183.8428,344.9219,1187.8428,340.9219" style="stroke:#181818;stroke-width:1;"/><line style="stroke:#181818;stroke-width:1;" x1="756.2583" x2="1189.8428" y1="340.9219" y2="340.9219"/><text fill="#000000" font-family="sans-serif" font-size="13" lengthAdjust="spacing" textLength="183.8789" x="763.2583" y="335.856">&#1055;&#1088;&#1086;&#1074;&#1077;&#1088;&#1082;&#1072; Idempotency-Key</text></g><path d="M10,355.9219 L74.4429,355.9219 L74.4429,363.0547 L64.4429,373.0547 L10,373.0547 L10,355.9219" fill="#EEEEEE" style="stroke:#000000;stroke-width:1.5;"/><rect fill="none" height="1106.7969" style="stroke:#000000;stroke-width:1.5;" width="1570.6377" x="10" y="355.9219"/><text fill="#000000" font-family="sans-serif" font-size="13" font-weight="bold" lengthAdjust="spacing" textLength="19.4429" x="25" y="368.9888">alt</text><text fill="#000000" font-family="sans-serif" font-size="11" font-weight="bold" lengthAdjust="spacing" textLength="299.3901" x="89.4429" y="368.1323">[&#1055;&#1086;&#1074;&#1090;&#1086;&#1088;&#1085;&#1099;&#1081; &#1079;&#1072;&#1087;&#1088;&#1086;&#1089; &#1089; &#1090;&#1077;&#1084; &#1078;&#1077; Idempotency-Key]</text><g class="message" data-entity-1="part5" data-entity-2="part3" id="msg5"><polygon fill="#181818" points="767.2583,390.1875,757.2583,394.1875,767.2583,398.1875,763.2583,394.1875" style="stroke:#181818;stroke-width:1;"/><line style="stroke:#181818;stroke-width:1;stroke-dasharray:2,2;" x1="761.2583" x2="1199.8428" y1="394.1875" y2="394.1875"/><text fill="#000000" font-family="sans-serif" font-size="13" lengthAdjust="spacing" textLength="209.7266" x="773.2583" y="389.1216">&#1056;&#1072;&#1085;&#1077;&#1077; &#1089;&#1086;&#1093;&#1088;&#1072;&#1085;&#1077;&#1085;&#1085;&#1099;&#1081; &#1088;&#1077;&#1079;&#1091;&#1083;&#1100;&#1090;&#1072;&#1090;</text></g><g class="message" data-entity-1="part3" data-entity-2="part2" id="msg6"><polygon fill="#181818" points="465.9395,434.4531,455.9395,438.4531,465.9395,442.4531,461.9395,438.4531" style="stroke:#181818;stroke-width:1;"/><line style="stroke:#181818;stroke-width:1;stroke-dasharray:2,2;" x1="459.9395" x2="750.2583" y1="438.4531" y2="438.4531"/><text fill="#000000" font-family="sans-serif" font-size="13" lengthAdjust="spacing" textLength="47.7026" x="471.9395" y="418.2544">200 OK</text><text fill="#000000" font-family="sans-serif" font-size="13" lengthAdjust="spacing" textLength="267.3188" x="471.9395" y="433.3872">&#1056;&#1077;&#1079;&#1091;&#1083;&#1100;&#1090;&#1072;&#1090; &#1088;&#1072;&#1085;&#1077;&#1077; &#1074;&#1099;&#1087;&#1086;&#1083;&#1085;&#1077;&#1085;&#1085;&#1086;&#1081; &#1086;&#1090;&#1084;&#1077;&#1085;&#1099;</text></g><g class="message" data-entity-1="part2" data-entity-2="part1" id="msg7"><polygon fill="#181818" points="146.2168,478.7188,136.2168,482.7188,146.2168,486.7188,142.2168,482.7188" style="stroke:#181818;stroke-width:1;"/><line style="stroke:#181818;stroke-width:1;stroke-dasharray:2,2;" x1="140.2168" x2="448.9395" y1="482.7188" y2="482.7188"/><text fill="#000000" font-family="sans-serif" font-size="13" lengthAdjust="spacing" textLength="47.7026" x="152.2168" y="462.52">200 OK</text><text fill="#000000" font-family="sans-serif" font-size="13" lengthAdjust="spacing" textLength="140.6577" x="152.2168" y="477.6528">&#1056;&#1077;&#1079;&#1077;&#1088;&#1074; &#1091;&#1078;&#1077; &#1086;&#1090;&#1084;&#1077;&#1085;&#1077;&#1085;</text></g><line style="stroke:#000000;stroke-width:1;stroke-dasharray:2,2;" x1="10" x2="1580.6377" y1="491.7188" y2="491.7188"/><text fill="#000000" font-family="sans-serif" font-size="11" font-weight="bold" lengthAdjust="spacing" textLength="98.6294" x="15" y="501.9292">[&#1053;&#1086;&#1074;&#1099;&#1081; &#1079;&#1072;&#1087;&#1088;&#1086;&#1089;]</text><g class="message" data-entity-1="part5" data-entity-2="part3" id="msg8"><polygon fill="#181818" points="762.2583,522.6563,752.2583,526.6563,762.2583,530.6563,758.2583,526.6563" style="stroke:#181818;stroke-width:1;"/><line style="stroke:#181818;stroke-width:1;stroke-dasharray:2,2;" x1="756.2583" x2="1199.8428" y1="526.6563" y2="526.6563"/><text fill="#000000" font-family="sans-serif" font-size="13" lengthAdjust="spacing" textLength="200.0464" x="768.2583" y="521.5903">&#1047;&#1072;&#1087;&#1088;&#1086;&#1089; &#1088;&#1072;&#1085;&#1077;&#1077; &#1085;&#1077; &#1074;&#1099;&#1087;&#1086;&#1083;&#1085;&#1103;&#1083;&#1089;&#1103;</text></g><g class="message" data-entity-1="part3" data-entity-2="part5" id="msg9"><polygon fill="#181818" points="1183.8428,566.9219,1193.8428,570.9219,1183.8428,574.9219,1187.8428,570.9219" style="stroke:#181818;stroke-width:1;"/><line style="stroke:#181818;stroke-width:1;" x1="751.2583" x2="1189.8428" y1="570.9219" y2="570.9219"/><text fill="#000000" font-family="sans-serif" font-size="13" lengthAdjust="spacing" textLength="127.0928" x="758.2583" y="550.7231">SELECT reservation</text><text fill="#000000" font-family="sans-serif" font-size="13" lengthAdjust="spacing" textLength="136.354" x="758.2583" y="565.856">status, skuId, storeId</text></g><path d="M20,585.9219 L84.4429,585.9219 L84.4429,593.0547 L74.4429,603.0547 L20,603.0547 L20,585.9219" fill="#EEEEEE" style="stroke:#000000;stroke-width:1.5;"/><rect fill="none" height="869.7969" style="stroke:#000000;stroke-width:1.5;" width="1550.6377" x="20" y="585.9219"/><text fill="#000000" font-family="sans-serif" font-size="13" font-weight="bold" lengthAdjust="spacing" textLength="19.4429" x="35" y="598.9888">alt</text><text fill="#000000" font-family="sans-serif" font-size="11" font-weight="bold" lengthAdjust="spacing" textLength="123.6587" x="99.4429" y="598.1323">[&#1056;&#1077;&#1079;&#1077;&#1088;&#1074; &#1085;&#1077; &#1085;&#1072;&#1081;&#1076;&#1077;&#1085;]</text><g class="message" data-entity-1="part5" data-entity-2="part3" id="msg10"><polygon fill="#181818" points="762.2583,620.1875,752.2583,624.1875,762.2583,628.1875,758.2583,624.1875" style="stroke:#181818;stroke-width:1;"/><line style="stroke:#181818;stroke-width:1;stroke-dasharray:2,2;" x1="756.2583" x2="1199.8428" y1="624.1875" y2="624.1875"/><text fill="#000000" font-family="sans-serif" font-size="13" lengthAdjust="spacing" textLength="62.6831" x="768.2583" y="619.1216">not found</text></g><g class="message" data-entity-1="part3" data-entity-2="part2" id="msg11"><polygon fill="#181818" points="460.9395,649.3203,450.9395,653.3203,460.9395,657.3203,456.9395,653.3203" style="stroke:#181818;stroke-width:1;"/><line style="stroke:#181818;stroke-width:1;stroke-dasharray:2,2;" x1="454.9395" x2="750.2583" y1="653.3203" y2="653.3203"/><text fill="#000000" font-family="sans-serif" font-size="13" lengthAdjust="spacing" textLength="96.0146" x="466.9395" y="648.2544">404 Not Found</text></g><g class="message" data-entity-1="part2" data-entity-2="part1" id="msg12"><polygon fill="#181818" points="146.2168,678.4531,136.2168,682.4531,146.2168,686.4531,142.2168,682.4531" style="stroke:#181818;stroke-width:1;"/><line style="stroke:#181818;stroke-width:1;stroke-dasharray:2,2;" x1="140.2168" x2="448.9395" y1="682.4531" y2="682.4531"/><text fill="#000000" font-family="sans-serif" font-size="13" lengthAdjust="spacing" textLength="96.0146" x="152.2168" y="677.3872">404 Not Found</text></g><line style="stroke:#000000;stroke-width:1;stroke-dasharray:2,2;" x1="20" x2="1570.6377" y1="691.4531" y2="691.4531"/><text fill="#000000" font-family="sans-serif" font-size="11" font-weight="bold" lengthAdjust="spacing" textLength="234.5288" x="25" y="701.6636">[&#1056;&#1077;&#1079;&#1077;&#1088;&#1074; &#1091;&#1078;&#1077; &#1086;&#1090;&#1084;&#1077;&#1085;&#1077;&#1085; &#1080;&#1083;&#1080; &#1079;&#1072;&#1074;&#1077;&#1088;&#1096;&#1077;&#1085;]</text><g class="message" data-entity-1="part5" data-entity-2="part3" id="msg13"><polygon fill="#181818" points="762.2583,722.3906,752.2583,726.3906,762.2583,730.3906,758.2583,726.3906" style="stroke:#181818;stroke-width:1;"/><line style="stroke:#181818;stroke-width:1;stroke-dasharray:2,2;" x1="756.2583" x2="1199.8428" y1="726.3906" y2="726.3906"/><text fill="#000000" font-family="sans-serif" font-size="13" lengthAdjust="spacing" textLength="205.4927" x="768.2583" y="721.3247">status = CANCELLED / EXPIRED</text></g><g class="message" data-entity-1="part3" data-entity-2="part2" id="msg14"><polygon fill="#181818" points="460.9395,766.6563,450.9395,770.6563,460.9395,774.6563,456.9395,770.6563" style="stroke:#181818;stroke-width:1;"/><line style="stroke:#181818;stroke-width:1;stroke-dasharray:2,2;" x1="454.9395" x2="750.2583" y1="770.6563" y2="770.6563"/><text fill="#000000" font-family="sans-serif" font-size="13" lengthAdjust="spacing" textLength="47.7026" x="466.9395" y="750.4575">200 OK</text><text fill="#000000" font-family="sans-serif" font-size="13" lengthAdjust="spacing" textLength="154.8257" x="466.9395" y="765.5903">&#1056;&#1077;&#1079;&#1077;&#1088;&#1074; &#1091;&#1078;&#1077; &#1085;&#1077;&#1072;&#1082;&#1090;&#1080;&#1074;&#1077;&#1085;</text></g><g class="message" data-entity-1="part2" data-entity-2="part1" id="msg15"><polygon fill="#181818" points="146.2168,795.7891,136.2168,799.7891,146.2168,803.7891,142.2168,799.7891" style="stroke:#181818;stroke-width:1;"/><line style="stroke:#181818;stroke-width:1;stroke-dasharray:2,2;" x1="140.2168" x2="448.9395" y1="799.7891" y2="799.7891"/><text fill="#000000" font-family="sans-serif" font-size="13" lengthAdjust="spacing" textLength="47.7026" x="152.2168" y="794.7231">200 OK</text></g><line style="stroke:#000000;stroke-width:1;stroke-dasharray:2,2;" x1="20" x2="1570.6377" y1="808.7891" y2="808.7891"/><text fill="#000000" font-family="sans-serif" font-size="11" font-weight="bold" lengthAdjust="spacing" textLength="170.688" x="25" y="818.9995">[&#1040;&#1082;&#1090;&#1080;&#1074;&#1085;&#1099;&#1081; &#1088;&#1077;&#1079;&#1077;&#1088;&#1074; &#1085;&#1072;&#1081;&#1076;&#1077;&#1085;]</text><g class="message" data-entity-1="part5" data-entity-2="part3" id="msg16"><polygon fill="#181818" points="762.2583,869.9922,752.2583,873.9922,762.2583,877.9922,758.2583,873.9922" style="stroke:#181818;stroke-width:1;"/><line style="stroke:#181818;stroke-width:1;stroke-dasharray:2,2;" x1="756.2583" x2="1199.8428" y1="873.9922" y2="873.9922"/><text fill="#000000" font-family="sans-serif" font-size="13" lengthAdjust="spacing" textLength="110.0874" x="768.2583" y="838.6606">status = ACTIVE,</text><text fill="#000000" font-family="sans-serif" font-size="13" lengthAdjust="spacing" textLength="38.7588" x="768.2583" y="853.7935">skuId,</text><text fill="#000000" font-family="sans-serif" font-size="13" lengthAdjust="spacing" textLength="45.2524" x="768.2583" y="868.9263">storeId</text></g><g class="message" data-entity-1="part3" data-entity-2="part4" id="msg17"><polygon fill="#181818" points="1009.2764,914.2578,1019.2764,918.2578,1009.2764,922.2578,1013.2764,918.2578" style="stroke:#181818;stroke-width:1;"/><line style="stroke:#181818;stroke-width:1;" x1="751.2583" x2="1015.2764" y1="918.2578" y2="918.2578"/><text fill="#000000" font-family="sans-serif" font-size="13" lengthAdjust="spacing" textLength="251.0181" x="758.2583" y="898.0591">&#1047;&#1072;&#1093;&#1074;&#1072;&#1090; &#1088;&#1072;&#1089;&#1087;&#1088;&#1077;&#1076;&#1077;&#1083;&#1077;&#1085;&#1085;&#1086;&#1081; &#1073;&#1083;&#1086;&#1082;&#1080;&#1088;&#1086;&#1074;&#1082;&#1080;</text><text fill="#000000" font-family="sans-serif" font-size="13" lengthAdjust="spacing" textLength="119.6216" x="758.2583" y="913.1919">&#1087;&#1086; skuId + storeId</text></g><path d="M30,933.2578 L94.4429,933.2578 L94.4429,940.3906 L84.4429,950.3906 L30,950.3906 L30,933.2578" fill="#EEEEEE" style="stroke:#000000;stroke-width:1.5;"/><rect fill="none" height="515.4609" style="stroke:#000000;stroke-width:1.5;" width="1530.6377" x="30" y="933.2578"/><text fill="#000000" font-family="sans-serif" font-size="13" font-weight="bold" lengthAdjust="spacing" textLength="19.4429" x="45" y="946.3247">alt</text><text fill="#000000" font-family="sans-serif" font-size="11" font-weight="bold" lengthAdjust="spacing" textLength="169.646" x="109.4429" y="945.4683">[&#1041;&#1083;&#1086;&#1082;&#1080;&#1088;&#1086;&#1074;&#1082;&#1072; &#1085;&#1077; &#1087;&#1086;&#1083;&#1091;&#1095;&#1077;&#1085;&#1072;]</text><g class="message" data-entity-1="part4" data-entity-2="part3" id="msg18"><polygon fill="#181818" points="762.2583,967.5234,752.2583,971.5234,762.2583,975.5234,758.2583,971.5234" style="stroke:#181818;stroke-width:1;"/><line style="stroke:#181818;stroke-width:1;stroke-dasharray:2,2;" x1="756.2583" x2="1025.2764" y1="971.5234" y2="971.5234"/><text fill="#000000" font-family="sans-serif" font-size="13" lengthAdjust="spacing" textLength="83.8208" x="768.2583" y="966.4575">lock rejected</text></g><g class="message" data-entity-1="part3" data-entity-2="part2" id="msg19"><polygon fill="#181818" points="460.9395,1011.7891,450.9395,1015.7891,460.9395,1019.7891,456.9395,1015.7891" style="stroke:#181818;stroke-width:1;"/><line style="stroke:#181818;stroke-width:1;stroke-dasharray:2,2;" x1="454.9395" x2="750.2583" y1="1015.7891" y2="1015.7891"/><text fill="#000000" font-family="sans-serif" font-size="13" lengthAdjust="spacing" textLength="78.2603" x="466.9395" y="995.5903">409 Conflict</text><text fill="#000000" font-family="sans-serif" font-size="13" lengthAdjust="spacing" textLength="223.8184" x="466.9395" y="1010.7231">&#1054;&#1087;&#1077;&#1088;&#1072;&#1094;&#1080;&#1103; &#1074;&#1088;&#1077;&#1084;&#1077;&#1085;&#1085;&#1086; &#1085;&#1077;&#1076;&#1086;&#1089;&#1090;&#1091;&#1087;&#1085;&#1072;</text></g><g class="message" data-entity-1="part2" data-entity-2="part1" id="msg20"><polygon fill="#181818" points="146.2168,1056.0547,136.2168,1060.0547,146.2168,1064.0547,142.2168,1060.0547" style="stroke:#181818;stroke-width:1;"/><line style="stroke:#181818;stroke-width:1;stroke-dasharray:2,2;" x1="140.2168" x2="448.9395" y1="1060.0547" y2="1060.0547"/><text fill="#000000" font-family="sans-serif" font-size="13" lengthAdjust="spacing" textLength="78.2603" x="152.2168" y="1039.856">409 Conflict</text><text fill="#000000" font-family="sans-serif" font-size="13" lengthAdjust="spacing" textLength="120.0596" x="152.2168" y="1054.9888">&#1055;&#1086;&#1074;&#1090;&#1086;&#1088;&#1080;&#1090;&#1100; &#1087;&#1086;&#1079;&#1078;&#1077;</text></g><line style="stroke:#000000;stroke-width:1;stroke-dasharray:2,2;" x1="30" x2="1560.6377" y1="1069.0547" y2="1069.0547"/><text fill="#000000" font-family="sans-serif" font-size="11" font-weight="bold" lengthAdjust="spacing" textLength="150.7559" x="35" y="1079.2651">[&#1041;&#1083;&#1086;&#1082;&#1080;&#1088;&#1086;&#1074;&#1082;&#1072; &#1087;&#1086;&#1083;&#1091;&#1095;&#1077;&#1085;&#1072;]</text><g class="message" data-entity-1="part4" data-entity-2="part3" id="msg21"><polygon fill="#181818" points="762.2583,1099.9922,752.2583,1103.9922,762.2583,1107.9922,758.2583,1103.9922" style="stroke:#181818;stroke-width:1;"/><line style="stroke:#181818;stroke-width:1;stroke-dasharray:2,2;" x1="756.2583" x2="1025.2764" y1="1103.9922" y2="1103.9922"/><text fill="#000000" font-family="sans-serif" font-size="13" lengthAdjust="spacing" textLength="87.1851" x="768.2583" y="1098.9263">lock acquired</text></g><g class="message" data-entity-1="part3" data-entity-2="part5" id="msg22"><polygon fill="#181818" points="1183.8428,1144.2578,1193.8428,1148.2578,1183.8428,1152.2578,1187.8428,1148.2578" style="stroke:#181818;stroke-width:1;"/><line style="stroke:#181818;stroke-width:1;" x1="751.2583" x2="1189.8428" y1="1148.2578" y2="1148.2578"/><text fill="#000000" font-family="sans-serif" font-size="13" lengthAdjust="spacing" textLength="130.5649" x="758.2583" y="1128.0591">UPDATE reservation</text><text fill="#000000" font-family="sans-serif" font-size="13" lengthAdjust="spacing" textLength="136.7983" x="758.2583" y="1143.1919">status = CANCELLED</text></g><g class="message" data-entity-1="part5" data-entity-2="part3" id="msg23"><polygon fill="#181818" points="762.2583,1173.3906,752.2583,1177.3906,762.2583,1181.3906,758.2583,1177.3906" style="stroke:#181818;stroke-width:1;"/><line style="stroke:#181818;stroke-width:1;stroke-dasharray:2,2;" x1="756.2583" x2="1199.8428" y1="1177.3906" y2="1177.3906"/><text fill="#000000" font-family="sans-serif" font-size="13" lengthAdjust="spacing" textLength="18.7573" x="768.2583" y="1172.3247">OK</text></g><g class="message" data-entity-1="part3" data-entity-2="part6" id="msg24"><polygon fill="#181818" points="1354.3555,1202.5234,1364.3555,1206.5234,1354.3555,1210.5234,1358.3555,1206.5234" style="stroke:#181818;stroke-width:1;"/><line style="stroke:#181818;stroke-width:1;" x1="751.2583" x2="1360.3555" y1="1206.5234" y2="1206.5234"/><text fill="#000000" font-family="sans-serif" font-size="13" lengthAdjust="spacing" textLength="198.2627" x="758.2583" y="1201.4575">APPEND ReservationCancelled</text></g><g class="message" data-entity-1="part6" data-entity-2="part3" id="msg25"><polygon fill="#181818" points="762.2583,1231.6563,752.2583,1235.6563,762.2583,1239.6563,758.2583,1235.6563" style="stroke:#181818;stroke-width:1;"/><line style="stroke:#181818;stroke-width:1;stroke-dasharray:2,2;" x1="756.2583" x2="1370.3555" y1="1235.6563" y2="1235.6563"/><text fill="#000000" font-family="sans-serif" font-size="13" lengthAdjust="spacing" textLength="49.1118" x="768.2583" y="1230.5903">eventId</text></g><g class="message" data-entity-1="part3" data-entity-2="part7" id="msg26"><polygon fill="#181818" points="1488.4736,1260.7891,1498.4736,1264.7891,1488.4736,1268.7891,1492.4736,1264.7891" style="stroke:#181818;stroke-width:1;"/><line style="stroke:#181818;stroke-width:1;" x1="751.2583" x2="1494.4736" y1="1264.7891" y2="1264.7891"/><text fill="#000000" font-family="sans-serif" font-size="13" lengthAdjust="spacing" textLength="192.3086" x="758.2583" y="1259.7231">Publish ReservationCancelled</text></g><g class="message" data-entity-1="part7" data-entity-2="part3" id="msg27"><polygon fill="#181818" points="762.2583,1289.9219,752.2583,1293.9219,762.2583,1297.9219,758.2583,1293.9219" style="stroke:#181818;stroke-width:1;"/><line style="stroke:#181818;stroke-width:1;stroke-dasharray:2,2;" x1="756.2583" x2="1504.4736" y1="1293.9219" y2="1293.9219"/><text fill="#000000" font-family="sans-serif" font-size="13" lengthAdjust="spacing" textLength="22.6421" x="768.2583" y="1288.856">ack</text></g><g class="message" data-entity-1="part3" data-entity-2="part4" id="msg28"><polygon fill="#181818" points="1009.2764,1334.1875,1019.2764,1338.1875,1009.2764,1342.1875,1013.2764,1338.1875" style="stroke:#181818;stroke-width:1;"/><line style="stroke:#181818;stroke-width:1;" x1="751.2583" x2="1015.2764" y1="1338.1875" y2="1338.1875"/><text fill="#000000" font-family="sans-serif" font-size="13" lengthAdjust="spacing" textLength="125.4106" x="758.2583" y="1317.9888">DECR reserved_qty</text><text fill="#000000" font-family="sans-serif" font-size="13" lengthAdjust="spacing" textLength="187.4907" x="758.2583" y="1333.1216">&#1054;&#1089;&#1074;&#1086;&#1073;&#1086;&#1078;&#1076;&#1077;&#1085;&#1080;&#1077; &#1073;&#1083;&#1086;&#1082;&#1080;&#1088;&#1086;&#1074;&#1082;&#1080;</text></g><g class="message" data-entity-1="part4" data-entity-2="part3" id="msg29"><polygon fill="#181818" points="762.2583,1363.3203,752.2583,1367.3203,762.2583,1371.3203,758.2583,1367.3203" style="stroke:#181818;stroke-width:1;"/><line style="stroke:#181818;stroke-width:1;stroke-dasharray:2,2;" x1="756.2583" x2="1025.2764" y1="1367.3203" y2="1367.3203"/><text fill="#000000" font-family="sans-serif" font-size="13" lengthAdjust="spacing" textLength="18.7573" x="768.2583" y="1362.2544">OK</text></g><g class="message" data-entity-1="part3" data-entity-2="part2" id="msg30"><polygon fill="#181818" points="460.9395,1407.5859,450.9395,1411.5859,460.9395,1415.5859,456.9395,1411.5859" style="stroke:#181818;stroke-width:1;"/><line style="stroke:#181818;stroke-width:1;stroke-dasharray:2,2;" x1="454.9395" x2="750.2583" y1="1411.5859" y2="1411.5859"/><text fill="#000000" font-family="sans-serif" font-size="13" lengthAdjust="spacing" textLength="47.7026" x="466.9395" y="1391.3872">200 OK</text><text fill="#000000" font-family="sans-serif" font-size="13" lengthAdjust="spacing" textLength="109.1226" x="466.9395" y="1406.52">&#1056;&#1077;&#1079;&#1077;&#1088;&#1074; &#1086;&#1090;&#1084;&#1077;&#1085;&#1077;&#1085;</text></g><g class="message" data-entity-1="part2" data-entity-2="part1" id="msg31"><polygon fill="#181818" points="146.2168,1436.7188,136.2168,1440.7188,146.2168,1444.7188,142.2168,1440.7188" style="stroke:#181818;stroke-width:1;"/><line style="stroke:#181818;stroke-width:1;stroke-dasharray:2,2;" x1="140.2168" x2="448.9395" y1="1440.7188" y2="1440.7188"/><text fill="#000000" font-family="sans-serif" font-size="13" lengthAdjust="spacing" textLength="47.7026" x="152.2168" y="1435.6528">200 OK</text></g><?plantuml-src hLTTRzis57tNhxZ8KuSrS5RqPG5MmBErpMYG6Outx270eChigaMJ4ulE41G3QXVTEgH0sgS20zPr3tjNl7frdCJv2-G_sYMf3qgMR2Mk4KSqHLwUU-wvboHrg4k0lU53Ti76x985m9zWupqRutF49lX_Xiy0Nqtu2U0u-HEx0yEmRDhjmHhxWvspYPZEXtp0fZXa3EmAnqpmnOpz9otZW3MmVAYv3l6eiM_rg6Cx-vP7OQtQRC2N5YK_MqToJDXE3s9_nw062r5A4otYazwXHPskjuCDnoP6nwBM0yidQEejkZ2G4CVi7NxF9SHBVipE01qOy-SAgsK_IitxHpWkdK6F-U_ePme8WfXR72bQPcA04q_vCP8xOMVIW7c87Acf1ttIntco1pxl-ybx_64OYavOlnUHjWbrSyjicr2nzftAuIULNWB6hppMVZKwl-nwBNEdNVcgtMxkx687-Mc_Iubd7wtV9qSYlWuE9N4yZB2HMexz5T8lE9WA1GcHJ4Cv8RqpFa1XF6LNBBYzwqdMzU6o8s0ZyMx6_eteuRz5iW5i1i86MXhoOq2w0sL5CZTAmPgF-oQ6qRE9gxsvbMBX8yK2g9303wrc3IeWEAdSMK1AZiAC-Rui9X7J7CvAhIBrO5WknVbYjcJaIIHRZHKGVqFaxm94zirP1_na3SDw0NiYMJ0Gur2f_5aOeIHZL0vWXC_v2rmsu4EvGeSiy28B8M9BLzQTZGtu-ZxAuctMFiGOiDAC4CGLyd4UWS8syZ6BYXe_NWGd2fqO4ki8KQZ4oe9GYGw8HV2Qh26-sLNYh24kPZxxKuOi6wfhnkAr7cIDWyiC4Vm4oHhmavi78a-sErXPQctGicVNywb5-_vjyFVwZGu-nCX6HvfTigeKiiwgyWAh1ZkJLLanUYs2l2w5Xzs-rucdBdM-Z1BlRjo5RJJzHHdJkgAALBNKO2mUqQy4j5I0KGMJ-fArXJ-_6OqggF0PrAhRDNDhownZHJI_QpPQPlt3ChimlOHN0PlAZN6KycG5wjMA9Jb_6Q-kbxf4hoj8DUQuMcitlZLn-rCf958goQ6LYBwdJZ2gRl1dykIcQcVUwKULpLDvPfl6XofiYKsRpLI6myUGXHU3KyUbf5_azwivSq6Ovx9IyQVXFX_4qyH7MYfapktQUrY4VYGs9PtKF8sf39XoMVufrBhUGzUnAVhy1Y6E9Lc_oiClrbV1s4N4bjAdVhx9kb5IfSL58eL7t_CdkE8BnU5xaIj5owOadSWwDoeh1iIo3_fER-M0vEqxtpJhLJpHvkmxUebAcIxEc2802vDLAnYbCxBOm-HulmdLPjFShki3rN7LpJ0PBwZT3VJtINUX4qGCQHG6I3DSrWUyWcn2i__0TVn7rtL1N5_c7C3EGlYMlRSGkhmFBGSUbiIwMMk5YYATxm_eaSXuB8lY5dSgRwtluWj8Nb7Czqo9l7pc5Elg1lKhTo_DEQD-eFAKsKWBAazSUC9pZdYAx_y0?></g></svg>