<?plantuml 1.2026.2?><svg xmlns="http://www.w3.org/2000/svg" xmlns:xlink="http://www.w3.org/1999/xlink" contentStyleType="text/css" data-diagram-type="SEQUENCE" height="1578px" preserveAspectRatio="none" style="width:1633px;height:1578px;background:#FFFFFF;" version="1.1" viewBox="0 0 1633 1578" width="1633px" zoomAndPan="magnify"><title>&#1056;&#1077;&#1079;&#1077;&#1088;&#1074;&#1080;&#1088;&#1086;&#1074;&#1072;&#1085;&#1080;&#1077; &#1090;&#1086;&#1074;&#1072;&#1088;&#1072;</title><defs/><g><text fill="#000000" font-family="sans-serif" font-size="14" font-weight="bold" lengthAdjust="spacing" textLength="193.3818" x="721.0811" y="27.9951">&#1056;&#1077;&#1079;&#1077;&#1088;&#1074;&#1080;&#1088;&#1086;&#1074;&#1072;&#1085;&#1080;&#1077; &#1090;&#1086;&#1074;&#1072;&#1088;&#1072;</text><g><title>API Gateway</title><rect fill="#FFFFFF" height="302.7266" style="stroke:#181818;stroke-width:1;" width="10" x="424.481" y="179.9922"/></g><g><title>...... ..............</title><rect fill="#FFFFFF" height="126.6641" style="stroke:#181818;stroke-width:1;" width="10" x="792.1646" y="311.7891"/></g><g><title>.............. ...</title><rect fill="#FFFFFF" height="53.2656" style="stroke:#181818;stroke-width:1;" width="10" x="1067.1826" y="570.9219"/></g><g><title>.............. ...</title><rect fill="#FFFFFF" height="59.3984" style="stroke:#181818;stroke-width:1;" width="10" x="1067.1826" y="800.9219"/></g><g><title>.............. ...</title><rect fill="#FFFFFF" height="29.1328" style="stroke:#181818;stroke-width:1;" width="10" x="1067.1826" y="913.5859"/></g><g><title>.............. ...</title><rect fill="#FFFFFF" height="29.1328" style="stroke:#181818;stroke-width:1;" width="10" x="1067.1826" y="1310.5156"/></g><g><title>......... ........</title><rect fill="#FFFFFF" height="53.2656" style="stroke:#181818;stroke-width:1;" width="10" x="1241.749" y="340.9219"/></g><g><title>......... ........</title><rect fill="#FFFFFF" height="29.1328" style="stroke:#181818;stroke-width:1;" width="10" x="1241.749" y="1120.5859"/></g><g><title>......... .......</title><rect fill="#FFFFFF" height="29.1328" style="stroke:#181818;stroke-width:1;" width="10" x="1412.2617" y="1178.8516"/></g><g><title>Event Bus</title><rect fill="#FFFFFF" height="29.1328" style="stroke:#181818;stroke-width:1;" width="10" x="1546.3799" y="1237.1172"/></g><rect fill="none" height="1124.5234" style="stroke:#000000;stroke-width:1.5;" width="1616.5439" x="10" y="355.9219"/><rect fill="none" height="887.5234" style="stroke:#000000;stroke-width:1.5;" width="1596.5439" x="20" y="585.9219"/><rect fill="none" height="591.125" style="stroke:#000000;stroke-width:1.5;" width="1576.5439" x="30" y="875.3203"/><g class="participant-lifeline" data-entity-uid="part1" data-qualified-name="Client" id="part1-lifeline"><g><title>.......... ..........</title><rect fill="#000000" fill-opacity="0.00000" height="1378.8516" width="8" x="131.2168" y="118.5938"/><line style="stroke:#181818;stroke-width:0.5;stroke-dasharray:5,5;" x1="135" x2="135" y1="118.5938" y2="1497.4453"/></g></g><g class="participant-lifeline" data-entity-uid="part2" data-qualified-name="Gateway" id="part2-lifeline"><g><title>API Gateway</title><rect fill="#000000" fill-opacity="0.00000" height="1378.8516" width="8" x="425.481" y="118.5938"/><line style="stroke:#181818;stroke-width:0.5;stroke-dasharray:5,5;" x1="429.2593" x2="429.2593" y1="118.5938" y2="1497.4453"/></g></g><g class="participant-lifeline" data-entity-uid="part3" data-qualified-name="ReservationService" id="part3-lifeline"><g><title>...... ..............</title><rect fill="#000000" fill-opacity="0.00000" height="1378.8516" width="8" x="793.1646" y="118.5938"/><line style="stroke:#181818;stroke-width:0.5;stroke-dasharray:5,5;" x1="796.4033" x2="796.4033" y1="118.5938" y2="1497.4453"/></g></g><g class="participant-lifeline" data-entity-uid="part4" data-qualified-name="Cache" id="part4-lifeline"><g><title>.............. ...</title><rect fill="#000000" fill-opacity="0.00000" height="1378.8516" width="8" x="1068.1826" y="118.5938"/><line style="stroke:#181818;stroke-width:0.5;stroke-dasharray:5,5;" x1="1072.1748" x2="1072.1748" y1="118.5938" y2="1497.4453"/></g></g><g class="participant-lifeline" data-entity-uid="part5" data-qualified-name="ReservationStore" id="part5-lifeline"><g><title>......... ........</title><rect fill="#000000" fill-opacity="0.00000" height="1378.8516" width="8" x="1242.749" y="118.5938"/><line style="stroke:#181818;stroke-width:0.5;stroke-dasharray:5,5;" x1="1246.1904" x2="1246.1904" y1="118.5938" y2="1497.4453"/></g></g><g class="participant-lifeline" data-entity-uid="part6" data-qualified-name="EventStore" id="part6-lifeline"><g><title>......... .......</title><rect fill="#000000" fill-opacity="0.00000" height="1378.8516" width="8" x="1413.2617" y="118.5938"/><line style="stroke:#181818;stroke-width:0.5;stroke-dasharray:5,5;" x1="1416.3076" x2="1416.3076" y1="118.5938" y2="1497.4453"/></g></g><g class="participant-lifeline" data-entity-uid="part7" data-qualified-name="EventBus" id="part7-lifeline"><g><title>Event Bus</title><rect fill="#000000" fill-opacity="0.00000" height="1378.8516" width="8" x="1547.3799" y="118.5938"/><line style="stroke:#181818;stroke-width:0.5;stroke-dasharray:5,5;" x1="1551.2158" x2="1551.2158" y1="118.5938" y2="1497.4453"/></g></g><g class="participant participant-head" data-entity-uid="part1" data-qualified-name="Client" id="part1-head"><text fill="#000000" font-family="sans-serif" font-size="14" lengthAdjust="spacing" textLength="184.4336" x="40" y="115.292">&#1050;&#1083;&#1080;&#1077;&#1085;&#1090;&#1089;&#1082;&#1086;&#1077; &#1087;&#1088;&#1080;&#1083;&#1086;&#1078;&#1077;&#1085;&#1080;&#1077;</text><ellipse cx="135.2168" cy="50.7969" fill="#E2E2F0" rx="8" ry="8" style="stroke:#181818;stroke-width:0.5;"/><path d="M135.2168,58.7969 L135.2168,85.7969 M122.2168,66.7969 L148.2168,66.7969 M135.2168,85.7969 L122.2168,100.7969 M135.2168,85.7969 L148.2168,100.7969" fill="none" style="stroke:#181818;stroke-width:0.5;"/></g><g class="participant participant-tail" data-entity-uid="part1" data-qualified-name="Client" id="part1-tail"><text fill="#000000" font-family="sans-serif" font-size="14" lengthAdjust="spacing" textLength="184.4336" x="40" y="1509.4404">&#1050;&#1083;&#1080;&#1077;&#1085;&#1090;&#1089;&#1082;&#1086;&#1077; &#1087;&#1088;&#1080;&#1083;&#1086;&#1078;&#1077;&#1085;&#1080;&#1077;</text><ellipse cx="135.2168" cy="1521.2422" fill="#E2E2F0" rx="8" ry="8" style="stroke:#181818;stroke-width:0.5;"/><path d="M135.2168,1529.2422 L135.2168,1556.2422 M122.2168,1537.2422 L148.2168,1537.2422 M135.2168,1556.2422 L122.2168,1571.2422 M135.2168,1556.2422 L148.2168,1571.2422" fill="none" style="stroke:#181818;stroke-width:0.5;"/></g><g class="participant participant-head" data-entity-uid="part2" data-qualified-name="Gateway" id="part2-head"><rect fill="#E2E2F0" height="30.2969" rx="2.5" ry="2.5" style="stroke:#181818;stroke-width:0.5;" width="102.4434" x="378.2593" y="87.2969"/><text fill="#000000" font-family="sans-serif" font-size="14" lengthAdjust="spacing" textLength="88.4434" x="385.2593" y="107.292">API Gateway</text></g><g class="participant participant-tail" data-entity-uid="part2" data-qualified-name="Gateway" id="part2-tail"><rect fill="#E2E2F0" height="30.2969" rx="2.5" ry="2.5" style="stroke:#181818;stroke-width:0.5;" width="102.4434" x="378.2593" y="1496.4453"/><text fill="#000000" font-family="sans-serif" font-size="14" lengthAdjust="spacing" textLength="88.4434" x="385.2593" y="1516.4404">API Gateway</text></g><g class="participant participant-head" data-entity-uid="part3" data-qualified-name="ReservationService" id="part3-head"><rect fill="#E2E2F0" height="30.2969" rx="2.5" ry="2.5" style="stroke:#181818;stroke-width:0.5;" width="191.5225" x="701.4033" y="87.2969"/><text fill="#000000" font-family="sans-serif" font-size="14" lengthAdjust="spacing" textLength="177.5225" x="708.4033" y="107.292">&#1057;&#1077;&#1088;&#1074;&#1080;&#1089; &#1088;&#1077;&#1079;&#1077;&#1088;&#1074;&#1080;&#1088;&#1086;&#1074;&#1072;&#1085;&#1080;&#1103;</text></g><g class="participant participant-tail" data-entity-uid="part3" data-qualified-name="ReservationService" id="part3-tail"><rect fill="#E2E2F0" height="30.2969" rx="2.5" ry="2.5" style="stroke:#181818;stroke-width:0.5;" width="191.5225" x="701.4033" y="1496.4453"/><text fill="#000000" font-family="sans-serif" font-size="14" lengthAdjust="spacing" textLength="177.5225" x="708.4033" y="1516.4404">&#1057;&#1077;&#1088;&#1074;&#1080;&#1089; &#1088;&#1077;&#1079;&#1077;&#1088;&#1074;&#1080;&#1088;&#1086;&#1074;&#1072;&#1085;&#1080;&#1103;</text></g><g class="participant participant-head" data-entity-uid="part4" data-qualified-name="Cache" id="part4-head"><text fill="#000000" font-family="sans-serif" font-size="14" lengthAdjust="spacing" textLength="160.0156" x="989.1748" y="115.292">&#1056;&#1072;&#1089;&#1087;&#1088;&#1077;&#1076;&#1077;&#1083;&#1077;&#1085;&#1085;&#1099;&#1081; &#1082;&#1077;&#1096;</text><path d="M1054.1826,66.2969 C1054.1826,56.2969 1072.1826,56.2969 1072.1826,56.2969 C1072.1826,56.2969 1090.1826,56.2969 1090.1826,66.2969 L1090.1826,92.2969 C1090.1826,102.2969 1072.1826,102.2969 1072.1826,102.2969 C1072.1826,102.2969 1054.1826,102.2969 1054.1826,92.2969 L1054.1826,66.2969" fill="#E2E2F0" style="stroke:#181818;stroke-width:0.5;"/><path d="M1054.1826,66.2969 C1054.1826,76.2969 1072.1826,76.2969 1072.1826,76.2969 C1072.1826,76.2969 1090.1826,76.2969 1090.1826,66.2969" fill="none" style="stroke:#181818;stroke-width:0.5;"/></g><g class="participant participant-tail" data-entity-uid="part4" data-qualified-name="Cache" id="part4-tail"><text fill="#000000" font-family="sans-serif" font-size="14" lengthAdjust="spacing" textLength="160.0156" x="989.1748" y="1509.4404">&#1056;&#1072;&#1089;&#1087;&#1088;&#1077;&#1076;&#1077;&#1083;&#1077;&#1085;&#1085;&#1099;&#1081; &#1082;&#1077;&#1096;</text><path d="M1054.1826,1522.7422 C1054.1826,1512.7422 1072.1826,1512.7422 1072.1826,1512.7422 C1072.1826,1512.7422 1090.1826,1512.7422 1090.1826,1522.7422 L1090.1826,1548.7422 C1090.1826,1558.7422 1072.1826,1558.7422 1072.1826,1558.7422 C1072.1826,1558.7422 1054.1826,1558.7422 1054.1826,1548.7422 L1054.1826,1522.7422" fill="#E2E2F0" style="stroke:#181818;stroke-width:0.5;"/><path d="M1054.1826,1522.7422 C1054.1826,1532.7422 1072.1826,1532.7422 1072.1826,1532.7422 C1072.1826,1532.7422 1090.1826,1532.7422 1090.1826,1522.7422" fill="none" style="stroke:#181818;stroke-width:0.5;"/></g><g class="participant participant-head" data-entity-uid="part5" data-qualified-name="ReservationStore" id="part5-head"><text fill="#000000" font-family="sans-serif" font-size="14" lengthAdjust="spacing" textLength="157.1172" x="1165.1904" y="115.292">&#1061;&#1088;&#1072;&#1085;&#1080;&#1083;&#1080;&#1097;&#1077; &#1088;&#1077;&#1079;&#1077;&#1088;&#1074;&#1086;&#1074;</text><path d="M1228.749,66.2969 C1228.749,56.2969 1246.749,56.2969 1246.749,56.2969 C1246.749,56.2969 1264.749,56.2969 1264.749,66.2969 L1264.749,92.2969 C1264.749,102.2969 1246.749,102.2969 1246.749,102.2969 C1246.749,102.2969 1228.749,102.2969 1228.749,92.2969 L1228.749,66.2969" fill="#E2E2F0" style="stroke:#181818;stroke-width:0.5;"/><path d="M1228.749,66.2969 C1228.749,76.2969 1246.749,76.2969 1246.749,76.2969 C1246.749,76.2969 1264.749,76.2969 1264.749,66.2969" fill="none" style="stroke:#181818;stroke-width:0.5;"/></g><g class="participant participant-tail" data-entity-uid="part5" data-qualified-name="ReservationStore" id="part5-tail"><text fill="#000000" font-family="sans-serif" font-size="14" lengthAdjust="spacing" textLength="157.1172" x="1165.1904" y="1509.4404">&#1061;&#1088;&#1072;&#1085;&#1080;&#1083;&#1080;&#1097;&#1077; &#1088;&#1077;&#1079;&#1077;&#1088;&#1074;&#1086;&#1074;</text><path d="M1228.749,1522.7422 C1228.749,1512.7422 1246.749,1512.7422 1246.749,1512.7422 C1246.749,1512.7422 1264.749,1512.7422 1264.749,1522.7422 L1264.749,1548.7422 C1264.749,1558.7422 1246.749,1558.7422 1246.749,1558.7422 C1246.749,1558.7422 1228.749,1558.7422 1228.749,1548.7422 L1228.749,1522.7422" fill="#E2E2F0" style="stroke:#181818;stroke-width:0.5;"/><path d="M1228.749,1522.7422 C1228.749,1532.7422 1246.749,1532.7422 1246.749,1532.7422 C1246.749,1532.7422 1264.749,1532.7422 1264.749,1522.7422" fill="none" style="stroke:#181818;stroke-width:0.5;"/></g><g class="participant participant-head" data-entity-uid="part6" data-qualified-name="EventStore" id="part6-head"><text fill="#000000" font-family="sans-serif" font-size="14" lengthAdjust="spacing" textLength="151.9082" x="1338.3076" y="115.292">&#1061;&#1088;&#1072;&#1085;&#1080;&#1083;&#1080;&#1097;&#1077; &#1089;&#1086;&#1073;&#1099;&#1090;&#1080;&#1081;</text><path d="M1399.2617,66.2969 C1399.2617,56.2969 1417.2617,56.2969 1417.2617,56.2969 C1417.2617,56.2969 1435.2617,56.2969 1435.2617,66.2969 L1435.2617,92.2969 C1435.2617,102.2969 1417.2617,102.2969 1417.2617,102.2969 C1417.2617,102.2969 1399.2617,102.2969 1399.2617,92.2969 L1399.2617,66.2969" fill="#E2E2F0" style="stroke:#181818;stroke-width:0.5;"/><path d="M1399.2617,66.2969 C1399.2617,76.2969 1417.2617,76.2969 1417.2617,76.2969 C1417.2617,76.2969 1435.2617,76.2969 1435.2617,66.2969" fill="none" style="stroke:#181818;stroke-width:0.5;"/></g><g class="participant participant-tail" data-entity-uid="part6" data-qualified-name="EventStore" id="part6-tail"><text fill="#000000" font-family="sans-serif" font-size="14" lengthAdjust="spacing" textLength="151.9082" x="1338.3076" y="1509.4404">&#1061;&#1088;&#1072;&#1085;&#1080;&#1083;&#1080;&#1097;&#1077; &#1089;&#1086;&#1073;&#1099;&#1090;&#1080;&#1081;</text><path d="M1399.2617,1522.7422 C1399.2617,1512.7422 1417.2617,1512.7422 1417.2617,1512.7422 C1417.2617,1512.7422 1435.2617,1512.7422 1435.2617,1522.7422 L1435.2617,1548.7422 C1435.2617,1558.7422 1417.2617,1558.7422 1417.2617,1558.7422 C1417.2617,1558.7422 1399.2617,1558.7422 1399.2617,1548.7422 L1399.2617,1522.7422" fill="#E2E2F0" style="stroke:#181818;stroke-width:0.5;"/><path d="M1399.2617,1522.7422 C1399.2617,1532.7422 1417.2617,1532.7422 1417.2617,1532.7422 C1417.2617,1532.7422 1435.2617,1532.7422 1435.2617,1522.7422" fill="none" style="stroke:#181818;stroke-width:0.5;"/></g><g class="participant participant-head" data-entity-uid="part7" data-qualified-name="EventBus" id="part7-head"><path d="M1511.2158,92.2969 L1591.5439,92.2969 C1596.5439,92.2969 1596.5439,105.4453 1596.5439,105.4453 C1596.5439,105.4453 1596.5439,118.5938 1591.5439,118.5938 L1511.2158,118.5938 C1506.2158,118.5938 1506.2158,105.4453 1506.2158,105.4453 C1506.2158,105.4453 1506.2158,92.2969 1511.2158,92.2969" fill="#E2E2F0" style="stroke:#181818;stroke-width:0.5;"/><path d="M1591.5439,92.2969 C1586.5439,92.2969 1586.5439,105.4453 1586.5439,105.4453 C1586.5439,118.5938 1591.5439,118.5938 1591.5439,118.5938" fill="none" style="stroke:#181818;stroke-width:0.5;"/><text fill="#000000" font-family="sans-serif" font-size="14" lengthAdjust="spacing" textLength="70.3281" x="1511.2158" y="110.292">Event Bus</text></g><g class="participant participant-tail" data-entity-uid="part7" data-qualified-name="EventBus" id="part7-tail"><path d="M1511.2158,1496.4453 L1591.5439,1496.4453 C1596.5439,1496.4453 1596.5439,1509.5938 1596.5439,1509.5938 C1596.5439,1509.5938 1596.5439,1522.7422 1591.5439,1522.7422 L1511.2158,1522.7422 C1506.2158,1522.7422 1506.2158,1509.5938 1506.2158,1509.5938 C1506.2158,1509.5938 1506.2158,1496.4453 1511.2158,1496.4453" fill="#E2E2F0" style="stroke:#181818;stroke-width:0.5;"/><path d="M1591.5439,1496.4453 C1586.5439,1496.4453 1586.5439,1509.5938 1586.5439,1509.5938 C1586.5439,1522.7422 1591.5439,1522.7422 1591.5439,1522.7422" fill="none" style="stroke:#181818;stroke-width:0.5;"/><text fill="#000000" font-family="sans-serif" font-size="14" lengthAdjust="spacing" textLength="70.3281" x="1511.2158" y="1514.4404">Event Bus</text></g><g><title>API Gateway</title><rect fill="#FFFFFF" height="302.7266" style="stroke:#181818;stroke-width:1;" width="10" x="424.481" y="179.9922"/></g><g><title>...... ..............</title><rect fill="#FFFFFF" height="126.6641" style="stroke:#181818;stroke-width:1;" width="10" x="792.1646" y="311.7891"/></g><g><title>.............. ...</title><rect fill="#FFFFFF" height="53.2656" style="stroke:#181818;stroke-width:1;" width="10" x="1067.1826" y="570.9219"/></g><g><title>.............. ...</title><rect fill="#FFFFFF" height="59.3984" style="stroke:#181818;stroke-width:1;" width="10" x="1067.1826" y="800.9219"/></g><g><title>.............. ...</title><rect fill="#FFFFFF" height="29.1328" style="stroke:#181818;stroke-width:1;" width="10" x="1067.1826" y="913.5859"/></g><g><title>.............. ...</title><rect fill="#FFFFFF" height="29.1328" style="stroke:#181818;stroke-width:1;" width="10" x="1067.1826" y="1310.5156"/></g><g><title>......... ........</title><rect fill="#FFFFFF" height="53.2656" style="stroke:#181818;stroke-width:1;" width="10" x="1241.749" y="340.9219"/></g><g><title>......... ........</title><rect fill="#FFFFFF" height="29.1328" style="stroke:#181818;stroke-width:1;" width="10" x="1241.749" y="1120.5859"/></g><g><title>......... .......</title><rect fill="#FFFFFF" height="29.1328" style="stroke:#181818;stroke-width:1;" width="10" x="1412.2617" y="1178.8516"/></g><g><title>Event Bus</title><rect fill="#FFFFFF" height="29.1328" style="stroke:#181818;stroke-width:1;" width="10" x="1546.3799" y="1237.1172"/></g><g class="message" data-entity-1="part1" data-entity-2="part2" id="msg1"><polygon fill="#181818" points="412.481,175.9922,422.481,179.9922,412.481,183.9922,416.481,179.9922" style="stroke:#181818;stroke-width:1;"/><line style="stroke:#181818;stroke-width:1;" x1="135.2168" x2="418.481" y1="179.9922" y2="179.9922"/><text fill="#000000" font-family="sans-serif" font-size="13" lengthAdjust="spacing" textLength="168.124" x="142.2168" y="144.6606">POST /api/v1/reservations</text><text fill="#000000" font-family="sans-serif" font-size="13" lengthAdjust="spacing" textLength="79.5679" x="142.2168" y="159.7935">REST/HTTPS</text><text fill="#000000" font-family="sans-serif" font-size="13" lengthAdjust="spacing" textLength="114.0356" x="142.2168" y="174.9263">Idempotency-Key</text></g><g class="message" data-entity-1="part2" data-entity-2="part2" id="msg2"><line style="stroke:#181818;stroke-width:1;" x1="434.481" x2="476.481" y1="239.3906" y2="239.3906"/><line style="stroke:#181818;stroke-width:1;" x1="476.481" x2="476.481" y1="239.3906" y2="252.3906"/><line style="stroke:#181818;stroke-width:1;" x1="435.481" x2="476.481" y1="252.3906" y2="252.3906"/><polygon fill="#181818" points="445.481,248.3906,435.481,252.3906,445.481,256.3906,441.481,252.3906" style="stroke:#181818;stroke-width:1;"/><text fill="#000000" font-family="sans-serif" font-size="13" lengthAdjust="spacing" textLength="181.7715" x="441.481" y="204.0591">&#1055;&#1088;&#1086;&#1074;&#1077;&#1088;&#1082;&#1072; &#1090;&#1086;&#1082;&#1077;&#1085;&#1072; &#1076;&#1086;&#1089;&#1090;&#1091;&#1087;&#1072;,</text><text fill="#000000" font-family="sans-serif" font-size="13" lengthAdjust="spacing" textLength="105.0791" x="441.481" y="219.1919">&#1087;&#1088;&#1086;&#1074;&#1077;&#1088;&#1082;&#1072; &#1087;&#1088;&#1072;&#1074;,</text><text fill="#000000" font-family="sans-serif" font-size="13" lengthAdjust="spacing" textLength="215.3442" x="441.481" y="234.3247">&#1086;&#1075;&#1088;&#1072;&#1085;&#1080;&#1095;&#1077;&#1085;&#1080;&#1077; &#1095;&#1072;&#1089;&#1090;&#1086;&#1090;&#1099; &#1079;&#1072;&#1087;&#1088;&#1086;&#1089;&#1086;&#1074;</text></g><g class="message" data-entity-1="part2" data-entity-2="part3" id="msg3"><polygon fill="#181818" points="780.1646,307.7891,790.1646,311.7891,780.1646,315.7891,784.1646,311.7891" style="stroke:#181818;stroke-width:1;"/><line style="stroke:#181818;stroke-width:1;" x1="434.481" x2="786.1646" y1="311.7891" y2="311.7891"/><text fill="#000000" font-family="sans-serif" font-size="13" lengthAdjust="spacing" textLength="297.4893" x="441.481" y="276.4575">CreateReservation(skuId, storeId, qty, userId)</text><text fill="#000000" font-family="sans-serif" font-size="13" lengthAdjust="spacing" textLength="159.9038" x="441.481" y="291.5903">REST &#1080;&#1083;&#1080; gRPC / HTTP/2</text><text fill="#000000" font-family="sans-serif" font-size="13" lengthAdjust="spacing" textLength="114.0356" x="441.481" y="306.7231">Idempotency-Key</text></g><g class="message" data-entity-1="part3" data-entity-2="part5" id="msg4"><polygon fill="#181818" points="1229.749,336.9219,1239.749,340.9219,1229.749,344.9219,1233.749,340.9219" style="stroke:#181818;stroke-width:1;"/><line style="stroke:#181818;stroke-width:1;" x1="802.1646" x2="1235.749" y1="340.9219" y2="340.9219"/><text fill="#000000" font-family="sans-serif" font-size="13" lengthAdjust="spacing" textLength="183.8789" x="809.1646" y="335.856">&#1055;&#1088;&#1086;&#1074;&#1077;&#1088;&#1082;&#1072; Idempotency-Key</text></g><path d="M10,355.9219 L74.4429,355.9219 L74.4429,363.0547 L64.4429,373.0547 L10,373.0547 L10,355.9219" fill="#EEEEEE" style="stroke:#000000;stroke-width:1.5;"/><rect fill="none" height="1124.5234" style="stroke:#000000;stroke-width:1.5;" width="1616.5439" x="10" y="355.9219"/><text fill="#000000" font-family="sans-serif" font-size="13" font-weight="bold" lengthAdjust="spacing" textLength="19.4429" x="25" y="368.9888">alt</text><text fill="#000000" font-family="sans-serif" font-size="11" font-weight="bold" lengthAdjust="spacing" textLength="299.3901" x="89.4429" y="368.1323">[&#1055;&#1086;&#1074;&#1090;&#1086;&#1088;&#1085;&#1099;&#1081; &#1079;&#1072;&#1087;&#1088;&#1086;&#1089; &#1089; &#1090;&#1077;&#1084; &#1078;&#1077; Idempotency-Key]</text><g class="message" data-entity-1="part5" data-entity-2="part3" id="msg5"><polygon fill="#181818" points="813.1646,390.1875,803.1646,394.1875,813.1646,398.1875,809.1646,394.1875" style="stroke:#181818;stroke-width:1;"/><line style="stroke:#181818;stroke-width:1;stroke-dasharray:2,2;" x1="807.1646" x2="1245.749" y1="394.1875" y2="394.1875"/><text fill="#000000" font-family="sans-serif" font-size="13" lengthAdjust="spacing" textLength="193.1846" x="819.1646" y="389.1216">&#1056;&#1072;&#1085;&#1077;&#1077; &#1089;&#1086;&#1079;&#1076;&#1072;&#1085;&#1085;&#1099;&#1081; &#1088;&#1077;&#1079;&#1091;&#1083;&#1100;&#1090;&#1072;&#1090;</text></g><g class="message" data-entity-1="part3" data-entity-2="part2" id="msg6"><polygon fill="#181818" points="445.481,434.4531,435.481,438.4531,445.481,442.4531,441.481,438.4531" style="stroke:#181818;stroke-width:1;"/><line style="stroke:#181818;stroke-width:1;stroke-dasharray:2,2;" x1="439.481" x2="796.1646" y1="438.4531" y2="438.4531"/><text fill="#000000" font-family="sans-serif" font-size="13" lengthAdjust="spacing" textLength="47.7026" x="451.481" y="418.2544">200 OK</text><text fill="#000000" font-family="sans-serif" font-size="13" lengthAdjust="spacing" textLength="333.6836" x="451.481" y="433.3872">&#1056;&#1077;&#1079;&#1091;&#1083;&#1100;&#1090;&#1072;&#1090; &#1088;&#1072;&#1085;&#1077;&#1077; &#1074;&#1099;&#1087;&#1086;&#1083;&#1085;&#1077;&#1085;&#1085;&#1086;&#1075;&#1086; &#1088;&#1077;&#1079;&#1077;&#1088;&#1074;&#1080;&#1088;&#1086;&#1074;&#1072;&#1085;&#1080;&#1103;</text></g><g class="message" data-entity-1="part2" data-entity-2="part1" id="msg7"><polygon fill="#181818" points="146.2168,478.7188,136.2168,482.7188,146.2168,486.7188,142.2168,482.7188" style="stroke:#181818;stroke-width:1;"/><line style="stroke:#181818;stroke-width:1;stroke-dasharray:2,2;" x1="140.2168" x2="428.481" y1="482.7188" y2="482.7188"/><text fill="#000000" font-family="sans-serif" font-size="13" lengthAdjust="spacing" textLength="47.7026" x="152.2168" y="462.52">200 OK</text><text fill="#000000" font-family="sans-serif" font-size="13" lengthAdjust="spacing" textLength="129.7969" x="152.2168" y="477.6528">&#1056;&#1077;&#1079;&#1077;&#1088;&#1074; &#1091;&#1078;&#1077; &#1089;&#1086;&#1079;&#1076;&#1072;&#1085;</text></g><line style="stroke:#000000;stroke-width:1;stroke-dasharray:2,2;" x1="10" x2="1626.5439" y1="491.7188" y2="491.7188"/><text fill="#000000" font-family="sans-serif" font-size="11" font-weight="bold" lengthAdjust="spacing" textLength="98.6294" x="15" y="501.9292">[&#1053;&#1086;&#1074;&#1099;&#1081; &#1079;&#1072;&#1087;&#1088;&#1086;&#1089;]</text><g class="message" data-entity-1="part5" data-entity-2="part3" id="msg8"><polygon fill="#181818" points="808.1646,522.6563,798.1646,526.6563,808.1646,530.6563,804.1646,526.6563" style="stroke:#181818;stroke-width:1;"/><line style="stroke:#181818;stroke-width:1;stroke-dasharray:2,2;" x1="802.1646" x2="1245.749" y1="526.6563" y2="526.6563"/><text fill="#000000" font-family="sans-serif" font-size="13" lengthAdjust="spacing" textLength="200.0464" x="814.1646" y="521.5903">&#1047;&#1072;&#1087;&#1088;&#1086;&#1089; &#1088;&#1072;&#1085;&#1077;&#1077; &#1085;&#1077; &#1074;&#1099;&#1087;&#1086;&#1083;&#1085;&#1103;&#1083;&#1089;&#1103;</text></g><g class="message" data-entity-1="part3" data-entity-2="part4" id="msg9"><polygon fill="#181818" points="1055.1826,566.9219,1065.1826,570.9219,1055.1826,574.9219,1059.1826,570.9219" style="stroke:#181818;stroke-width:1;"/><line style="stroke:#181818;stroke-width:1;" x1="797.1646" x2="1061.1826" y1="570.9219" y2="570.9219"/><text fill="#000000" font-family="sans-serif" font-size="13" lengthAdjust="spacing" textLength="251.0181" x="804.1646" y="550.7231">&#1047;&#1072;&#1093;&#1074;&#1072;&#1090; &#1088;&#1072;&#1089;&#1087;&#1088;&#1077;&#1076;&#1077;&#1083;&#1077;&#1085;&#1085;&#1086;&#1081; &#1073;&#1083;&#1086;&#1082;&#1080;&#1088;&#1086;&#1074;&#1082;&#1080;</text><text fill="#000000" font-family="sans-serif" font-size="13" lengthAdjust="spacing" textLength="119.6216" x="804.1646" y="565.856">&#1087;&#1086; skuId + storeId</text></g><path d="M20,585.9219 L84.4429,585.9219 L84.4429,593.0547 L74.4429,603.0547 L20,603.0547 L20,585.9219" fill="#EEEEEE" style="stroke:#000000;stroke-width:1.5;"/><rect fill="none" height="887.5234" style="stroke:#000000;stroke-width:1.5;" width="1596.5439" x="20" y="585.9219"/><text fill="#000000" font-family="sans-serif" font-size="13" font-weight="bold" lengthAdjust="spacing" textLength="19.4429" x="35" y="598.9888">alt</text><text fill="#000000" font-family="sans-serif" font-size="11" font-weight="bold" lengthAdjust="spacing" textLength="169.646" x="99.4429" y="598.1323">[&#1041;&#1083;&#1086;&#1082;&#1080;&#1088;&#1086;&#1074;&#1082;&#1072; &#1085;&#1077; &#1087;&#1086;&#1083;&#1091;&#1095;&#1077;&#1085;&#1072;]</text><g class="message" data-entity-1="part4" data-entity-2="part3" id="msg10"><polygon fill="#181818" points="808.1646,620.1875,798.1646,624.1875,808.1646,628.1875,804.1646,624.1875" style="stroke:#181818;stroke-width:1;"/><line style="stroke:#181818;stroke-width:1;stroke-dasharray:2,2;" x1="802.1646" x2="1071.1826" y1="624.1875" y2="624.1875"/><text fill="#000000" font-family="sans-serif" font-size="13" lengthAdjust="spacing" textLength="83.8208" x="814.1646" y="619.1216">lock rejected</text></g><g class="message" data-entity-1="part3" data-entity-2="part2" id="msg11"><polygon fill="#181818" points="440.481,664.4531,430.481,668.4531,440.481,672.4531,436.481,668.4531" style="stroke:#181818;stroke-width:1;"/><line style="stroke:#181818;stroke-width:1;stroke-dasharray:2,2;" x1="434.481" x2="796.1646" y1="668.4531" y2="668.4531"/><text fill="#000000" font-family="sans-serif" font-size="13" lengthAdjust="spacing" textLength="78.2603" x="446.481" y="648.2544">409 Conflict</text><text fill="#000000" font-family="sans-serif" font-size="13" lengthAdjust="spacing" textLength="267.6299" x="446.481" y="663.3872">&#1056;&#1077;&#1079;&#1077;&#1088;&#1074;&#1080;&#1088;&#1086;&#1074;&#1072;&#1085;&#1080;&#1077; &#1074;&#1088;&#1077;&#1084;&#1077;&#1085;&#1085;&#1086; &#1085;&#1077;&#1076;&#1086;&#1089;&#1090;&#1091;&#1087;&#1085;&#1086;</text></g><g class="message" data-entity-1="part2" data-entity-2="part1" id="msg12"><polygon fill="#181818" points="146.2168,708.7188,136.2168,712.7188,146.2168,716.7188,142.2168,712.7188" style="stroke:#181818;stroke-width:1;"/><line style="stroke:#181818;stroke-width:1;stroke-dasharray:2,2;" x1="140.2168" x2="428.481" y1="712.7188" y2="712.7188"/><text fill="#000000" font-family="sans-serif" font-size="13" lengthAdjust="spacing" textLength="78.2603" x="152.2168" y="692.52">409 Conflict</text><text fill="#000000" font-family="sans-serif" font-size="13" lengthAdjust="spacing" textLength="120.0596" x="152.2168" y="707.6528">&#1055;&#1086;&#1074;&#1090;&#1086;&#1088;&#1080;&#1090;&#1100; &#1087;&#1086;&#1079;&#1078;&#1077;</text></g><line style="stroke:#000000;stroke-width:1;stroke-dasharray:2,2;" x1="20" x2="1616.5439" y1="721.7188" y2="721.7188"/><text fill="#000000" font-family="sans-serif" font-size="11" font-weight="bold" lengthAdjust="spacing" textLength="150.7559" x="25" y="731.9292">[&#1041;&#1083;&#1086;&#1082;&#1080;&#1088;&#1086;&#1074;&#1082;&#1072; &#1087;&#1086;&#1083;&#1091;&#1095;&#1077;&#1085;&#1072;]</text><g class="message" data-entity-1="part4" data-entity-2="part3" id="msg13"><polygon fill="#181818" points="808.1646,752.6563,798.1646,756.6563,808.1646,760.6563,804.1646,756.6563" style="stroke:#181818;stroke-width:1;"/><line style="stroke:#181818;stroke-width:1;stroke-dasharray:2,2;" x1="802.1646" x2="1071.1826" y1="756.6563" y2="756.6563"/><text fill="#000000" font-family="sans-serif" font-size="13" lengthAdjust="spacing" textLength="87.1851" x="814.1646" y="751.5903">lock acquired</text></g><g class="message" data-entity-1="part3" data-entity-2="part4" id="msg14"><polygon fill="#181818" points="1055.1826,796.9219,1065.1826,800.9219,1055.1826,804.9219,1059.1826,800.9219" style="stroke:#181818;stroke-width:1;"/><line style="stroke:#181818;stroke-width:1;" x1="797.1646" x2="1061.1826" y1="800.9219" y2="800.9219"/><text fill="#000000" font-family="sans-serif" font-size="13" lengthAdjust="spacing" textLength="190.8169" x="804.1646" y="780.7231">&#1063;&#1090;&#1077;&#1085;&#1080;&#1077; &#1076;&#1086;&#1089;&#1090;&#1091;&#1087;&#1085;&#1086;&#1075;&#1086; &#1086;&#1089;&#1090;&#1072;&#1090;&#1082;&#1072;</text><text fill="#000000" font-family="sans-serif" font-size="13" lengthAdjust="spacing" textLength="192.4165" x="804.1646" y="795.856">availability:{skuId}:{storeId}</text></g><g class="message" data-entity-1="part4" data-entity-2="part3" id="msg15"><polygon fill="#181818" points="808.1646,856.3203,798.1646,860.3203,808.1646,864.3203,804.1646,860.3203" style="stroke:#181818;stroke-width:1;"/><line style="stroke:#181818;stroke-width:1;stroke-dasharray:2,2;" x1="802.1646" x2="1071.1826" y1="860.3203" y2="860.3203"/><text fill="#000000" font-family="sans-serif" font-size="13" lengthAdjust="spacing" textLength="90.3525" x="814.1646" y="824.9888">available_qty,</text><text fill="#000000" font-family="sans-serif" font-size="13" lengthAdjust="spacing" textLength="89.0767" x="814.1646" y="840.1216">reserved_qty,</text><text fill="#000000" font-family="sans-serif" font-size="13" lengthAdjust="spacing" textLength="73.6201" x="814.1646" y="855.2544">updated_at</text></g><path d="M30,875.3203 L94.4429,875.3203 L94.4429,882.4531 L84.4429,892.4531 L30,892.4531 L30,875.3203" fill="#EEEEEE" style="stroke:#000000;stroke-width:1.5;"/><rect fill="none" height="591.125" style="stroke:#000000;stroke-width:1.5;" width="1576.5439" x="30" y="875.3203"/><text fill="#000000" font-family="sans-serif" font-size="13" font-weight="bold" lengthAdjust="spacing" textLength="19.4429" x="45" y="888.3872">alt</text><text fill="#000000" font-family="sans-serif" font-size="11" font-weight="bold" lengthAdjust="spacing" textLength="228.7979" x="109.4429" y="887.5308">[&#1044;&#1086;&#1089;&#1090;&#1091;&#1087;&#1085;&#1086;&#1075;&#1086; &#1086;&#1089;&#1090;&#1072;&#1090;&#1082;&#1072; &#1085;&#1077;&#1076;&#1086;&#1089;&#1090;&#1072;&#1090;&#1086;&#1095;&#1085;&#1086;]</text><g class="message" data-entity-1="part3" data-entity-2="part4" id="msg16"><polygon fill="#181818" points="1055.1826,909.5859,1065.1826,913.5859,1055.1826,917.5859,1059.1826,913.5859" style="stroke:#181818;stroke-width:1;"/><line style="stroke:#181818;stroke-width:1;" x1="797.1646" x2="1061.1826" y1="913.5859" y2="913.5859"/><text fill="#000000" font-family="sans-serif" font-size="13" lengthAdjust="spacing" textLength="187.4907" x="804.1646" y="908.52">&#1054;&#1089;&#1074;&#1086;&#1073;&#1086;&#1078;&#1076;&#1077;&#1085;&#1080;&#1077; &#1073;&#1083;&#1086;&#1082;&#1080;&#1088;&#1086;&#1074;&#1082;&#1080;</text></g><g class="message" data-entity-1="part4" data-entity-2="part3" id="msg17"><polygon fill="#181818" points="808.1646,938.7188,798.1646,942.7188,808.1646,946.7188,804.1646,942.7188" style="stroke:#181818;stroke-width:1;"/><line style="stroke:#181818;stroke-width:1;stroke-dasharray:2,2;" x1="802.1646" x2="1071.1826" y1="942.7188" y2="942.7188"/><text fill="#000000" font-family="sans-serif" font-size="13" lengthAdjust="spacing" textLength="18.7573" x="814.1646" y="937.6528">OK</text></g><g class="message" data-entity-1="part3" data-entity-2="part2" id="msg18"><polygon fill="#181818" points="440.481,982.9844,430.481,986.9844,440.481,990.9844,436.481,986.9844" style="stroke:#181818;stroke-width:1;"/><line style="stroke:#181818;stroke-width:1;stroke-dasharray:2,2;" x1="434.481" x2="796.1646" y1="986.9844" y2="986.9844"/><text fill="#000000" font-family="sans-serif" font-size="13" lengthAdjust="spacing" textLength="78.2603" x="446.481" y="966.7856">409 Conflict</text><text fill="#000000" font-family="sans-serif" font-size="13" lengthAdjust="spacing" textLength="236.9897" x="446.481" y="981.9185">&#1053;&#1077;&#1076;&#1086;&#1089;&#1090;&#1072;&#1090;&#1086;&#1095;&#1085;&#1086; &#1090;&#1086;&#1074;&#1072;&#1088;&#1072; &#1076;&#1083;&#1103; &#1088;&#1077;&#1079;&#1077;&#1088;&#1074;&#1072;</text></g><g class="message" data-entity-1="part2" data-entity-2="part1" id="msg19"><polygon fill="#181818" points="146.2168,1027.25,136.2168,1031.25,146.2168,1035.25,142.2168,1031.25" style="stroke:#181818;stroke-width:1;"/><line style="stroke:#181818;stroke-width:1;stroke-dasharray:2,2;" x1="140.2168" x2="428.481" y1="1031.25" y2="1031.25"/><text fill="#000000" font-family="sans-serif" font-size="13" lengthAdjust="spacing" textLength="78.2603" x="152.2168" y="1011.0513">409 Conflict</text><text fill="#000000" font-family="sans-serif" font-size="13" lengthAdjust="spacing" textLength="270.2642" x="152.2168" y="1026.1841">&#1058;&#1086;&#1074;&#1072;&#1088; &#1085;&#1077;&#1076;&#1086;&#1089;&#1090;&#1091;&#1087;&#1077;&#1085; &#1076;&#1083;&#1103; &#1088;&#1077;&#1079;&#1077;&#1088;&#1074;&#1080;&#1088;&#1086;&#1074;&#1072;&#1085;&#1080;&#1103;</text></g><line style="stroke:#000000;stroke-width:1;stroke-dasharray:2,2;" x1="30" x2="1606.5439" y1="1040.25" y2="1040.25"/><text fill="#000000" font-family="sans-serif" font-size="11" font-weight="bold" lengthAdjust="spacing" textLength="210.5684" x="35" y="1050.4604">[&#1044;&#1086;&#1089;&#1090;&#1091;&#1087;&#1085;&#1099;&#1081; &#1086;&#1089;&#1090;&#1072;&#1090;&#1086;&#1082; &#1076;&#1086;&#1089;&#1090;&#1072;&#1090;&#1086;&#1095;&#1077;&#1085;]</text><g class="message" data-entity-1="part3" data-entity-2="part5" id="msg20"><polygon fill="#181818" points="1229.749,1116.5859,1239.749,1120.5859,1229.749,1124.5859,1233.749,1120.5859" style="stroke:#181818;stroke-width:1;"/><line style="stroke:#181818;stroke-width:1;" x1="797.1646" x2="1235.749" y1="1120.5859" y2="1120.5859"/><text fill="#000000" font-family="sans-serif" font-size="13" lengthAdjust="spacing" textLength="125.1504" x="804.1646" y="1070.1216">INSERT reservation</text><text fill="#000000" font-family="sans-serif" font-size="13" lengthAdjust="spacing" textLength="110.0874" x="804.1646" y="1085.2544">status = ACTIVE,</text><text fill="#000000" font-family="sans-serif" font-size="13" lengthAdjust="spacing" textLength="71.3667" x="804.1646" y="1100.3872">expires_at,</text><text fill="#000000" font-family="sans-serif" font-size="13" lengthAdjust="spacing" textLength="114.0356" x="804.1646" y="1115.52">Idempotency-Key</text></g><g class="message" data-entity-1="part5" data-entity-2="part3" id="msg21"><polygon fill="#181818" points="808.1646,1145.7188,798.1646,1149.7188,808.1646,1153.7188,804.1646,1149.7188" style="stroke:#181818;stroke-width:1;"/><line style="stroke:#181818;stroke-width:1;stroke-dasharray:2,2;" x1="802.1646" x2="1245.749" y1="1149.7188" y2="1149.7188"/><text fill="#000000" font-family="sans-serif" font-size="13" lengthAdjust="spacing" textLength="86.106" x="814.1646" y="1144.6528">reservationId</text></g><g class="message" data-entity-1="part3" data-entity-2="part6" id="msg22"><polygon fill="#181818" points="1400.2617,1174.8516,1410.2617,1178.8516,1400.2617,1182.8516,1404.2617,1178.8516" style="stroke:#181818;stroke-width:1;"/><line style="stroke:#181818;stroke-width:1;" x1="797.1646" x2="1406.2617" y1="1178.8516" y2="1178.8516"/><text fill="#000000" font-family="sans-serif" font-size="13" lengthAdjust="spacing" textLength="186.0942" x="804.1646" y="1173.7856">APPEND ReservationCreated</text></g><g class="message" data-entity-1="part6" data-entity-2="part3" id="msg23"><polygon fill="#181818" points="808.1646,1203.9844,798.1646,1207.9844,808.1646,1211.9844,804.1646,1207.9844" style="stroke:#181818;stroke-width:1;"/><line style="stroke:#181818;stroke-width:1;stroke-dasharray:2,2;" x1="802.1646" x2="1416.2617" y1="1207.9844" y2="1207.9844"/><text fill="#000000" font-family="sans-serif" font-size="13" lengthAdjust="spacing" textLength="49.1118" x="814.1646" y="1202.9185">eventId</text></g><g class="message" data-entity-1="part3" data-entity-2="part7" id="msg24"><polygon fill="#181818" points="1534.3799,1233.1172,1544.3799,1237.1172,1534.3799,1241.1172,1538.3799,1237.1172" style="stroke:#181818;stroke-width:1;"/><line style="stroke:#181818;stroke-width:1;" x1="797.1646" x2="1540.3799" y1="1237.1172" y2="1237.1172"/><text fill="#000000" font-family="sans-serif" font-size="13" lengthAdjust="spacing" textLength="180.1401" x="804.1646" y="1232.0513">Publish ReservationCreated</text></g><g class="message" data-entity-1="part7" data-entity-2="part3" id="msg25"><polygon fill="#181818" points="808.1646,1262.25,798.1646,1266.25,808.1646,1270.25,804.1646,1266.25" style="stroke:#181818;stroke-width:1;"/><line style="stroke:#181818;stroke-width:1;stroke-dasharray:2,2;" x1="802.1646" x2="1550.3799" y1="1266.25" y2="1266.25"/><text fill="#000000" font-family="sans-serif" font-size="13" lengthAdjust="spacing" textLength="22.6421" x="814.1646" y="1261.1841">ack</text></g><g class="message" data-entity-1="part3" data-entity-2="part4" id="msg26"><polygon fill="#181818" points="1055.1826,1306.5156,1065.1826,1310.5156,1055.1826,1314.5156,1059.1826,1310.5156" style="stroke:#181818;stroke-width:1;"/><line style="stroke:#181818;stroke-width:1;" x1="797.1646" x2="1061.1826" y1="1310.5156" y2="1310.5156"/><text fill="#000000" font-family="sans-serif" font-size="13" lengthAdjust="spacing" textLength="216.9185" x="804.1646" y="1290.3169">&#1054;&#1073;&#1085;&#1086;&#1074;&#1083;&#1077;&#1085;&#1080;&#1077; &#1089;&#1095;&#1077;&#1090;&#1095;&#1080;&#1082;&#1086;&#1074; &#1088;&#1077;&#1079;&#1077;&#1088;&#1074;&#1072;</text><text fill="#000000" font-family="sans-serif" font-size="13" lengthAdjust="spacing" textLength="197.793" x="804.1646" y="1305.4497">&#1080; &#1086;&#1089;&#1074;&#1086;&#1073;&#1086;&#1078;&#1076;&#1077;&#1085;&#1080;&#1077; &#1073;&#1083;&#1086;&#1082;&#1080;&#1088;&#1086;&#1074;&#1082;&#1080;</text></g><g class="message" data-entity-1="part4" data-entity-2="part3" id="msg27"><polygon fill="#181818" points="808.1646,1335.6484,798.1646,1339.6484,808.1646,1343.6484,804.1646,1339.6484" style="stroke:#181818;stroke-width:1;"/><line style="stroke:#181818;stroke-width:1;stroke-dasharray:2,2;" x1="802.1646" x2="1071.1826" y1="1339.6484" y2="1339.6484"/><text fill="#000000" font-family="sans-serif" font-size="13" lengthAdjust="spacing" textLength="18.7573" x="814.1646" y="1334.5825">OK</text></g><g class="message" data-entity-1="part3" data-entity-2="part2" id="msg28"><polygon fill="#181818" points="440.481,1410.1797,430.481,1414.1797,440.481,1418.1797,436.481,1414.1797" style="stroke:#181818;stroke-width:1;"/><line style="stroke:#181818;stroke-width:1;stroke-dasharray:2,2;" x1="434.481" x2="796.1646" y1="1414.1797" y2="1414.1797"/><text fill="#000000" font-family="sans-serif" font-size="13" lengthAdjust="spacing" textLength="80.6787" x="446.481" y="1363.7153">201 Created</text><text fill="#000000" font-family="sans-serif" font-size="13" lengthAdjust="spacing" textLength="90.2383" x="446.481" y="1378.8481">reservationId,</text><text fill="#000000" font-family="sans-serif" font-size="13" lengthAdjust="spacing" textLength="71.3667" x="446.481" y="1393.981">expires_at,</text><text fill="#000000" font-family="sans-serif" font-size="13" lengthAdjust="spacing" textLength="39.9458" x="446.481" y="1409.1138">status</text></g><g class="message" data-entity-1="part2" data-entity-2="part1" id="msg29"><polygon fill="#181818" points="146.2168,1454.4453,136.2168,1458.4453,146.2168,1462.4453,142.2168,1458.4453" style="stroke:#181818;stroke-width:1;"/><line style="stroke:#181818;stroke-width:1;stroke-dasharray:2,2;" x1="140.2168" x2="428.481" y1="1458.4453" y2="1458.4453"/><text fill="#000000" font-family="sans-serif" font-size="13" lengthAdjust="spacing" textLength="80.6787" x="152.2168" y="1438.2466">201 Created</text><text fill="#000000" font-family="sans-serif" font-size="13" lengthAdjust="spacing" textLength="98.2617" x="152.2168" y="1453.3794">&#1056;&#1077;&#1079;&#1077;&#1088;&#1074; &#1089;&#1086;&#1079;&#1076;&#1072;&#1085;</text></g><?plantuml-src rLTRQnj757xNhpZugIKsSanVOcZ0LKKh3B6mH9y4ORmxRRRUhcJjoeaeWKWXfCK14oWK2cdTGkdhserYHOgKlp3xZthEpDvlajE-L5ZMxbpEVESxtpapunYEoK5SY8cu5XFlYRWIK_o_n5zNBCHKJC0RgrTiTYiLfZdTFco8NyISUiN26tiZCSCX4n3lSSmKEvRY3NNHW0rWDjHCWrjEfSVwZg4PFMOviB7NRC0NpE4FsL2EyP-JWyJl8QWHu4C1IkzScZZaDk-VCiVeMYryC3HUqPd3ZfZDqTG5kZ2I42VYDNxd4kB2EnDl0HsOU3yeh4nxa9Zt9pakdK6FlH-9aJWG195P72bQPMA44o-zCoHtAjvA0_LJv4XDFHdm0SwJBV3Pm8xwyQLIKNJ2rjs0j5re7hJQK6KzetfwkzgFeDWTwx3UQbU_RBURhOxLqFbtlQx3BMsujS-754q31_AG_Oh_a30kVlF99ezdmbMIc4d-N40obzu8PV1Kl1VkPiUI7CU7omPNN57VKlmTaE4z3qG2-EYI3RGqziu0oNML5SdJLG9MDigxKEjp713h-SW-7ZJqJR29JteuSOQRCC3-XlwnuWHKEE2RmsODga0CLNTAACfHLoNRbaP8w-SmkDOgKWiLPZeudsPBVfu4aern1FGtHZRV0MLUnZhW9sqOjWguf4J1i4m2bLvZWDqmKvJsCTPpxmKkwNfZQLtd9Hwabm-OYcjiPtiR3lPH81Tf--3hXG0X1sUeiYK6Rg7IbmGbbgMreGnW44WQ4ceCSQaKIyDIzW7HlKcnaruZp2TkOWKGhsJuqc6xOLn-ZWSyniaYHOntZkIDolqk3ynTLGNLcjupMVrL7F8gAAwAVbtAkZyBoSSdAWKO6vcAS2l8HRbg24gLMzL6Gd-PCUFw7ahllAT-rN3b5Ff82uMicLtj6FhyMwuvN0_dn5Y90LX7fvzitu5Qr_hQD3GdAOlCnean8QRU1In9FnBL4Xlp81K9j4YaAKpnMZ75bLuexgv9j7dBXLgbTgNNt2ZyYm0mxMHWz3yu094U_v9bpkStHQKi1Ag9z4gWEnOxPOR9ZWpJS8QxtqifFiPV9SN7uQefDEkvvjis-NtQNJgMsdUvxhyEUdW4m3VchE6s5FzFAnrAQ4WsBZ4USHsjvl1NJ68wjrpASzhhYC-S54wOBI1fDL47-ud1nInyG0Q-okSZSMmbgSozy-GkuHPXAak_DLFmZs3jRCuZsxbmyZQjLSaQ9Mn2EMgZYL4YPf3XQE9lMkMQoHvb6lTQzSCsnCwO7Sjsc3EmuLFOgxKRNzLH-_nH3_FTHkrlPezKkPhAx4v5u4etoHYiXhvEWAEDi9o8w7I-2tlDPltUv_61wlofvtiMEzZ7-wFcGcyu3Ids8sPuNG_m_e2NXS6HQTWFRkO0tJmoyB6nk3fgnwN0vLNc1bKBozD2PiWykZQCICWe--VuIdVGgrIAOofEPIRydmlUplPj_uAZ1tkCB_1qegay_2_hMcBjv24uVVejALPXhRAKmkYNlly0?></g></svg>