<?plantuml 1.2026.2?><svg xmlns="http://www.w3.org/2000/svg" xmlns:xlink="http://www.w3.org/1999/xlink" contentStyleType="text/css" data-diagram-type="CLASS" height="370px" preserveAspectRatio="none" style="width:291px;height:370px;background:#FFFFFF;" version="1.1" viewBox="0 0 291 370" width="291px" zoomAndPan="magnify"><title>&#1054;&#1073;&#1097;&#1072;&#1103; &#1089;&#1093;&#1077;&#1084;&#1072; Event Bus &#1089;&#1086;&#1073;&#1099;&#1090;&#1080;&#1103;</title><defs/><g><g class="title" data-source-line="1"><text fill="#000000" font-family="sans-serif" font-size="14" font-weight="bold" lengthAdjust="spacing" textLength="263.8809" x="10" y="22.9951">&#1054;&#1073;&#1097;&#1072;&#1103; &#1089;&#1093;&#1077;&#1084;&#1072; Event Bus &#1089;&#1086;&#1073;&#1099;&#1090;&#1080;&#1103;</text></g><!--class EventMessage--><g class="entity" data-qualified-name="EventMessage" data-source-line="3" id="ent0002"><rect fill="#F1F1F1" height="178.375" rx="2.5" ry="2.5" style="stroke:#181818;stroke-width:0.5;" width="206.3047" x="45.7881" y="44.2969"/><ellipse cx="77.7571" cy="60.2969" fill="#ADD1B2" rx="11" ry="11" style="stroke:#181818;stroke-width:1;"/><path d="M81.8665,66.2969 L74.1478,66.2969 L74.1478,53.9063 L81.8665,53.9063 L81.8665,56.0625 L76.6009,56.0625 L76.6009,58.7344 L81.3665,58.7344 L81.3665,60.8906 L76.6009,60.8906 L76.6009,64.1406 L81.8665,64.1406 L81.8665,66.2969 Z " fill="#000000"/><text fill="#000000" font-family="sans-serif" font-size="14" lengthAdjust="spacing" textLength="136.5957" x="95.528" y="65.1436">Event Bus &#1089;&#1086;&#1073;&#1099;&#1090;&#1080;&#1077;</text><line style="stroke:#181818;stroke-width:0.5;" x1="46.7881" x2="251.0928" y1="76.2969" y2="76.2969"/><g data-visibility-modifier="IE_MANDATORY"><ellipse cx="56.7881" cy="89.9453" fill="#000000" rx="3" ry="3" style="stroke:#000000;stroke-width:1;"/></g><text fill="#000000" font-family="sans-serif" font-size="14" lengthAdjust="spacing" textLength="108.6709" x="65.7881" y="93.292">event_id : UUID</text><line style="stroke:#181818;stroke-width:1;" x1="46.7881" x2="251.0928" y1="100.5938" y2="100.5938"/><text fill="#000000" font-family="sans-serif" font-size="14" lengthAdjust="spacing" textLength="131.9541" x="51.7881" y="117.5889">event_type : string</text><text fill="#000000" font-family="sans-serif" font-size="14" lengthAdjust="spacing" textLength="161.8887" x="51.7881" y="133.8857">event_version : integer</text><text fill="#000000" font-family="sans-serif" font-size="14" lengthAdjust="spacing" textLength="144.4707" x="51.7881" y="150.1826">correlation_id : UUID</text><text fill="#000000" font-family="sans-serif" font-size="14" lengthAdjust="spacing" textLength="145.8721" x="51.7881" y="166.4795">aggregate_id : string</text><text fill="#000000" font-family="sans-serif" font-size="14" lengthAdjust="spacing" textLength="194.3047" x="51.7881" y="182.7764">aggregate_version : integer</text><text fill="#000000" font-family="sans-serif" font-size="14" lengthAdjust="spacing" textLength="159.7285" x="51.7881" y="199.0732">occurred_at : datetime</text><text fill="#000000" font-family="sans-serif" font-size="14" lengthAdjust="spacing" textLength="100.6045" x="51.7881" y="215.3701">source : string</text></g><!--class Payload--><g class="entity" data-qualified-name="Payload" data-source-line="15" id="ent0003"><rect fill="#F1F1F1" height="64.2969" rx="2.5" ry="2.5" style="stroke:#181818;stroke-width:0.5;" width="173.4424" x="62.2181" y="299.6669"/><ellipse cx="77.2181" cy="315.6669" fill="#ADD1B2" rx="11" ry="11" style="stroke:#181818;stroke-width:1;"/><path d="M81.3275,321.6669 L73.6087,321.6669 L73.6087,309.2763 L81.3275,309.2763 L81.3275,311.4325 L76.0618,311.4325 L76.0618,314.1044 L80.8275,314.1044 L80.8275,316.2606 L76.0618,316.2606 L76.0618,319.5106 L81.3275,319.5106 L81.3275,321.6669 Z " fill="#000000"/><text fill="#000000" font-family="sans-serif" font-size="14" lengthAdjust="spacing" textLength="141.4424" x="91.2181" y="320.5136">&#1055;&#1086;&#1083;&#1077;&#1079;&#1085;&#1072;&#1103; &#1085;&#1072;&#1075;&#1088;&#1091;&#1079;&#1082;&#1072;</text><line style="stroke:#181818;stroke-width:0.5;" x1="63.2181" x2="234.6605" y1="331.6669" y2="331.6669"/><text fill="#000000" font-family="sans-serif" font-size="14" lengthAdjust="spacing" textLength="97.9111" x="68.2181" y="348.662">payload : json</text><line style="stroke:#181818;stroke-width:0.5;" x1="63.2181" x2="234.6605" y1="355.9638" y2="355.9638"/></g><!--link EventMessage to Payload--><g class="link" data-entity-1="ent0002" data-entity-2="ent0003" data-link-type="association" data-source-line="19" id="lnk4"><path codeLine="19" d="M148.9381,230.8869 C148.9381,258.1669 148.9381,270.4569 148.9381,291.2269" fill="none" id="EventMessage-Payload" style="stroke:#181818;stroke-width:1;"/><line style="stroke:#181818;stroke-width:1;" x1="144.9381" x2="152.9381" y1="226.8869" y2="226.8869"/><line style="stroke:#181818;stroke-width:1;" x1="144.9381" x2="152.9381" y1="229.8869" y2="229.8869"/><line style="stroke:#181818;stroke-width:1;" x1="148.9381" x2="148.9381" y1="230.8869" y2="222.8869"/><line style="stroke:#181818;stroke-width:1;" x1="152.9381" x2="144.9381" y1="295.2269" y2="295.2269"/><line style="stroke:#181818;stroke-width:1;" x1="152.9381" x2="144.9381" y1="292.2269" y2="292.2269"/><line style="stroke:#181818;stroke-width:1;" x1="148.9381" x2="148.9381" y1="291.2269" y2="299.2269"/><text fill="#000000" font-family="sans-serif" font-size="13" lengthAdjust="spacing" textLength="68.0723" x="149.9381" y="265.7338">&#1089;&#1086;&#1076;&#1077;&#1088;&#1078;&#1080;&#1090;</text></g><?plantuml-src RP3FIiD04CRlUOgXHo4laAFKWmV1IyzbIOPb9MRBxgGGZD1MF8Y7le6-GaIZuhzdc7qZ9uca5dhPNNxVpCT-7ndA4VY1dy8TDs4BOHrkkUKlRk1aYGN1SUa5yezCt8SDluTj50atLC7ay0It4r1-M3z3xvL6k8e0ZW0xD3SP932RdKw5nR4S0wPgWI9uSgRG8rsYyyOM8fY2KACJ9RNEOQv8-9wPqjgXLeG37Prs_92RJTDI_BAv8k6PZ96vH16yBLtwxqlNk-3yA74_fQSt_kvhwov-3gjm8-Y3cxw1SrNbLcLz-CNVEu4BRulEQw-VkexZkXutag7G5sx3Yb-bz4tq2m00?></g></svg>