<?plantuml 1.2026.2?><svg xmlns="http://www.w3.org/2000/svg" xmlns:xlink="http://www.w3.org/1999/xlink" contentStyleType="text/css" data-diagram-type="CLASS" height="474px" preserveAspectRatio="none" style="width:877px;height:474px;background:#FFFFFF;" version="1.1" viewBox="0 0 877 474" width="877px" zoomAndPan="magnify"><title>&#1059;&#1087;&#1088;&#1086;&#1097;&#1077;&#1085;&#1085;&#1072;&#1103; ER-&#1076;&#1080;&#1072;&#1075;&#1088;&#1072;&#1084;&#1084;&#1072; &#1086;&#1089;&#1085;&#1086;&#1074;&#1085;&#1099;&#1093; &#1089;&#1091;&#1097;&#1085;&#1086;&#1089;&#1090;&#1077;&#1081; &#1057;&#1077;&#1088;&#1074;&#1080;&#1089;&#1072;</title><defs/><g><g class="title" data-source-line="1"><text fill="#000000" font-family="sans-serif" font-size="14" font-weight="bold" lengthAdjust="spacing" textLength="469.7383" x="196.8517" y="22.9951">&#1059;&#1087;&#1088;&#1086;&#1097;&#1077;&#1085;&#1085;&#1072;&#1103; ER-&#1076;&#1080;&#1072;&#1075;&#1088;&#1072;&#1084;&#1084;&#1072; &#1086;&#1089;&#1085;&#1086;&#1074;&#1085;&#1099;&#1093; &#1089;&#1091;&#1097;&#1085;&#1086;&#1089;&#1090;&#1077;&#1081; &#1057;&#1077;&#1088;&#1074;&#1080;&#1089;&#1072;</text></g><!--class Store--><g class="entity" data-qualified-name="Store" data-source-line="3" id="ent0002"><rect fill="#F1F1F1" height="48" rx="2.5" ry="2.5" style="stroke:#181818;stroke-width:0.5;" width="94.2891" x="174.73" y="44.2969"/><ellipse cx="189.73" cy="60.2969" fill="#ADD1B2" rx="11" ry="11" style="stroke:#181818;stroke-width:1;"/><path d="M193.8394,66.2969 L186.1206,66.2969 L186.1206,53.9063 L193.8394,53.9063 L193.8394,56.0625 L188.5738,56.0625 L188.5738,58.7344 L193.3394,58.7344 L193.3394,60.8906 L188.5738,60.8906 L188.5738,64.1406 L193.8394,64.1406 L193.8394,66.2969 Z " fill="#000000"/><text fill="#000000" font-family="sans-serif" font-size="14" lengthAdjust="spacing" textLength="62.2891" x="203.73" y="65.1436">&#1052;&#1072;&#1075;&#1072;&#1079;&#1080;&#1085;</text><line style="stroke:#181818;stroke-width:0.5;" x1="175.73" x2="268.0191" y1="76.2969" y2="76.2969"/><line style="stroke:#181818;stroke-width:0.5;" x1="175.73" x2="268.0191" y1="84.2969" y2="84.2969"/></g><!--class Product--><g class="entity" data-qualified-name="Product" data-source-line="5" id="ent0003"><rect fill="#F1F1F1" height="48" rx="2.5" ry="2.5" style="stroke:#181818;stroke-width:0.5;" width="74.834" x="360.45" y="44.2969"/><ellipse cx="375.45" cy="60.2969" fill="#ADD1B2" rx="11" ry="11" style="stroke:#181818;stroke-width:1;"/><path d="M379.5594,66.2969 L371.8406,66.2969 L371.8406,53.9063 L379.5594,53.9063 L379.5594,56.0625 L374.2938,56.0625 L374.2938,58.7344 L379.0594,58.7344 L379.0594,60.8906 L374.2938,60.8906 L374.2938,64.1406 L379.5594,64.1406 L379.5594,66.2969 Z " fill="#000000"/><text fill="#000000" font-family="sans-serif" font-size="14" lengthAdjust="spacing" textLength="42.834" x="389.45" y="65.1436">&#1058;&#1086;&#1074;&#1072;&#1088;</text><line style="stroke:#181818;stroke-width:0.5;" x1="361.45" x2="434.284" y1="76.2969" y2="76.2969"/><line style="stroke:#181818;stroke-width:0.5;" x1="361.45" x2="434.284" y1="84.2969" y2="84.2969"/></g><!--class Stock--><g class="entity" data-qualified-name="Stock" data-source-line="7" id="ent0004"><rect fill="#F1F1F1" height="48" rx="2.5" ry="2.5" style="stroke:#181818;stroke-width:0.5;" width="92.6279" x="452.56" y="169.2969"/><ellipse cx="467.56" cy="185.2969" fill="#ADD1B2" rx="11" ry="11" style="stroke:#181818;stroke-width:1;"/><path d="M471.6694,191.2969 L463.9506,191.2969 L463.9506,178.9063 L471.6694,178.9063 L471.6694,181.0625 L466.4038,181.0625 L466.4038,183.7344 L471.1694,183.7344 L471.1694,185.8906 L466.4038,185.8906 L466.4038,189.1406 L471.6694,189.1406 L471.6694,191.2969 Z " fill="#000000"/><text fill="#000000" font-family="sans-serif" font-size="14" lengthAdjust="spacing" textLength="60.6279" x="481.56" y="190.1436">&#1054;&#1089;&#1090;&#1072;&#1090;&#1086;&#1082;</text><line style="stroke:#181818;stroke-width:0.5;" x1="453.56" x2="544.1879" y1="201.2969" y2="201.2969"/><line style="stroke:#181818;stroke-width:0.5;" x1="453.56" x2="544.1879" y1="209.2969" y2="209.2969"/></g><!--class Reservation--><g class="entity" data-qualified-name="Reservation" data-source-line="9" id="ent0005"><rect fill="#F1F1F1" height="48" rx="2.5" ry="2.5" style="stroke:#181818;stroke-width:0.5;" width="82.251" x="509.74" y="294.2969"/><ellipse cx="524.74" cy="310.2969" fill="#ADD1B2" rx="11" ry="11" style="stroke:#181818;stroke-width:1;"/><path d="M528.8494,316.2969 L521.1306,316.2969 L521.1306,303.9063 L528.8494,303.9063 L528.8494,306.0625 L523.5838,306.0625 L523.5838,308.7344 L528.3494,308.7344 L528.3494,310.8906 L523.5838,310.8906 L523.5838,314.1406 L528.8494,314.1406 L528.8494,316.2969 Z " fill="#000000"/><text fill="#000000" font-family="sans-serif" font-size="14" lengthAdjust="spacing" textLength="50.251" x="538.74" y="315.1436">&#1056;&#1077;&#1079;&#1077;&#1088;&#1074;</text><line style="stroke:#181818;stroke-width:0.5;" x1="510.74" x2="590.991" y1="326.2969" y2="326.2969"/><line style="stroke:#181818;stroke-width:0.5;" x1="510.74" x2="590.991" y1="334.2969" y2="334.2969"/></g><!--class ReservationOperation--><g class="entity" data-qualified-name="ReservationOperation" data-source-line="11" id="ent0006"><rect fill="#F1F1F1" height="48" rx="2.5" ry="2.5" style="stroke:#181818;stroke-width:0.5;" width="230.502" x="435.62" y="419.2969"/><ellipse cx="450.62" cy="435.2969" fill="#ADD1B2" rx="11" ry="11" style="stroke:#181818;stroke-width:1;"/><path d="M454.7294,441.2969 L447.0106,441.2969 L447.0106,428.9063 L454.7294,428.9063 L454.7294,431.0625 L449.4638,431.0625 L449.4638,433.7344 L454.2294,433.7344 L454.2294,435.8906 L449.4638,435.8906 L449.4638,439.1406 L454.7294,439.1406 L454.7294,441.2969 Z " fill="#000000"/><text fill="#000000" font-family="sans-serif" font-size="14" lengthAdjust="spacing" textLength="198.502" x="464.62" y="440.1436">&#1054;&#1087;&#1077;&#1088;&#1072;&#1094;&#1080;&#1103; &#1088;&#1077;&#1079;&#1077;&#1088;&#1074;&#1080;&#1088;&#1086;&#1074;&#1072;&#1085;&#1080;&#1103;</text><line style="stroke:#181818;stroke-width:0.5;" x1="436.62" x2="665.122" y1="451.2969" y2="451.2969"/><line style="stroke:#181818;stroke-width:0.5;" x1="436.62" x2="665.122" y1="459.2969" y2="459.2969"/></g><!--class StockEvent--><g class="entity" data-qualified-name="StockEvent" data-source-line="13" id="ent0007"><rect fill="#F1F1F1" height="48" rx="2.5" ry="2.5" style="stroke:#181818;stroke-width:0.5;" width="243.1416" x="627.3" y="294.2969"/><ellipse cx="642.3" cy="310.2969" fill="#ADD1B2" rx="11" ry="11" style="stroke:#181818;stroke-width:1;"/><path d="M646.4094,316.2969 L638.6906,316.2969 L638.6906,303.9063 L646.4094,303.9063 L646.4094,306.0625 L641.1438,306.0625 L641.1438,308.7344 L645.9094,308.7344 L645.9094,310.8906 L641.1438,310.8906 L641.1438,314.1406 L646.4094,314.1406 L646.4094,316.2969 Z " fill="#000000"/><text fill="#000000" font-family="sans-serif" font-size="14" lengthAdjust="spacing" textLength="211.1416" x="656.3" y="315.1436">&#1057;&#1086;&#1073;&#1099;&#1090;&#1080;&#1077; &#1080;&#1079;&#1084;&#1077;&#1085;&#1077;&#1085;&#1080;&#1103; &#1086;&#1089;&#1090;&#1072;&#1090;&#1082;&#1072;</text><line style="stroke:#181818;stroke-width:0.5;" x1="628.3" x2="869.4416" y1="326.2969" y2="326.2969"/><line style="stroke:#181818;stroke-width:0.5;" x1="628.3" x2="869.4416" y1="334.2969" y2="334.2969"/></g><!--class ReconciliationConflict--><g class="entity" data-qualified-name="ReconciliationConflict" data-source-line="15" id="ent0008"><rect fill="#F1F1F1" height="48" rx="2.5" ry="2.5" style="stroke:#181818;stroke-width:0.5;" width="161.7393" x="7" y="169.2969"/><ellipse cx="22" cy="185.2969" fill="#ADD1B2" rx="11" ry="11" style="stroke:#181818;stroke-width:1;"/><path d="M26.1094,191.2969 L18.3906,191.2969 L18.3906,178.9063 L26.1094,178.9063 L26.1094,181.0625 L20.8438,181.0625 L20.8438,183.7344 L25.6094,183.7344 L25.6094,185.8906 L20.8438,185.8906 L20.8438,189.1406 L26.1094,189.1406 L26.1094,191.2969 Z " fill="#000000"/><text fill="#000000" font-family="sans-serif" font-size="14" lengthAdjust="spacing" textLength="129.7393" x="36" y="190.1436">&#1050;&#1086;&#1085;&#1092;&#1083;&#1080;&#1082;&#1090; &#1089;&#1074;&#1077;&#1088;&#1082;&#1080;</text><line style="stroke:#181818;stroke-width:0.5;" x1="8" x2="167.7393" y1="201.2969" y2="201.2969"/><line style="stroke:#181818;stroke-width:0.5;" x1="8" x2="167.7393" y1="209.2969" y2="209.2969"/></g><!--class ReadModelSnapshot--><g class="entity" data-qualified-name="ReadModelSnapshot" data-source-line="17" id="ent0009"><rect fill="#F1F1F1" height="48" rx="2.5" ry="2.5" style="stroke:#181818;stroke-width:0.5;" width="213.5283" x="204.11" y="169.2969"/><ellipse cx="219.11" cy="185.2969" fill="#ADD1B2" rx="11" ry="11" style="stroke:#181818;stroke-width:1;"/><path d="M223.2194,191.2969 L215.5006,191.2969 L215.5006,178.9063 L223.2194,178.9063 L223.2194,181.0625 L217.9538,181.0625 L217.9538,183.7344 L222.7194,183.7344 L222.7194,185.8906 L217.9538,185.8906 L217.9538,189.1406 L223.2194,189.1406 L223.2194,191.2969 Z " fill="#000000"/><text fill="#000000" font-family="sans-serif" font-size="14" lengthAdjust="spacing" textLength="181.5283" x="233.11" y="190.1436">Snapshot &#1084;&#1086;&#1076;&#1077;&#1083;&#1080; &#1095;&#1090;&#1077;&#1085;&#1080;&#1103;</text><line style="stroke:#181818;stroke-width:0.5;" x1="205.11" x2="416.6383" y1="201.2969" y2="201.2969"/><line style="stroke:#181818;stroke-width:0.5;" x1="205.11" x2="416.6383" y1="209.2969" y2="209.2969"/></g><!--class SnapshotStock--><g class="entity" data-qualified-name="SnapshotStock" data-source-line="19" id="ent0010"><rect fill="#F1F1F1" height="48" rx="2.5" ry="2.5" style="stroke:#181818;stroke-width:0.5;" width="253.6895" x="209.02" y="294.2969"/><ellipse cx="224.02" cy="310.2969" fill="#ADD1B2" rx="11" ry="11" style="stroke:#181818;stroke-width:1;"/><path d="M228.1294,316.2969 L220.4106,316.2969 L220.4106,303.9063 L228.1294,303.9063 L228.1294,306.0625 L222.8638,306.0625 L222.8638,308.7344 L227.6294,308.7344 L227.6294,310.8906 L222.8638,310.8906 L222.8638,314.1406 L228.1294,314.1406 L228.1294,316.2969 Z " fill="#000000"/><text fill="#000000" font-family="sans-serif" font-size="14" lengthAdjust="spacing" textLength="221.6895" x="238.02" y="315.1436">&#1057;&#1086;&#1089;&#1090;&#1086;&#1103;&#1085;&#1080;&#1077; &#1086;&#1089;&#1090;&#1072;&#1090;&#1082;&#1072; &#1074; snapshot</text><line style="stroke:#181818;stroke-width:0.5;" x1="210.02" x2="461.7095" y1="326.2969" y2="326.2969"/><line style="stroke:#181818;stroke-width:0.5;" x1="210.02" x2="461.7095" y1="334.2969" y2="334.2969"/></g><!--link Store to Stock--><g class="link" data-entity-1="ent0002" data-entity-2="ent0004" data-link-type="crowfoot" data-source-line="21" id="lnk11"><path codeLine="21" d="M229.6264,100.3889 C234.4664,116.0189 240.83,128.0469 255.87,139.2969 C320.46,187.6169 356.82,148.9069 434.87,169.2969 C440.58,170.7869 429.3917,166.9815 435.2317,168.8915" fill="none" id="Store-Stock" style="stroke:#181818;stroke-width:1;"/><line style="stroke:#181818;stroke-width:1;" x1="224.6222" x2="232.2642" y1="97.7511" y2="95.3847"/><line style="stroke:#181818;stroke-width:1;" x1="225.5096" x2="233.1516" y1="100.6168" y2="98.2504"/><line style="stroke:#181818;stroke-width:1;" x1="229.6264" x2="227.26" y1="100.3889" y2="92.7469"/><line style="stroke:#181818;stroke-width:1;" x1="444.7363" x2="454.2051" y1="172.0001" y2="168.7841"/><line style="stroke:#181818;stroke-width:1;" x1="444.7363" x2="450.4749" y1="172.0001" y2="180.1896"/><line style="stroke:#181818;stroke-width:1;" x1="444.7363" x2="452.34" y1="172.0001" y2="174.4869"/><ellipse cx="439.0336" cy="170.1349" fill="none" rx="4" ry="4" style="stroke:#181818;stroke-width:1;"/><text fill="#000000" font-family="sans-serif" font-size="13" lengthAdjust="spacing" textLength="68.0723" x="256.87" y="135.3638">&#1089;&#1086;&#1076;&#1077;&#1088;&#1078;&#1080;&#1090;</text></g><!--link Product to Stock--><g class="link" data-entity-1="ent0003" data-entity-2="ent0004" data-link-type="crowfoot" data-source-line="22" id="lnk12"><path codeLine="22" d="M432.536,97.9443 C442.416,106.7043 447.18,111.7869 455.87,122.2969 C467.77,136.6969 469.9792,138.9683 477.8692,153.1083" fill="none" id="Product-Stock" style="stroke:#181818;stroke-width:1;"/><line style="stroke:#181818;stroke-width:1;" x1="426.8893" x2="432.1967" y1="98.2835" y2="92.2976"/><line style="stroke:#181818;stroke-width:1;" x1="429.134" x2="434.4414" y1="100.2738" y2="94.2879"/><line style="stroke:#181818;stroke-width:1;" x1="432.536" x2="426.55" y1="97.9443" y2="92.6369"/><line style="stroke:#181818;stroke-width:1;" x1="482.7419" x2="491.8795" y1="161.8409" y2="165.9033"/><line style="stroke:#181818;stroke-width:1;" x1="482.7419" x2="481.4005" y1="161.8409" y2="171.7505"/><line style="stroke:#181818;stroke-width:1;" x1="482.7419" x2="486.64" y1="161.8409" y2="168.8269"/><ellipse cx="479.8183" cy="156.6013" fill="none" rx="4" ry="4" style="stroke:#181818;stroke-width:1;"/><text fill="#000000" font-family="sans-serif" font-size="13" lengthAdjust="spacing" textLength="100.6865" x="468.99" y="135.3638">&#1087;&#1088;&#1077;&#1076;&#1089;&#1090;&#1072;&#1074;&#1083;&#1077;&#1085; &#1074;</text></g><!--link Stock to Reservation--><g class="link" data-entity-1="ent0004" data-entity-2="ent0005" data-link-type="crowfoot" data-source-line="23" id="lnk13"><path codeLine="23" d="M514.4746,224.7039 C519.0546,233.8739 520.62,237.4069 524.87,247.2969 C531.47,262.6569 531.9918,263.3563 536.8718,277.0863" fill="none" id="Stock-Reservation" style="stroke:#181818;stroke-width:1;"/><line style="stroke:#181818;stroke-width:1;" x1="509.1088" x2="516.2658" y1="222.9127" y2="219.3381"/><line style="stroke:#181818;stroke-width:1;" x1="510.4493" x2="517.6063" y1="225.5965" y2="222.0219"/><line style="stroke:#181818;stroke-width:1;" x1="514.4746" x2="510.9" y1="224.7039" y2="217.5469"/><line style="stroke:#181818;stroke-width:1;" x1="540.2208" x2="548.5535" y1="286.5088" y2="292.0375"/><line style="stroke:#181818;stroke-width:1;" x1="540.2208" x2="537.2465" y1="286.5088" y2="296.0563"/><line style="stroke:#181818;stroke-width:1;" x1="540.2208" x2="542.9" y1="286.5088" y2="294.0469"/><ellipse cx="538.2114" cy="280.8553" fill="none" rx="4" ry="4" style="stroke:#181818;stroke-width:1;"/><text fill="#000000" font-family="sans-serif" font-size="13" lengthAdjust="spacing" textLength="57.2876" x="532.09" y="260.3638">&#1089;&#1074;&#1103;&#1079;&#1072;&#1085; &#1089;</text></g><!--link Reservation to ReservationOperation--><g class="link" data-entity-1="ent0005" data-entity-2="ent0006" data-link-type="crowfoot" data-source-line="24" id="lnk14"><path codeLine="24" d="M550.87,350.7169 C550.87,372.6069 550.87,379.0969 550.87,400.9569" fill="none" id="Reservation-ReservationOperation" style="stroke:#181818;stroke-width:1;"/><line style="stroke:#181818;stroke-width:1;" x1="546.87" x2="554.87" y1="346.7169" y2="346.7169"/><line style="stroke:#181818;stroke-width:1;" x1="546.87" x2="554.87" y1="349.7169" y2="349.7169"/><line style="stroke:#181818;stroke-width:1;" x1="550.87" x2="550.87" y1="350.7169" y2="342.7169"/><line style="stroke:#181818;stroke-width:1;" x1="550.87" x2="556.87" y1="410.9569" y2="418.9569"/><line style="stroke:#181818;stroke-width:1;" x1="550.87" x2="544.87" y1="410.9569" y2="418.9569"/><line style="stroke:#181818;stroke-width:1;" x1="550.87" x2="550.87" y1="410.9569" y2="418.9569"/><ellipse cx="550.87" cy="404.9569" fill="none" rx="4" ry="4" style="stroke:#181818;stroke-width:1;"/><text fill="#000000" font-family="sans-serif" font-size="13" lengthAdjust="spacing" textLength="68.0723" x="551.87" y="385.3638">&#1089;&#1086;&#1076;&#1077;&#1088;&#1078;&#1080;&#1090;</text></g><!--link Stock to StockEvent--><g class="link" data-entity-1="ent0004" data-entity-2="ent0007" data-link-type="crowfoot" data-source-line="25" id="lnk15"><path codeLine="25" d="M552.7785,220.8181 C597.2985,242.7181 640.6486,264.0512 685.3686,286.0512" fill="none" id="Stock-StockEvent" style="stroke:#181818;stroke-width:1;"/><line style="stroke:#181818;stroke-width:1;" x1="547.4236" x2="550.9548" y1="222.6417" y2="215.4632"/><line style="stroke:#181818;stroke-width:1;" x1="550.1156" x2="553.6468" y1="223.9659" y2="216.7874"/><line style="stroke:#181818;stroke-width:1;" x1="552.7785" x2="545.6" y1="220.8181" y2="217.2869"/><line style="stroke:#181818;stroke-width:1;" x1="694.3416" x2="704.1686" y1="290.4655" y2="288.6131"/><line style="stroke:#181818;stroke-width:1;" x1="694.3416" x2="698.8714" y1="290.4655" y2="299.3807"/><line style="stroke:#181818;stroke-width:1;" x1="694.3416" x2="701.52" y1="290.4655" y2="293.9969"/><ellipse cx="688.9578" cy="287.8169" fill="none" rx="4" ry="4" style="stroke:#181818;stroke-width:1;"/><text fill="#000000" font-family="sans-serif" font-size="13" lengthAdjust="spacing" textLength="76.8955" x="639.84" y="260.3638">&#1087;&#1086;&#1088;&#1086;&#1078;&#1076;&#1072;&#1077;&#1090;</text></g><!--link Product to ReconciliationConflict--><g class="link" data-entity-1="ent0003" data-entity-2="ent0008" data-link-type="crowfoot" data-source-line="26" id="lnk16"><path codeLine="26" d="M376.192,98.9395 C363.792,114.5395 350.5,127.9369 329.87,139.2969 C272.98,170.6169 250.28,155.2769 186.87,169.2969 C181.1,170.5769 192.6933,167.9215 186.7033,169.2815" fill="none" id="Product-ReconciliationConflict" style="stroke:#181818;stroke-width:1;"/><line style="stroke:#181818;stroke-width:1;" x1="375.5497" x2="381.8123" y1="93.3192" y2="98.2971"/><line style="stroke:#181818;stroke-width:1;" x1="373.683" x2="379.9456" y1="95.6677" y2="100.6456"/><line style="stroke:#181818;stroke-width:1;" x1="376.192" x2="381.17" y1="98.9395" y2="92.6769"/><line style="stroke:#181818;stroke-width:1;" x1="176.9514" x2="170.4785" y1="171.4956" y2="179.118"/><line style="stroke:#181818;stroke-width:1;" x1="176.9514" x2="167.8215" y1="171.4956" y2="167.4158"/><line style="stroke:#181818;stroke-width:1;" x1="176.9514" x2="169.15" y1="171.4956" y2="173.2669"/><ellipse cx="182.8025" cy="170.1671" fill="none" rx="4" ry="4" style="stroke:#181818;stroke-width:1;"/><text fill="#000000" font-family="sans-serif" font-size="13" lengthAdjust="spacing" textLength="80.7803" x="352.53" y="135.3638">&#1091;&#1095;&#1072;&#1089;&#1090;&#1074;&#1091;&#1077;&#1090; &#1074;</text></g><!--link Store to ReconciliationConflict--><g class="link" data-entity-1="ent0002" data-entity-2="ent0008" data-link-type="crowfoot" data-source-line="27" id="lnk17"><path codeLine="27" d="M167.2855,92.8947 C150.8855,101.3847 140.35,108.8069 126.87,122.2969 C113.59,135.5769 110.8218,137.8867 104.2218,152.6367" fill="none" id="Store-ReconciliationConflict" style="stroke:#181818;stroke-width:1;"/><line style="stroke:#181818;stroke-width:1;" x1="168.9988" x2="172.6767" y1="87.5036" y2="94.608"/><line style="stroke:#181818;stroke-width:1;" x1="166.3347" x2="170.0125" y1="88.8828" y2="95.9872"/><line style="stroke:#181818;stroke-width:1;" x1="167.2855" x2="174.39" y1="92.8947" y2="89.2169"/><line style="stroke:#181818;stroke-width:1;" x1="100.1375" x2="102.3467" y1="161.7646" y2="171.5175"/><line style="stroke:#181818;stroke-width:1;" x1="100.1375" x2="91.3933" y1="161.7646" y2="166.6163"/><line style="stroke:#181818;stroke-width:1;" x1="100.1375" x2="96.87" y1="161.7646" y2="169.0669"/><ellipse cx="102.5881" cy="156.2878" fill="none" rx="4" ry="4" style="stroke:#181818;stroke-width:1;"/><text fill="#000000" font-family="sans-serif" font-size="13" lengthAdjust="spacing" textLength="80.7803" x="127.87" y="135.3638">&#1091;&#1095;&#1072;&#1089;&#1090;&#1074;&#1091;&#1077;&#1090; &#1074;</text></g><!--link ReadModelSnapshot to SnapshotStock--><g class="link" data-entity-1="ent0009" data-entity-2="ent0010" data-link-type="crowfoot" data-source-line="28" id="lnk18"><path codeLine="28" d="M305.6141,225.5759 C303.9041,239.3459 304.09,249.0669 307.87,264.2969 C310.42,274.5969 306.5144,269.4472 311.5644,278.3572" fill="none" id="ReadModelSnapshot-SnapshotStock" style="stroke:#181818;stroke-width:1;"/><line style="stroke:#181818;stroke-width:1;" x1="302.1375" x2="310.0766" y1="221.1134" y2="222.0993"/><line style="stroke:#181818;stroke-width:1;" x1="301.7678" x2="309.7069" y1="224.0906" y2="225.0765"/><line style="stroke:#181818;stroke-width:1;" x1="305.6141" x2="306.6" y1="225.5759" y2="217.6369"/><line style="stroke:#181818;stroke-width:1;" x1="316.4953" x2="325.6599" y1="287.057" y2="291.0584"/><line style="stroke:#181818;stroke-width:1;" x1="316.4953" x2="315.2201" y1="287.057" y2="296.9754"/><line style="stroke:#181818;stroke-width:1;" x1="316.4953" x2="320.44" y1="287.057" y2="294.0169"/><ellipse cx="313.5368" cy="281.8372" fill="none" rx="4" ry="4" style="stroke:#181818;stroke-width:1;"/><text fill="#000000" font-family="sans-serif" font-size="13" lengthAdjust="spacing" textLength="68.0723" x="308.87" y="260.3638">&#1089;&#1086;&#1076;&#1077;&#1088;&#1078;&#1080;&#1090;</text></g><!--link Stock to SnapshotStock--><g class="link" data-entity-1="ent0004" data-entity-2="ent0010" data-link-type="crowfoot" data-source-line="29" id="lnk19"><path codeLine="29" d="M451.3017,221.8852 C436.9517,230.6452 427.77,236.8469 413.87,247.2969 C394.67,261.7269 387.5974,267.5077 372.5974,281.7177" fill="none" id="Stock-SnapshotStock" style="stroke:#181818;stroke-width:1;"/><line style="stroke:#181818;stroke-width:1;" x1="452.6317" x2="456.8" y1="216.3869" y2="223.2152"/><line style="stroke:#181818;stroke-width:1;" x1="450.0711" x2="454.2394" y1="217.95" y2="224.7783"/><line style="stroke:#181818;stroke-width:1;" x1="451.3017" x2="458.13" y1="221.8852" y2="217.7169"/><line style="stroke:#181818;stroke-width:1;" x1="365.3377" x2="363.6564" y1="288.595" y2="298.4527"/><line style="stroke:#181818;stroke-width:1;" x1="365.3377" x2="355.4036" y1="288.595" y2="289.7411"/><line style="stroke:#181818;stroke-width:1;" x1="365.3377" x2="359.53" y1="288.595" y2="294.0969"/><ellipse cx="369.6935" cy="284.4686" fill="none" rx="4" ry="4" style="stroke:#181818;stroke-width:1;"/><text fill="#000000" font-family="sans-serif" font-size="13" lengthAdjust="spacing" textLength="101.2896" x="414.87" y="260.3638">&#1092;&#1080;&#1082;&#1089;&#1080;&#1088;&#1091;&#1077;&#1090;&#1089;&#1103; &#1074;</text></g><?plantuml-src bLD1Ji9G5Dpt53_ikO1Rmz9eu0G4QcmaBO5AOcG11IN6HVV66D4BV2i515kkyFwDdFVRGWiQOveIof-PD_Eck9RRCWMzqKODA5Rt55A4IofVLAfbcj6I97tWJD8NBYa06W8GKq2HUb2tGWtL2Bo83vG7_gUWAOMW1BG4LXg6QRkMUorAzCHYk1UGZKgYtXKrr-cO8WTvrT9I3VJnMSTfNZNSFE1PZv6uOrfb6etBFEG5BXQ91GsecbspqwkxbcCNb6YZGLBTmQaly7NBmm-3n0cIuN1VvxHjTWu4fs2yOoaUueK27mkiZ1SQ9Y8YtH6RNv7ScQ_qe95NUeHIfCQqXiXAULWohB2n5IrJAmt7RbWjIviuTkppbbNOKyskjxiNZYjW8KQF8Mi9DT4LvIFLcoTEqsnjySKysc-iVAPmfa80GO7efhmaJFgGDPAqs--NoyvDMjCHPz66a6OE7vwHbRo7qwzaIBDa8lAlsJbc6WaYXUVBrU81t2wuDpmO-TD3mgx57smLfkHgOcVO0xyUSn0aA0SPVga7KqPgWlLnf42Dc9e6sktfdzp31ZFBXJB-3BYF7kjNRyX_X6GO1liyy1i0?></g></svg>