<?plantuml 1.2026.2?><svg xmlns="http://www.w3.org/2000/svg" xmlns:xlink="http://www.w3.org/1999/xlink" contentStyleType="text/css" data-diagram-type="CLASS" height="593px" preserveAspectRatio="none" style="width:554px;height:593px;background:#FFFFFF;" version="1.1" viewBox="0 0 554 593" width="554px" zoomAndPan="magnify"><title>&#1057;&#1090;&#1088;&#1091;&#1082;&#1090;&#1091;&#1088;&#1072; Redis-&#1082;&#1083;&#1102;&#1095;&#1077;&#1081;</title><defs/><g><g class="title" data-source-line="1"><text fill="#000000" font-family="sans-serif" font-size="14" font-weight="bold" lengthAdjust="spacing" textLength="200.1426" x="170.4126" y="22.9951">&#1057;&#1090;&#1088;&#1091;&#1082;&#1090;&#1091;&#1088;&#1072; Redis-&#1082;&#1083;&#1102;&#1095;&#1077;&#1081;</text></g><!--class AvailabilityKey--><g class="entity" data-qualified-name="AvailabilityKey" data-source-line="3" id="ent0002"><rect fill="#F1F1F1" height="162.0781" rx="2.5" ry="2.5" style="stroke:#181818;stroke-width:0.5;" width="246.7393" x="138.95" y="234.4769"/><ellipse cx="163.7023" cy="250.4769" fill="#ADD1B2" rx="11" ry="11" style="stroke:#181818;stroke-width:1;"/><path d="M167.8117,256.4769 L160.093,256.4769 L160.093,244.0863 L167.8117,244.0863 L167.8117,246.2425 L162.5461,246.2425 L162.5461,248.9144 L167.3117,248.9144 L167.3117,251.0706 L162.5461,251.0706 L162.5461,254.3206 L167.8117,254.3206 L167.8117,256.4769 Z " fill="#000000"/><text fill="#000000" font-family="sans-serif" font-size="14" lengthAdjust="spacing" textLength="193.0674" x="179.8695" y="255.3236">&#1050;&#1083;&#1102;&#1095; &#1076;&#1086;&#1089;&#1090;&#1091;&#1087;&#1085;&#1086;&#1089;&#1090;&#1080; &#1090;&#1086;&#1074;&#1072;&#1088;&#1072;</text><line style="stroke:#181818;stroke-width:0.5;" x1="139.95" x2="384.6893" y1="266.4769" y2="266.4769"/><g data-visibility-modifier="IE_MANDATORY"><ellipse cx="149.95" cy="280.1253" fill="#000000" rx="3" ry="3" style="stroke:#000000;stroke-width:1;"/></g><text fill="#000000" font-family="sans-serif" font-size="14" lengthAdjust="spacing" textLength="220.7393" x="158.95" y="283.472">availability:{store_id}:{sku_id}</text><line style="stroke:#181818;stroke-width:1;" x1="139.95" x2="384.6893" y1="290.7738" y2="290.7738"/><text fill="#000000" font-family="sans-serif" font-size="14" lengthAdjust="spacing" textLength="93.0713" x="144.95" y="307.7689">sku_id : UUID</text><text fill="#000000" font-family="sans-serif" font-size="14" lengthAdjust="spacing" textLength="104.5146" x="144.95" y="324.0657">store_id : UUID</text><text fill="#000000" font-family="sans-serif" font-size="14" lengthAdjust="spacing" textLength="156.5908" x="144.95" y="340.3626">available_qty : integer</text><text fill="#000000" font-family="sans-serif" font-size="14" lengthAdjust="spacing" textLength="155.2168" x="144.95" y="356.6595">reserved_qty : integer</text><text fill="#000000" font-family="sans-serif" font-size="14" lengthAdjust="spacing" textLength="115.0146" x="144.95" y="372.9564">version : integer</text><text fill="#000000" font-family="sans-serif" font-size="14" lengthAdjust="spacing" textLength="156.0986" x="144.95" y="389.2532">updated_at : datetime</text></g><!--class HotSkuKey--><g class="entity" data-qualified-name="HotSkuKey" data-source-line="14" id="ent0003"><rect fill="#F1F1F1" height="113.1875" rx="2.5" ry="2.5" style="stroke:#181818;stroke-width:0.5;" width="196.8965" x="163.88" y="473.5569"/><ellipse cx="178.88" cy="489.5569" fill="#ADD1B2" rx="11" ry="11" style="stroke:#181818;stroke-width:1;"/><path d="M182.9894,495.5569 L175.2706,495.5569 L175.2706,483.1663 L182.9894,483.1663 L182.9894,485.3225 L177.7238,485.3225 L177.7238,487.9944 L182.4894,487.9944 L182.4894,490.1506 L177.7238,490.1506 L177.7238,493.4006 L182.9894,493.4006 L182.9894,495.5569 Z " fill="#000000"/><text fill="#000000" font-family="sans-serif" font-size="14" lengthAdjust="spacing" textLength="164.8965" x="192.88" y="494.4036">&#1050;&#1083;&#1102;&#1095; &#1075;&#1086;&#1088;&#1103;&#1095;&#1077;&#1075;&#1086; &#1090;&#1086;&#1074;&#1072;&#1088;&#1072;</text><line style="stroke:#181818;stroke-width:0.5;" x1="164.88" x2="359.7765" y1="505.5569" y2="505.5569"/><g data-visibility-modifier="IE_MANDATORY"><ellipse cx="174.88" cy="519.2053" fill="#000000" rx="3" ry="3" style="stroke:#000000;stroke-width:1;"/></g><text fill="#000000" font-family="sans-serif" font-size="14" lengthAdjust="spacing" textLength="120.7842" x="183.88" y="522.552">hot_sku:{sku_id}</text><line style="stroke:#181818;stroke-width:1;" x1="164.88" x2="359.7765" y1="529.8538" y2="529.8538"/><text fill="#000000" font-family="sans-serif" font-size="14" lengthAdjust="spacing" textLength="93.0713" x="169.88" y="546.8489">sku_id : UUID</text><text fill="#000000" font-family="sans-serif" font-size="14" lengthAdjust="spacing" textLength="163.7617" x="169.88" y="563.1457">request_count : integer</text><text fill="#000000" font-family="sans-serif" font-size="14" lengthAdjust="spacing" textLength="156.0986" x="169.88" y="579.4426">updated_at : datetime</text></g><!--class QueryCacheKey--><g class="entity" data-qualified-name="QueryCacheKey" data-source-line="22" id="ent0004"><rect fill="#F1F1F1" height="113.1875" rx="2.5" ry="2.5" style="stroke:#181818;stroke-width:0.5;" width="222.6475" x="7" y="44.2969"/><ellipse cx="22" cy="60.2969" fill="#ADD1B2" rx="11" ry="11" style="stroke:#181818;stroke-width:1;"/><path d="M26.1094,66.2969 L18.3906,66.2969 L18.3906,53.9063 L26.1094,53.9063 L26.1094,56.0625 L20.8438,56.0625 L20.8438,58.7344 L25.6094,58.7344 L25.6094,60.8906 L20.8438,60.8906 L20.8438,64.1406 L26.1094,64.1406 L26.1094,66.2969 Z " fill="#000000"/><text fill="#000000" font-family="sans-serif" font-size="14" lengthAdjust="spacing" textLength="190.6475" x="36" y="65.1436">&#1050;&#1083;&#1102;&#1095; &#1088;&#1077;&#1079;&#1091;&#1083;&#1100;&#1090;&#1072;&#1090;&#1072; &#1079;&#1072;&#1087;&#1088;&#1086;&#1089;&#1072;</text><line style="stroke:#181818;stroke-width:0.5;" x1="8" x2="228.6475" y1="76.2969" y2="76.2969"/><g data-visibility-modifier="IE_MANDATORY"><ellipse cx="18" cy="89.9453" fill="#000000" rx="3" ry="3" style="stroke:#000000;stroke-width:1;"/></g><text fill="#000000" font-family="sans-serif" font-size="14" lengthAdjust="spacing" textLength="96.5645" x="27" y="93.292">query:{hash}</text><line style="stroke:#181818;stroke-width:1;" x1="8" x2="228.6475" y1="100.5938" y2="100.5938"/><text fill="#000000" font-family="sans-serif" font-size="14" lengthAdjust="spacing" textLength="147.9502" x="13" y="117.5889">request_hash : string</text><text fill="#000000" font-family="sans-serif" font-size="14" lengthAdjust="spacing" textLength="82.1543" x="13" y="133.8857">result : json</text><text fill="#000000" font-family="sans-serif" font-size="14" lengthAdjust="spacing" textLength="151.5186" x="13" y="150.1826">created_at : datetime</text></g><!--class LockKey--><g class="entity" data-qualified-name="LockKey" data-source-line="30" id="ent0005"><rect fill="#F1F1F1" height="96.8906" rx="2.5" ry="2.5" style="stroke:#181818;stroke-width:0.5;" width="283.2979" x="264.67" y="52.4469"/><ellipse cx="336.8917" cy="68.4469" fill="#ADD1B2" rx="11" ry="11" style="stroke:#181818;stroke-width:1;"/><path d="M341.0011,74.4469 L333.2823,74.4469 L333.2823,62.0563 L341.0011,62.0563 L341.0011,64.2125 L335.7354,64.2125 L335.7354,66.8844 L340.5011,66.8844 L340.5011,69.0406 L335.7354,69.0406 L335.7354,72.2906 L341.0011,72.2906 L341.0011,74.4469 Z " fill="#000000"/><text fill="#000000" font-family="sans-serif" font-size="14" lengthAdjust="spacing" textLength="130.3545" x="357.3917" y="73.2936">&#1050;&#1083;&#1102;&#1095; &#1073;&#1083;&#1086;&#1082;&#1080;&#1088;&#1086;&#1074;&#1082;&#1080;</text><line style="stroke:#181818;stroke-width:0.5;" x1="265.67" x2="546.9679" y1="84.4469" y2="84.4469"/><g data-visibility-modifier="IE_MANDATORY"><ellipse cx="275.67" cy="98.0953" fill="#000000" rx="3" ry="3" style="stroke:#000000;stroke-width:1;"/></g><text fill="#000000" font-family="sans-serif" font-size="14" lengthAdjust="spacing" textLength="257.2979" x="284.67" y="101.442">lock:reservation:{store_id}:{sku_id}</text><line style="stroke:#181818;stroke-width:1;" x1="265.67" x2="546.9679" y1="108.7438" y2="108.7438"/><text fill="#000000" font-family="sans-serif" font-size="14" lengthAdjust="spacing" textLength="112.0547" x="270.67" y="125.7389">owner_id : UUID</text><text fill="#000000" font-family="sans-serif" font-size="14" lengthAdjust="spacing" textLength="149.2217" x="270.67" y="142.0357">expires_at : datetime</text></g><!--link AvailabilityKey to HotSkuKey--><g class="link" data-entity-1="ent0002" data-entity-2="ent0003" data-link-type="crowfoot" data-source-line="37" id="lnk6"><path codeLine="37" d="M262.32,404.9069 C262.32,430.3069 262.32,431.8169 262.32,455.1269" fill="none" id="AvailabilityKey-HotSkuKey" style="stroke:#181818;stroke-width:1;"/><line style="stroke:#181818;stroke-width:1;" x1="258.32" x2="266.32" y1="400.9069" y2="400.9069"/><line style="stroke:#181818;stroke-width:1;" x1="258.32" x2="266.32" y1="403.9069" y2="403.9069"/><line style="stroke:#181818;stroke-width:1;" x1="262.32" x2="262.32" y1="404.9069" y2="396.9069"/><line style="stroke:#181818;stroke-width:1;" x1="262.32" x2="268.32" y1="465.1269" y2="473.1269"/><line style="stroke:#181818;stroke-width:1;" x1="262.32" x2="256.32" y1="465.1269" y2="473.1269"/><line style="stroke:#181818;stroke-width:1;" x1="262.32" x2="262.32" y1="465.1269" y2="473.1269"/><ellipse cx="262.32" cy="459.1269" fill="none" rx="4" ry="4" style="stroke:#181818;stroke-width:1;"/><text fill="#000000" font-family="sans-serif" font-size="13" lengthAdjust="spacing" textLength="177.1567" x="263.32" y="439.6238">&#1084;&#1086;&#1078;&#1077;&#1090;_&#1073;&#1099;&#1090;&#1100;_&#1087;&#1086;&#1087;&#1091;&#1083;&#1103;&#1088;&#1085;&#1099;&#1084;</text></g><!--link QueryCacheKey to AvailabilityKey--><g class="link" data-entity-1="ent0004" data-entity-2="ent0002" data-link-type="crowfoot" data-source-line="38" id="lnk7"><path codeLine="38" d="M166.2517,172.6618 C182.0817,196.0418 186.2045,202.1226 203.4645,227.6126" fill="none" id="QueryCacheKey-AvailabilityKey" style="stroke:#181818;stroke-width:1;"/><line style="stroke:#181818;stroke-width:1;" x1="160.6452" x2="151.1917" y1="164.3813" y2="161.1208"/><line style="stroke:#181818;stroke-width:1;" x1="160.6452" x2="161.1283" y1="164.3813" y2="154.393"/><line style="stroke:#181818;stroke-width:1;" x1="160.6452" x2="156.16" y1="164.3813" y2="157.7569"/><ellipse cx="164.0091" cy="169.3496" fill="none" rx="4" ry="4" style="stroke:#181818;stroke-width:1;"/><line style="stroke:#181818;stroke-width:1;" x1="209.0194" x2="202.3951" y1="228.682" y2="233.1675"/><line style="stroke:#181818;stroke-width:1;" x1="207.3373" x2="200.7131" y1="226.1979" y2="230.6834"/><line style="stroke:#181818;stroke-width:1;" x1="203.4645" x2="207.95" y1="227.6126" y2="234.2369"/><text fill="#000000" font-family="sans-serif" font-size="13" lengthAdjust="spacing" textLength="78.1968" x="187.01" y="200.5438">&#1080;&#1089;&#1087;&#1086;&#1083;&#1100;&#1079;&#1091;&#1077;&#1090;</text></g><!--link LockKey to AvailabilityKey--><g class="link" data-entity-1="ent0005" data-entity-2="ent0002" data-link-type="crowfoot" data-source-line="39" id="lnk8"><path codeLine="39" d="M363.915,164.5096 C347.075,189.3696 340.6148,198.9122 321.3548,227.3622" fill="none" id="LockKey-AvailabilityKey" style="stroke:#181818;stroke-width:1;"/><line style="stroke:#181818;stroke-width:1;" x1="369.5233" x2="369.0424" y1="156.2303" y2="146.2419"/><line style="stroke:#181818;stroke-width:1;" x1="369.5233" x2="378.9776" y1="156.2303" y2="152.9719"/><line style="stroke:#181818;stroke-width:1;" x1="369.5233" x2="374.01" y1="156.2303" y2="149.6069"/><ellipse cx="366.1583" cy="161.1979" fill="none" rx="4" ry="4" style="stroke:#181818;stroke-width:1;"/><line style="stroke:#181818;stroke-width:1;" x1="322.4247" x2="315.8" y1="232.9169" y2="228.4321"/><line style="stroke:#181818;stroke-width:1;" x1="324.1065" x2="317.4818" y1="230.4326" y2="225.9479"/><line style="stroke:#181818;stroke-width:1;" x1="321.3548" x2="316.87" y1="227.3622" y2="233.9869"/><text fill="#000000" font-family="sans-serif" font-size="13" lengthAdjust="spacing" textLength="71.354" x="348.22" y="200.5438">&#1079;&#1072;&#1097;&#1080;&#1097;&#1072;&#1077;&#1090;</text></g><?plantuml-src dL9DJzj04BtxLwmu8laF-5QL0wXSMiJPMf8HMU9woUuw9KeY1JXK20HtRlq7eMqW913-mkm_wjiuD8JmKVLWUsPst_ZDU-EKoqZm3t_aU_wOH_WU-nxtnHUgAXlpYCV-t7_d0Tz64ULEkPPOuSkoAlWtJ_nXmF03tvSn3mLU4_x9_T1eHKWhFZIbokIEoW3_H2tHZeHO5V99DMbRfmsbgjf5M2z2W4jnZ5UPYaHiRs-iXNnsSrwPTSeeRO1V8bJkQ9SCJWnPCasgBXqqoLYbyuLQiL-L3dUbGpc4JdsbgFlIuBymRCzVJ9L1l3pokdPRzM8-R4sx58EyEvoXHa7MfHLTvEu_sO74W6zWojYVWLW_F89lkCyFE89BCuwV2pAjZx9IepdFHgWbxPgqjRyS7pc58lvjdL7vRYbkaGKsUrRdo2k6_bM_Anv3i14F0o48XsXAQLDNwdCo6RAaj50wkFNMbkXlEPa5AUbWNm6yJEVvEdOwSQpRJonB1D-1rZKF_57AL_uKAtwMOiSdK338UW7Qz_wKxw953RiwZZkTfNr7lo5K3tXOChK6dQF7OLz7mJD_0km9l0k8Fm00?></g></svg>